<svg width="22" height="25" viewBox="0 0 22 25" fill="none" xmlns="http://www.w3.org/2000/svg">
<path d="M10.9375 24.6231C12.6621 24.6231 14.0611 23.2945 14.0611 21.6551H7.814C7.814 23.2945 9.21292 24.6231 10.9375 24.6231ZM21.4546 17.6804C20.5113 16.7177 18.7461 15.2694 18.7461 10.5253C18.7461 6.92199 16.086 4.03749 12.4991 3.32982V2.36338C12.4991 1.54394 11.7998 0.879395 10.9375 0.879395C10.0752 0.879395 9.37601 1.54394 9.37601 2.36338V3.32982C5.7891 4.03749 3.12894 6.92199 3.12894 10.5253C3.12894 15.2694 1.3638 16.7177 0.420444 17.6804C0.127475 17.9795 -0.00240765 18.3371 3.37592e-05 18.6872C0.00540485 19.4477 0.633823 20.1712 1.56742 20.1712H20.3077C21.2412 20.1712 21.8702 19.4477 21.875 18.6872C21.8775 18.3371 21.7476 17.979 21.4546 17.6804Z" fill="white"/>
</svg>
