<svg width="25" height="22" viewBox="0 0 25 22" fill="none" xmlns="http://www.w3.org/2000/svg">
<path d="M13.5216 2.65321C14.9775 1.68081 16.8859 1.06021 18.7287 0.664357C20.5713 0.268577 22.3466 0.0978331 23.5352 0.0242317C24.321 -0.0241803 24.9783 0.629084 24.9779 1.45643V17.4557C24.9779 18.2138 24.4159 18.8445 23.6954 18.886C21.5482 19.0091 17.2013 19.4591 14.194 21.1106C13.7476 21.3557 13.2157 21.0229 13.2157 20.4908V3.25886C13.2157 3.01509 13.327 2.78317 13.5216 2.65321ZM0.0217014 1.45644C0.0217014 0.629084 0.678957 -0.0241802 1.46481 0.0242321C2.65342 0.0980708 4.42873 0.268815 6.27121 0.664534C8.11403 1.06032 10.0223 1.68081 11.478 2.65321C11.6732 2.78378 11.7839 3.00638 11.7839 3.25034V20.4941C11.7839 21.0249 11.2536 21.3571 10.8086 21.1125C7.80133 19.46 3.45227 19.0096 1.30419 18.8864C0.58366 18.8455 0.0217014 18.2148 0.0217014 17.4561V1.45644Z" fill="white" stroke="white" stroke-width="0.0434028"/>
</svg>
