<svg width="28" height="28" viewBox="0 0 28 28" fill="none" xmlns="http://www.w3.org/2000/svg">
<path d="M16.9167 21C16.1 21 15.4097 20.718 14.8458 20.1541C14.2819 19.5903 14 18.9 14 18.0833C14 17.2666 14.2819 16.5764 14.8458 16.0125C15.4097 15.4486 16.1 15.1666 16.9167 15.1666C17.7333 15.1666 18.4236 15.4486 18.9875 16.0125C19.5514 16.5764 19.8333 17.2666 19.8333 18.0833C19.8333 18.9 19.5514 19.5903 18.9875 20.1541C18.4236 20.718 17.7333 21 16.9167 21ZM5.83333 25.6666C5.19167 25.6666 4.64236 25.4382 4.18542 24.9812C3.72847 24.5243 3.5 23.975 3.5 23.3333V6.99998C3.5 6.35831 3.72847 5.80901 4.18542 5.35206C4.64236 4.89512 5.19167 4.66665 5.83333 4.66665H7V2.33331H9.33333V4.66665H18.6667V2.33331H21V4.66665H22.1667C22.8083 4.66665 23.3576 4.89512 23.8146 5.35206C24.2715 5.80901 24.5 6.35831 24.5 6.99998V23.3333C24.5 23.975 24.2715 24.5243 23.8146 24.9812C23.3576 25.4382 22.8083 25.6666 22.1667 25.6666H5.83333ZM5.83333 23.3333H22.1667V11.6666H5.83333V23.3333ZM5.83333 9.33331H22.1667V6.99998H5.83333V9.33331Z" fill="white"/>
</svg>
