<svg width="24" height="24" viewBox="0 0 24 24" fill="none" xmlns="http://www.w3.org/2000/svg">
<path d="M1.86667 24L0 22.1333L13.6667 8.46667C13.2667 7.53333 13.2111 6.47778 13.5 5.3C13.7889 4.12222 14.4222 3.06667 15.4 2.13333C16.5778 0.955556 17.8889 0.266667 19.3333 0.0666667C20.7778 -0.133333 21.9556 0.222222 22.8667 1.13333C23.7778 2.04444 24.1333 3.22222 23.9333 4.66667C23.7333 6.11111 23.0444 7.42222 21.8667 8.6C20.9333 9.57778 19.8778 10.2111 18.7 10.5C17.5222 10.7889 16.4667 10.7333 15.5333 10.3333L13.8667 12L24 22.1333L22.1333 24L12 13.9333L1.86667 24ZM5.8 12.6L1.8 8.6C0.6 7.4 0 5.96667 0 4.3C0 2.63333 0.6 1.2 1.8 0L10.0667 8.33333L5.8 12.6Z" fill="white"/>
</svg>
