<svg width="25" height="24" viewBox="0 0 25 24" fill="none" xmlns="http://www.w3.org/2000/svg">
<path d="M12.5 0C5.5957 0 0 4.96009 0 11.0816C0 13.7242 1.04492 16.1429 2.7832 18.0449C2.17285 20.7301 0.131836 23.1222 0.107422 23.1489C0 23.2714 -0.0292969 23.4525 0.0341797 23.6124C0.0976562 23.7722 0.234375 23.8681 0.390625 23.8681C3.62793 23.8681 6.05469 22.1739 7.25586 21.1297C8.85254 21.785 10.625 22.1632 12.5 22.1632C19.4043 22.1632 25 17.2032 25 11.0816C25 4.96009 19.4043 0 12.5 0ZM6.25 12.7865C5.38574 12.7865 4.6875 12.0246 4.6875 11.0816C4.6875 10.1386 5.38574 9.37676 6.25 9.37676C7.11426 9.37676 7.8125 10.1386 7.8125 11.0816C7.8125 12.0246 7.11426 12.7865 6.25 12.7865ZM12.5 12.7865C11.6357 12.7865 10.9375 12.0246 10.9375 11.0816C10.9375 10.1386 11.6357 9.37676 12.5 9.37676C13.3643 9.37676 14.0625 10.1386 14.0625 11.0816C14.0625 12.0246 13.3643 12.7865 12.5 12.7865ZM18.75 12.7865C17.8857 12.7865 17.1875 12.0246 17.1875 11.0816C17.1875 10.1386 17.8857 9.37676 18.75 9.37676C19.6143 9.37676 20.3125 10.1386 20.3125 11.0816C20.3125 12.0246 19.6143 12.7865 18.75 12.7865Z" fill="#2F4F4F"/>
</svg>
