<svg width="25" height="18" viewBox="0 0 25 18" fill="none" xmlns="http://www.w3.org/2000/svg">
<path d="M11.8555 4.375C11.8555 6.78218 9.90718 8.73047 7.5 8.73047C5.09282 8.73047 3.14453 6.78218 3.14453 4.375C3.14453 1.96782 5.09282 0.0195312 7.5 0.0195312C9.90718 0.0195312 11.8555 1.96782 11.8555 4.375ZM7.5 10.6445C8.46259 10.6445 9.36642 10.4101 10.1802 10.0195H10.5C12.9736 10.0195 14.9805 12.0264 14.9805 14.5V15.625C14.9805 16.6494 14.1494 17.4805 13.125 17.4805H1.875C0.850631 17.4805 0.0195312 16.6494 0.0195312 15.625V14.5C0.0195312 12.0264 2.02641 10.0195 4.5 10.0195H4.81979C5.63745 10.4101 6.53738 10.6445 7.5 10.6445ZM22.4805 5C22.4805 7.05953 20.8095 8.73047 18.75 8.73047C16.6905 8.73047 15.0195 7.05953 15.0195 5C15.0195 2.94047 16.6905 1.26953 18.75 1.26953C20.8095 1.26953 22.4805 2.94047 22.4805 5ZM18.75 10.332C19.3609 10.332 19.9363 10.2069 20.4798 10.0195H20.625C23.0322 10.0195 24.9805 11.9678 24.9805 14.375C24.9805 15.3994 24.1494 16.2305 23.125 16.2305H16.2474C16.2495 16.2022 16.2533 16.1738 16.2571 16.1445C16.2578 16.1393 16.2584 16.1342 16.2591 16.129C16.2645 16.0874 16.2695 16.0443 16.2695 16V14.5C16.2695 12.9957 15.6767 11.6349 14.7302 10.6063C15.3671 10.2438 16.0907 10.0195 16.875 10.0195H17.0202C17.5637 10.2069 18.1391 10.332 18.75 10.332Z" fill="white" stroke="white" stroke-width="0.0390625"/>
</svg>
