<svg width="25" height="24" viewBox="0 0 25 24" fill="none" xmlns="http://www.w3.org/2000/svg">
<path d="M13.8363 2.68866L13.8361 2.6889L12.8742 3.77043L12.5006 4.19049L12.127 3.77043L11.1651 2.6889L11.1645 2.68829C8.87316 0.103478 5.20996 -0.272486 2.76791 1.99814L13.8363 2.68866ZM13.8363 2.68866C16.1328 0.103238 19.7912 -0.272283 22.2331 1.99795L13.8363 2.68866ZM22.6784 12.3764L22.6785 12.3763C25.2521 9.47851 25.0954 4.66384 22.2334 1.99821L22.6784 12.3764ZM22.6784 12.3764L13.2303 23.0211C13.2302 23.0211 13.2302 23.0211 13.2302 23.0212C12.8188 23.4843 12.1776 23.4843 11.7661 23.0212C11.7661 23.0211 11.7661 23.0211 11.7661 23.0211L2.3181 12.3767M22.6784 12.3764L2.3181 12.3767M2.3181 12.3767L2.3179 12.3764C-0.250931 9.47852 -0.0941651 4.66381 2.76783 1.99821L2.3181 12.3767Z" fill="white" stroke="#2F4F4F"/>
</svg>
