<svg width="31" height="25" viewBox="0 0 31 25" fill="none" xmlns="http://www.w3.org/2000/svg">
<path d="M15.1732 6.88483L5.73226 14.7971V23.3368C5.73226 23.5579 5.81858 23.77 5.97223 23.9263C6.12588 24.0827 6.33427 24.1705 6.55157 24.1705L12.2898 24.1554C12.5063 24.1543 12.7137 24.066 12.8665 23.9097C13.0192 23.7535 13.105 23.5421 13.105 23.3217V18.3346C13.105 18.1135 13.1913 17.9015 13.3449 17.7451C13.4986 17.5888 13.707 17.5009 13.9243 17.5009H17.2015C17.4188 17.5009 17.6272 17.5888 17.7808 17.7451C17.9345 17.9015 18.0208 18.1135 18.0208 18.3346V23.318C18.0205 23.4277 18.0414 23.5364 18.0824 23.6379C18.1234 23.7393 18.1837 23.8316 18.2599 23.9092C18.336 23.9869 18.4264 24.0486 18.526 24.0906C18.6255 24.1327 18.7323 24.1543 18.8401 24.1543L24.5763 24.1705C24.7935 24.1705 25.0019 24.0827 25.1556 23.9263C25.3092 23.77 25.3956 23.5579 25.3956 23.3368V14.7914L15.9567 6.88483C15.8457 6.79382 15.7075 6.74419 15.5649 6.74419C15.4224 6.74419 15.2842 6.79382 15.1732 6.88483ZM30.0861 12.2627L25.8052 8.67207V1.45486C25.8052 1.28903 25.7405 1.12999 25.6252 1.01273C25.51 0.895467 25.3537 0.82959 25.1907 0.82959H22.3232C22.1602 0.82959 22.0039 0.895467 21.8887 1.01273C21.7734 1.12999 21.7087 1.28903 21.7087 1.45486V5.23828L17.1242 1.40015C16.6842 1.03175 16.1321 0.830326 15.5624 0.830326C14.9926 0.830326 14.4405 1.03175 14.0006 1.40015L1.03868 12.2627C0.976455 12.315 0.924976 12.3793 0.887182 12.4519C0.849387 12.5245 0.826018 12.6039 0.818409 12.6857C0.810801 12.7675 0.819102 12.85 0.842838 12.9285C0.866575 13.007 0.905282 13.08 0.956747 13.1433L2.26251 14.7586C2.31384 14.8221 2.37697 14.8747 2.44829 14.9133C2.51961 14.952 2.59772 14.9759 2.67815 14.9838C2.75858 14.9917 2.83975 14.9834 2.91701 14.9593C2.99428 14.9352 3.06611 14.8959 3.12841 14.8435L15.1732 4.74849C15.2842 4.65747 15.4224 4.60784 15.5649 4.60784C15.7075 4.60784 15.8457 4.65747 15.9567 4.74849L28.002 14.8435C28.0642 14.8959 28.1359 14.9353 28.213 14.9594C28.2902 14.9836 28.3713 14.992 28.4516 14.9843C28.532 14.9765 28.6101 14.9528 28.6814 14.9143C28.7527 14.8758 28.8159 14.8235 28.8674 14.7601L30.1731 13.1449C30.2245 13.0812 30.2631 13.0078 30.2865 12.929C30.31 12.8501 30.3179 12.7673 30.3098 12.6854C30.3017 12.6034 30.2778 12.5238 30.2394 12.4513C30.201 12.3788 30.1489 12.3147 30.0861 12.2627Z" fill="white"/>
</svg>
