<svg width="18" height="25" viewBox="0 0 18 25" fill="none" xmlns="http://www.w3.org/2000/svg">
<path d="M0.230819 4.45857C1.2202 3.03692 2.34415 1.9287 3.7061 1.17575C5.06796 0.422866 6.66921 0.0244141 8.61444 0.0244141C10.6807 0.0244141 12.8174 0.831006 14.4374 2.1695C16.0572 3.50792 17.1585 5.3765 17.1585 7.5C17.1585 8.91102 16.7776 9.97348 16.207 10.8066C15.6362 11.64 14.8746 12.2452 14.1113 12.74C13.739 12.9814 13.3666 13.1963 13.0157 13.3987L12.9894 13.4139C12.6312 13.6206 12.2959 13.8149 12.0083 14.011C11.4345 14.4022 11.0419 14.8064 11.0419 15.3431V15.625C11.0419 16.2587 10.5282 16.7725 9.89442 16.7725H6.3558C5.72207 16.7725 5.20834 16.2587 5.20834 15.625V15.1471C5.20834 12.2148 7.37693 11.0012 9.09134 10.0417C9.13262 10.0186 9.17365 9.99564 9.21437 9.97281C9.95541 9.55735 10.5562 9.20671 10.9714 8.8214C11.3878 8.43495 11.6191 8.01216 11.6191 7.45327C11.6191 6.71356 11.1473 6.10112 10.4912 5.67486C9.83491 5.24849 8.99024 5.00547 8.23451 5.00547C7.27498 5.00547 6.56571 5.22717 5.94276 5.64221C5.32078 6.05661 4.78615 6.66297 4.17456 7.42915C3.7863 7.91557 3.08065 8.0035 2.58471 7.62747L0.478363 6.03035C-0.0126755 5.65802 -0.12125 4.96447 0.230819 4.45857ZM4.76718 21.6177C4.76718 19.7661 6.27358 18.2597 8.12514 18.2597C9.97669 18.2597 11.4831 19.7661 11.4831 21.6176C11.4831 23.4692 9.97669 24.9756 8.12514 24.9756C6.27358 24.9756 4.76718 23.4692 4.76718 21.6177Z" fill="white" stroke="white" stroke-width="0.0488281"/>
</svg>
