<svg width="25" height="25" viewBox="0 0 25 25" fill="none" xmlns="http://www.w3.org/2000/svg">
<path d="M24.6582 21.4094L19.79 16.7858C19.5703 16.5771 19.2725 16.4612 18.96 16.4612H18.1641C19.5117 14.8242 20.3125 12.7652 20.3125 10.5253C20.3125 5.19686 15.7666 0.879395 10.1562 0.879395C4.5459 0.879395 0 5.19686 0 10.5253C0 15.8537 4.5459 20.1712 10.1562 20.1712C12.5146 20.1712 14.6826 19.4106 16.4062 18.1307V18.8866C16.4062 19.1834 16.5283 19.4663 16.748 19.675L21.6162 24.2985C22.0752 24.7344 22.8174 24.7344 23.2715 24.2985L24.6533 22.9861C25.1123 22.5502 25.1123 21.8453 24.6582 21.4094ZM10.1562 16.4612C6.7041 16.4612 3.90625 13.8086 3.90625 10.5253C3.90625 7.24661 6.69922 4.58935 10.1562 4.58935C13.6084 4.58935 16.4062 7.24197 16.4062 10.5253C16.4062 13.804 13.6133 16.4612 10.1562 16.4612Z" fill="white"/>
</svg>
