<svg width="41" height="41" viewBox="0 0 41 41" fill="none" xmlns="http://www.w3.org/2000/svg">
<path d="M23.5545 30.2025H17.3662C16.3374 30.2025 15.5097 29.3747 15.5097 28.3457V15.3483H8.72574C7.34884 15.3483 6.66039 13.685 7.63505 12.7102L19.4006 0.93518C19.9808 0.35494 20.9322 0.35494 21.5124 0.93518L33.2856 12.7102C34.2603 13.685 33.5719 15.3483 32.195 15.3483H25.411V28.3457C25.411 29.3747 24.5833 30.2025 23.5545 30.2025ZM40.263 29.5836V38.2485C40.263 39.2775 39.4353 40.1053 38.4065 40.1053H2.51421C1.4854 40.1053 0.657715 39.2775 0.657715 38.2485V29.5836C0.657715 28.5546 1.4854 27.7268 2.51421 27.7268H13.0344V28.3457C13.0344 30.7363 14.9759 32.6782 17.3662 32.6782H23.5545C25.9447 32.6782 27.8863 30.7363 27.8863 28.3457V27.7268H38.4065C39.4353 27.7268 40.263 28.5546 40.263 29.5836ZM30.6711 36.3917C30.6711 35.5407 29.9749 34.8444 29.124 34.8444C28.2731 34.8444 27.5769 35.5407 27.5769 36.3917C27.5769 37.2427 28.2731 37.939 29.124 37.939C29.9749 37.939 30.6711 37.2427 30.6711 36.3917ZM35.6217 36.3917C35.6217 35.5407 34.9255 34.8444 34.0747 34.8444C33.2238 34.8444 32.5276 35.5407 32.5276 36.3917C32.5276 37.2427 33.2238 37.939 34.0747 37.939C34.9255 37.939 35.6217 37.2427 35.6217 36.3917Z" fill="#F5F5DC"/>
</svg>
