<svg width="1363" height="163" viewBox="0 0 1363 163" fill="none" xmlns="http://www.w3.org/2000/svg">
<path d="M0 15C0 6.71573 6.71573 0 15 0H37V163H15C6.71573 163 0 156.284 0 148V15Z" fill="white"/>
<rect width="1097" height="163" transform="translate(37)" fill="#F0F0F0"/>
<path d="M94.512 47.296H99.672L104.544 52.6L99.672 57.904H94.512L99.408 52.6L94.512 47.296ZM124.678 44.152V47.44H120.214V61H116.11V47.44H111.646V44.152H124.678ZM125.922 54.28C125.922 52.904 126.178 51.696 126.69 50.656C127.218 49.616 127.93 48.816 128.826 48.256C129.722 47.696 130.722 47.416 131.826 47.416C132.77 47.416 133.594 47.608 134.298 47.992C135.018 48.376 135.57 48.88 135.954 49.504V47.608H140.058V61H135.954V59.104C135.554 59.728 134.994 60.232 134.274 60.616C133.57 61 132.746 61.192 131.802 61.192C130.714 61.192 129.722 60.912 128.826 60.352C127.93 59.776 127.218 58.968 126.69 57.928C126.178 56.872 125.922 55.656 125.922 54.28ZM135.954 54.304C135.954 53.28 135.666 52.472 135.09 51.88C134.53 51.288 133.842 50.992 133.026 50.992C132.21 50.992 131.514 51.288 130.938 51.88C130.378 52.456 130.098 53.256 130.098 54.28C130.098 55.304 130.378 56.12 130.938 56.728C131.514 57.32 132.21 57.616 133.026 57.616C133.842 57.616 134.53 57.32 135.09 56.728C135.666 56.136 135.954 55.328 135.954 54.304ZM147.131 49.504C147.515 48.88 148.067 48.376 148.787 47.992C149.507 47.608 150.331 47.416 151.259 47.416C152.363 47.416 153.363 47.696 154.259 48.256C155.155 48.816 155.859 49.616 156.371 50.656C156.899 51.696 157.163 52.904 157.163 54.28C157.163 55.656 156.899 56.872 156.371 57.928C155.859 58.968 155.155 59.776 154.259 60.352C153.363 60.912 152.363 61.192 151.259 61.192C150.315 61.192 149.491 61.008 148.787 60.64C148.083 60.256 147.531 59.752 147.131 59.128V61H143.027V43.24H147.131V49.504ZM152.987 54.28C152.987 53.256 152.699 52.456 152.123 51.88C151.563 51.288 150.867 50.992 150.035 50.992C149.219 50.992 148.523 51.288 147.947 51.88C147.387 52.472 147.107 53.28 147.107 54.304C147.107 55.328 147.387 56.136 147.947 56.728C148.523 57.32 149.219 57.616 150.035 57.616C150.851 57.616 151.547 57.32 152.123 56.728C152.699 56.12 152.987 55.304 152.987 54.28ZM167.5 61L163.42 55.384V61H159.316V43.24H163.42V53.056L167.476 47.608H172.54L166.972 54.328L172.588 61H167.5ZM182.384 47.464C183.92 47.464 185.152 47.976 186.08 49C187.008 50.008 187.472 51.4 187.472 53.176V61H183.392V53.728C183.392 52.832 183.16 52.136 182.696 51.64C182.232 51.144 181.608 50.896 180.824 50.896C180.04 50.896 179.416 51.144 178.952 51.64C178.488 52.136 178.256 52.832 178.256 53.728V61H174.152V43.24H178.256V49.408C178.672 48.816 179.24 48.344 179.96 47.992C180.68 47.64 181.488 47.464 182.384 47.464ZM202.948 54.088C202.948 54.472 202.924 54.872 202.876 55.288H193.588C193.652 56.12 193.916 56.76 194.38 57.208C194.86 57.64 195.444 57.856 196.132 57.856C197.156 57.856 197.868 57.424 198.268 56.56H202.636C202.412 57.44 202.004 58.232 201.412 58.936C200.836 59.64 200.108 60.192 199.228 60.592C198.348 60.992 197.364 61.192 196.276 61.192C194.964 61.192 193.796 60.912 192.772 60.352C191.748 59.792 190.948 58.992 190.372 57.952C189.796 56.912 189.508 55.696 189.508 54.304C189.508 52.912 189.788 51.696 190.348 50.656C190.924 49.616 191.724 48.816 192.748 48.256C193.772 47.696 194.948 47.416 196.276 47.416C197.572 47.416 198.724 47.688 199.732 48.232C200.74 48.776 201.524 49.552 202.084 50.56C202.66 51.568 202.948 52.744 202.948 54.088ZM198.748 53.008C198.748 52.304 198.508 51.744 198.028 51.328C197.548 50.912 196.948 50.704 196.228 50.704C195.54 50.704 194.956 50.904 194.476 51.304C194.012 51.704 193.724 52.272 193.612 53.008H198.748ZM212.577 57.52V61H210.489C209.001 61 207.841 60.64 207.009 59.92C206.177 59.184 205.761 57.992 205.761 56.344V51.016H204.129V47.608H205.761V44.344H209.865V47.608H212.553V51.016H209.865V56.392C209.865 56.792 209.961 57.08 210.153 57.256C210.345 57.432 210.665 57.52 211.113 57.52H212.577ZM223.023 47.464C224.591 47.464 225.839 47.976 226.767 49C227.711 50.008 228.183 51.4 228.183 53.176V61H224.103V53.728C224.103 52.832 223.871 52.136 223.407 51.64C222.943 51.144 222.319 50.896 221.535 50.896C220.751 50.896 220.127 51.144 219.663 51.64C219.199 52.136 218.967 52.832 218.967 53.728V61H214.863V47.608H218.967V49.384C219.383 48.792 219.943 48.328 220.647 47.992C221.351 47.64 222.143 47.464 223.023 47.464ZM230.219 54.28C230.219 52.904 230.475 51.696 230.987 50.656C231.515 49.616 232.227 48.816 233.123 48.256C234.019 47.696 235.019 47.416 236.123 47.416C237.067 47.416 237.891 47.608 238.595 47.992C239.315 48.376 239.867 48.88 240.251 49.504V47.608H244.355V61H240.251V59.104C239.851 59.728 239.291 60.232 238.571 60.616C237.867 61 237.043 61.192 236.099 61.192C235.011 61.192 234.019 60.912 233.123 60.352C232.227 59.776 231.515 58.968 230.987 57.928C230.475 56.872 230.219 55.656 230.219 54.28ZM240.251 54.304C240.251 53.28 239.963 52.472 239.387 51.88C238.827 51.288 238.139 50.992 237.323 50.992C236.507 50.992 235.811 51.288 235.235 51.88C234.675 52.456 234.395 53.256 234.395 54.28C234.395 55.304 234.675 56.12 235.235 56.728C235.811 57.32 236.507 57.616 237.323 57.616C238.139 57.616 238.827 57.32 239.387 56.728C239.963 56.136 240.251 55.328 240.251 54.304Z" fill="#888888"/>
<path d="M125.16 85.304V119H116.952V105.128H104.184V119H95.976V85.304H104.184V98.504H116.952V85.304H125.16ZM143.277 119.384C140.653 119.384 138.285 118.824 136.173 117.704C134.093 116.584 132.445 114.984 131.229 112.904C130.045 110.824 129.453 108.392 129.453 105.608C129.453 102.856 130.061 100.44 131.277 98.36C132.493 96.248 134.157 94.632 136.269 93.512C138.381 92.392 140.749 91.832 143.373 91.832C145.997 91.832 148.365 92.392 150.477 93.512C152.589 94.632 154.253 96.248 155.469 98.36C156.685 100.44 157.293 102.856 157.293 105.608C157.293 108.36 156.669 110.792 155.421 112.904C154.205 114.984 152.525 116.584 150.381 117.704C148.269 118.824 145.901 119.384 143.277 119.384ZM143.277 112.28C144.845 112.28 146.173 111.704 147.261 110.552C148.381 109.4 148.941 107.752 148.941 105.608C148.941 103.464 148.397 101.816 147.309 100.664C146.253 99.512 144.941 98.936 143.373 98.936C141.773 98.936 140.445 99.512 139.389 100.664C138.333 101.784 137.805 103.432 137.805 105.608C137.805 107.752 138.317 109.4 139.341 110.552C140.397 111.704 141.709 112.28 143.277 112.28ZM200.096 92.216L192.848 119H183.776L179.552 101.624L175.184 119H166.16L158.864 92.216H167.072L170.864 111.368L175.376 92.216H184.064L188.624 111.272L192.368 92.216H200.096ZM237.638 85.304V91.88H228.71V119H220.502V91.88H211.574V85.304H237.638ZM253.949 119.384C251.325 119.384 248.957 118.824 246.845 117.704C244.765 116.584 243.117 114.984 241.901 112.904C240.717 110.824 240.125 108.392 240.125 105.608C240.125 102.856 240.733 100.44 241.949 98.36C243.165 96.248 244.829 94.632 246.941 93.512C249.053 92.392 251.421 91.832 254.045 91.832C256.669 91.832 259.037 92.392 261.149 93.512C263.261 94.632 264.925 96.248 266.141 98.36C267.357 100.44 267.965 102.856 267.965 105.608C267.965 108.36 267.341 110.792 266.093 112.904C264.877 114.984 263.197 116.584 261.053 117.704C258.941 118.824 256.573 119.384 253.949 119.384ZM253.949 112.28C255.517 112.28 256.845 111.704 257.933 110.552C259.053 109.4 259.613 107.752 259.613 105.608C259.613 103.464 259.069 101.816 257.981 100.664C256.925 99.512 255.613 98.936 254.045 98.936C252.445 98.936 251.117 99.512 250.061 100.664C249.005 101.784 248.477 103.432 248.477 105.608C248.477 107.752 248.989 109.4 250.013 110.552C251.069 111.704 252.381 112.28 253.949 112.28ZM299.676 119L292.668 106.28H290.7V119H282.492V85.304H296.268C298.924 85.304 301.18 85.768 303.036 86.696C304.924 87.624 306.332 88.904 307.26 90.536C308.188 92.136 308.652 93.928 308.652 95.912C308.652 98.152 308.012 100.152 306.732 101.912C305.484 103.672 303.628 104.92 301.164 105.656L308.94 119H299.676ZM290.7 100.472H295.788C297.292 100.472 298.412 100.104 299.148 99.368C299.916 98.632 300.3 97.592 300.3 96.248C300.3 94.968 299.916 93.96 299.148 93.224C298.412 92.488 297.292 92.12 295.788 92.12H290.7V100.472ZM340.252 92.216V119H332.044V115.352C331.212 116.536 330.076 117.496 328.636 118.232C327.228 118.936 325.66 119.288 323.932 119.288C321.884 119.288 320.076 118.84 318.508 117.944C316.94 117.016 315.724 115.688 314.86 113.96C313.996 112.232 313.564 110.2 313.564 107.864V92.216H321.724V106.76C321.724 108.552 322.188 109.944 323.116 110.936C324.044 111.928 325.292 112.424 326.86 112.424C328.46 112.424 329.724 111.928 330.652 110.936C331.58 109.944 332.044 108.552 332.044 106.76V92.216H340.252ZM362.468 91.928C365.604 91.928 368.1 92.952 369.956 95C371.844 97.016 372.788 99.8 372.788 103.352V119H364.628V104.456C364.628 102.664 364.164 101.272 363.236 100.28C362.308 99.288 361.06 98.792 359.492 98.792C357.924 98.792 356.676 99.288 355.748 100.28C354.82 101.272 354.356 102.664 354.356 104.456V119H346.148V92.216H354.356V95.768C355.188 94.584 356.308 93.656 357.716 92.984C359.124 92.28 360.708 91.928 362.468 91.928ZM388.332 83.432C391.756 83.432 394.492 84.328 396.54 86.12C398.62 87.912 399.66 90.44 399.66 93.704C399.66 96.712 398.668 99.064 396.684 100.76C394.732 102.424 392.14 103.272 388.908 103.304L388.668 106.904H381.468L381.228 97.976H384.108C386.572 97.976 388.444 97.672 389.724 97.064C391.036 96.456 391.692 95.352 391.692 93.752C391.692 92.632 391.388 91.752 390.78 91.112C390.172 90.472 389.324 90.152 388.236 90.152C387.084 90.152 386.188 90.488 385.548 91.16C384.908 91.8 384.588 92.68 384.588 93.8H376.86C376.796 91.848 377.196 90.088 378.06 88.52C378.956 86.952 380.268 85.72 381.996 84.824C383.756 83.896 385.868 83.432 388.332 83.432ZM385.164 119.384C383.724 119.384 382.54 118.968 381.612 118.136C380.716 117.272 380.268 116.216 380.268 114.968C380.268 113.688 380.716 112.616 381.612 111.752C382.54 110.888 383.724 110.456 385.164 110.456C386.572 110.456 387.724 110.888 388.62 111.752C389.548 112.616 390.012 113.688 390.012 114.968C390.012 116.216 389.548 117.272 388.62 118.136C387.724 118.968 386.572 119.384 385.164 119.384Z" fill="#2F4F4F"/>
<path d="M1134 0H1348C1356.28 0 1363 6.71573 1363 15V148C1363 156.284 1356.28 163 1348 163H1134V0Z" fill="#2F4F4F"/>
<path d="M1260.62 78.8078C1263.81 78.8078 1266.93 79.7552 1269.59 81.5302C1272.25 83.3052 1274.32 85.8281 1275.54 88.7798C1276.76 91.7315 1277.08 94.9795 1276.46 98.1131C1275.84 101.247 1274.3 104.125 1272.04 106.384C1269.78 108.643 1266.9 110.182 1263.77 110.805C1260.63 111.428 1257.39 111.108 1254.43 109.886C1251.48 108.663 1248.96 106.593 1247.18 103.936C1245.41 101.28 1244.46 98.1565 1244.46 94.9616C1244.46 90.6774 1246.16 86.5686 1249.19 83.5392C1252.22 80.5097 1256.33 78.8078 1260.62 78.8078V78.8078ZM1260.62 73.4232C1256.36 73.4232 1252.19 74.6864 1248.65 77.0531C1245.11 79.4198 1242.35 82.7836 1240.72 86.7192C1239.09 90.6549 1238.66 94.9855 1239.49 99.1636C1240.32 103.342 1242.37 107.179 1245.39 110.192C1248.4 113.204 1252.24 115.255 1256.41 116.086C1260.59 116.917 1264.92 116.491 1268.86 114.861C1272.79 113.23 1276.16 110.47 1278.52 106.928C1280.89 103.386 1282.15 99.2215 1282.15 94.9616C1282.15 89.2493 1279.88 83.7709 1275.85 79.7317C1271.81 75.6924 1266.33 73.4232 1260.62 73.4232Z" fill="white"/>
<path d="M1274.08 46.5H1220.23C1218.8 46.5 1217.43 47.0673 1216.42 48.0771C1215.41 49.0869 1214.85 50.4565 1214.85 51.8846V105.731C1214.85 107.159 1215.41 108.528 1216.42 109.538C1217.43 110.548 1218.8 111.115 1220.23 111.115H1231V105.731H1220.23V68.0384H1279.46V51.8846C1279.46 50.4565 1278.89 49.0869 1277.88 48.0771C1276.87 47.0673 1275.5 46.5 1274.08 46.5V46.5ZM1220.23 62.6538V51.8846H1274.08V62.6538H1220.23Z" fill="white"/>
<path d="M1255.23 86.8849V103.039L1268.69 94.9618L1255.23 86.8849Z" fill="white"/>
</svg>
