<svg width="1363" height="163" viewBox="0 0 1363 163" fill="none" xmlns="http://www.w3.org/2000/svg">
<path d="M0 15C0 6.71573 6.71573 0 15 0H37V163H15C6.71573 163 0 156.284 0 148V15Z" fill="#F0EAD6"/>
<rect width="1097" height="163" transform="translate(37)" fill="#F0F0F0"/>
<path d="M101.906 53.9219L94.3945 51.2383V48.0859L104.602 52.375V54.6367L101.906 53.9219ZM94.3945 56.1719L101.918 53.4297L104.602 52.7852V55.0352L94.3945 59.3242V56.1719ZM119.895 43.9375V61H116.391V43.9375H119.895ZM125.145 43.9375V46.6914H111.223V43.9375H125.145ZM132 58.1406V52.4922C132 52.0859 131.934 51.7383 131.801 51.4492C131.668 51.1523 131.461 50.9219 131.18 50.7578C130.906 50.5938 130.551 50.5117 130.113 50.5117C129.738 50.5117 129.414 50.5781 129.141 50.7109C128.867 50.8359 128.656 51.0195 128.508 51.2617C128.359 51.4961 128.285 51.7734 128.285 52.0938H124.91C124.91 51.5547 125.035 51.043 125.285 50.5586C125.535 50.0742 125.898 49.6484 126.375 49.2812C126.852 48.9062 127.418 48.6133 128.074 48.4023C128.738 48.1914 129.48 48.0859 130.301 48.0859C131.285 48.0859 132.16 48.25 132.926 48.5781C133.691 48.9062 134.293 49.3984 134.73 50.0547C135.176 50.7109 135.398 51.5312 135.398 52.5156V57.9414C135.398 58.6367 135.441 59.207 135.527 59.6523C135.613 60.0898 135.738 60.4727 135.902 60.8008V61H132.492C132.328 60.6562 132.203 60.2266 132.117 59.7109C132.039 59.1875 132 58.6641 132 58.1406ZM132.445 53.2773L132.469 55.1875H130.582C130.137 55.1875 129.75 55.2383 129.422 55.3398C129.094 55.4414 128.824 55.5859 128.613 55.7734C128.402 55.9531 128.246 56.1641 128.145 56.4062C128.051 56.6484 128.004 56.9141 128.004 57.2031C128.004 57.4922 128.07 57.7539 128.203 57.9883C128.336 58.2148 128.527 58.3945 128.777 58.5273C129.027 58.6523 129.32 58.7148 129.656 58.7148C130.164 58.7148 130.605 58.6133 130.98 58.4102C131.355 58.207 131.645 57.957 131.848 57.6602C132.059 57.3633 132.168 57.082 132.176 56.8164L133.066 58.2461C132.941 58.5664 132.77 58.8984 132.551 59.2422C132.34 59.5859 132.07 59.9102 131.742 60.2148C131.414 60.5117 131.02 60.7578 130.559 60.9531C130.098 61.1406 129.551 61.2344 128.918 61.2344C128.113 61.2344 127.383 61.0742 126.727 60.7539C126.078 60.4258 125.562 59.9766 125.18 59.4062C124.805 58.8281 124.617 58.1719 124.617 57.4375C124.617 56.7734 124.742 56.1836 124.992 55.668C125.242 55.1523 125.609 54.7188 126.094 54.3672C126.586 54.0078 127.199 53.7383 127.934 53.5586C128.668 53.3711 129.52 53.2773 130.488 53.2773H132.445ZM138 43H141.375V58.0938L141.035 61H138V43ZM149.402 54.5312V54.7773C149.402 55.7227 149.301 56.5898 149.098 57.3789C148.902 58.168 148.598 58.8516 148.184 59.4297C147.77 60 147.254 60.4453 146.637 60.7656C146.027 61.0781 145.309 61.2344 144.48 61.2344C143.707 61.2344 143.035 61.0781 142.465 60.7656C141.902 60.4531 141.43 60.0117 141.047 59.4414C140.664 58.8711 140.355 58.2031 140.121 57.4375C139.887 56.6719 139.711 55.8359 139.594 54.9297V54.3906C139.711 53.4844 139.887 52.6484 140.121 51.8828C140.355 51.1172 140.664 50.4492 141.047 49.8789C141.43 49.3086 141.902 48.8672 142.465 48.5547C143.027 48.2422 143.691 48.0859 144.457 48.0859C145.293 48.0859 146.02 48.2461 146.637 48.5664C147.262 48.8789 147.777 49.3242 148.184 49.9023C148.598 50.4727 148.902 51.1523 149.098 51.9414C149.301 52.7227 149.402 53.5859 149.402 54.5312ZM146.027 54.7773V54.5312C146.027 54.0156 145.988 53.5312 145.91 53.0781C145.84 52.6172 145.715 52.2148 145.535 51.8711C145.355 51.5195 145.109 51.2422 144.797 51.0391C144.492 50.8359 144.098 50.7344 143.613 50.7344C143.152 50.7344 142.762 50.8125 142.441 50.9688C142.121 51.125 141.855 51.3438 141.645 51.625C141.441 51.9062 141.289 52.2422 141.188 52.6328C141.086 53.0156 141.023 53.4375 141 53.8984V55.4336C141.023 56.0508 141.125 56.5977 141.305 57.0742C141.492 57.543 141.773 57.9141 142.148 58.1875C142.531 58.4531 143.027 58.5859 143.637 58.5859C144.113 58.5859 144.508 58.4922 144.82 58.3047C145.133 58.1172 145.375 57.8516 145.547 57.5078C145.727 57.1641 145.852 56.7617 145.922 56.3008C145.992 55.832 146.027 55.3242 146.027 54.7773ZM154.875 42.9883V61H151.5V42.9883H154.875ZM162.867 48.3203L157.359 54.6016L154.406 57.5898L153.176 55.1523L155.52 52.1758L158.812 48.3203H162.867ZM159.363 61L155.613 55.1406L157.945 53.1016L163.254 61H159.363ZM169.922 61.2344C168.938 61.2344 168.055 61.0781 167.273 60.7656C166.492 60.4453 165.828 60.0039 165.281 59.4414C164.742 58.8789 164.328 58.2266 164.039 57.4844C163.75 56.7344 163.605 55.9375 163.605 55.0938V54.625C163.605 53.6641 163.742 52.7852 164.016 51.9883C164.289 51.1914 164.68 50.5 165.188 49.9141C165.703 49.3281 166.328 48.8789 167.062 48.5664C167.797 48.2461 168.625 48.0859 169.547 48.0859C170.445 48.0859 171.242 48.2344 171.938 48.5312C172.633 48.8281 173.215 49.25 173.684 49.7969C174.16 50.3438 174.52 51 174.762 51.7656C175.004 52.5234 175.125 53.3672 175.125 54.2969V55.7031H165.047V53.4531H171.809V53.1953C171.809 52.7266 171.723 52.3086 171.551 51.9414C171.387 51.5664 171.137 51.2695 170.801 51.0508C170.465 50.832 170.035 50.7227 169.512 50.7227C169.066 50.7227 168.684 50.8203 168.363 51.0156C168.043 51.2109 167.781 51.4844 167.578 51.8359C167.383 52.1875 167.234 52.6016 167.133 53.0781C167.039 53.5469 166.992 54.0625 166.992 54.625V55.0938C166.992 55.6016 167.062 56.0703 167.203 56.5C167.352 56.9297 167.559 57.3008 167.824 57.6133C168.098 57.9258 168.426 58.168 168.809 58.3398C169.199 58.5117 169.641 58.5977 170.133 58.5977C170.742 58.5977 171.309 58.4805 171.832 58.2461C172.363 58.0039 172.82 57.6406 173.203 57.1562L174.844 58.9375C174.578 59.3203 174.215 59.6875 173.754 60.0391C173.301 60.3906 172.754 60.6797 172.113 60.9062C171.473 61.125 170.742 61.2344 169.922 61.2344ZM180.34 43V61H176.965V43H180.34ZM179.859 54.2148H178.934C178.941 53.332 179.059 52.5195 179.285 51.7773C179.512 51.0273 179.836 50.3789 180.258 49.832C180.68 49.2773 181.184 48.8477 181.77 48.543C182.363 48.2383 183.02 48.0859 183.738 48.0859C184.363 48.0859 184.93 48.1758 185.438 48.3555C185.953 48.5273 186.395 48.8086 186.762 49.1992C187.137 49.582 187.426 50.0859 187.629 50.7109C187.832 51.3359 187.934 52.0938 187.934 52.9844V61H184.535V52.9609C184.535 52.3984 184.453 51.957 184.289 51.6367C184.133 51.3086 183.902 51.0781 183.598 50.9453C183.301 50.8047 182.934 50.7344 182.496 50.7344C182.012 50.7344 181.598 50.8242 181.254 51.0039C180.918 51.1836 180.648 51.4336 180.445 51.7539C180.242 52.0664 180.094 52.4336 180 52.8555C179.906 53.2773 179.859 53.7305 179.859 54.2148ZM196.711 48.3203V50.7109H189.328V48.3203H196.711ZM191.156 45.1914H194.531V57.1797C194.531 57.5469 194.578 57.8281 194.672 58.0234C194.773 58.2188 194.922 58.3555 195.117 58.4336C195.312 58.5039 195.559 58.5391 195.855 58.5391C196.066 58.5391 196.254 58.5312 196.418 58.5156C196.59 58.4922 196.734 58.4688 196.852 58.4453L196.863 60.9297C196.574 61.0234 196.262 61.0977 195.926 61.1523C195.59 61.207 195.219 61.2344 194.812 61.2344C194.07 61.2344 193.422 61.1133 192.867 60.8711C192.32 60.6211 191.898 60.2227 191.602 59.6758C191.305 59.1289 191.156 58.4102 191.156 57.5195V45.1914ZM201.938 51.0273V61H198.562V48.3203H201.727L201.938 51.0273ZM201.445 54.2148H200.531C200.531 53.2773 200.652 52.4336 200.895 51.6836C201.137 50.9258 201.477 50.2812 201.914 49.75C202.352 49.2109 202.871 48.8008 203.473 48.5195C204.082 48.2305 204.762 48.0859 205.512 48.0859C206.105 48.0859 206.648 48.1719 207.141 48.3438C207.633 48.5156 208.055 48.7891 208.406 49.1641C208.766 49.5391 209.039 50.0352 209.227 50.6523C209.422 51.2695 209.52 52.0234 209.52 52.9141V61H206.121V52.9023C206.121 52.3398 206.043 51.9023 205.887 51.5898C205.73 51.2773 205.5 51.0586 205.195 50.9336C204.898 50.8008 204.531 50.7344 204.094 50.7344C203.641 50.7344 203.246 50.8242 202.91 51.0039C202.582 51.1836 202.309 51.4336 202.09 51.7539C201.879 52.0664 201.719 52.4336 201.609 52.8555C201.5 53.2773 201.445 53.7305 201.445 54.2148ZM218.93 58.1406V52.4922C218.93 52.0859 218.863 51.7383 218.73 51.4492C218.598 51.1523 218.391 50.9219 218.109 50.7578C217.836 50.5938 217.48 50.5117 217.043 50.5117C216.668 50.5117 216.344 50.5781 216.07 50.7109C215.797 50.8359 215.586 51.0195 215.438 51.2617C215.289 51.4961 215.215 51.7734 215.215 52.0938H211.84C211.84 51.5547 211.965 51.043 212.215 50.5586C212.465 50.0742 212.828 49.6484 213.305 49.2812C213.781 48.9062 214.348 48.6133 215.004 48.4023C215.668 48.1914 216.41 48.0859 217.23 48.0859C218.215 48.0859 219.09 48.25 219.855 48.5781C220.621 48.9062 221.223 49.3984 221.66 50.0547C222.105 50.7109 222.328 51.5312 222.328 52.5156V57.9414C222.328 58.6367 222.371 59.207 222.457 59.6523C222.543 60.0898 222.668 60.4727 222.832 60.8008V61H219.422C219.258 60.6562 219.133 60.2266 219.047 59.7109C218.969 59.1875 218.93 58.6641 218.93 58.1406ZM219.375 53.2773L219.398 55.1875H217.512C217.066 55.1875 216.68 55.2383 216.352 55.3398C216.023 55.4414 215.754 55.5859 215.543 55.7734C215.332 55.9531 215.176 56.1641 215.074 56.4062C214.98 56.6484 214.934 56.9141 214.934 57.2031C214.934 57.4922 215 57.7539 215.133 57.9883C215.266 58.2148 215.457 58.3945 215.707 58.5273C215.957 58.6523 216.25 58.7148 216.586 58.7148C217.094 58.7148 217.535 58.6133 217.91 58.4102C218.285 58.207 218.574 57.957 218.777 57.6602C218.988 57.3633 219.098 57.082 219.105 56.8164L219.996 58.2461C219.871 58.5664 219.699 58.8984 219.48 59.2422C219.27 59.5859 219 59.9102 218.672 60.2148C218.344 60.5117 217.949 60.7578 217.488 60.9531C217.027 61.1406 216.48 61.2344 215.848 61.2344C215.043 61.2344 214.312 61.0742 213.656 60.7539C213.008 60.4258 212.492 59.9766 212.109 59.4062C211.734 58.8281 211.547 58.1719 211.547 57.4375C211.547 56.7734 211.672 56.1836 211.922 55.668C212.172 55.1523 212.539 54.7188 213.023 54.3672C213.516 54.0078 214.129 53.7383 214.863 53.5586C215.598 53.3711 216.449 53.2773 217.418 53.2773H219.375Z" fill="#888888"/>
<path d="M109.219 107.422H100.734V101.07H109.219C110.375 101.07 111.312 100.875 112.031 100.484C112.75 100.094 113.273 99.5547 113.602 98.8672C113.945 98.1641 114.117 97.375 114.117 96.5C114.117 95.5625 113.945 94.6953 113.602 93.8984C113.273 93.1016 112.75 92.4609 112.031 91.9766C111.312 91.4766 110.375 91.2266 109.219 91.2266H103.828V119H95.6016V84.875H109.219C111.953 84.875 114.305 85.375 116.273 86.375C118.258 87.375 119.781 88.75 120.844 90.5C121.906 92.2344 122.438 94.2188 122.438 96.4531C122.438 98.6562 121.906 100.578 120.844 102.219C119.781 103.859 118.258 105.141 116.273 106.062C114.305 106.969 111.953 107.422 109.219 107.422ZM134.461 99.9219V119H126.562V93.6406H133.945L134.461 99.9219ZM141.961 93.4531L141.82 100.789C141.508 100.758 141.086 100.719 140.555 100.672C140.023 100.625 139.578 100.602 139.219 100.602C138.297 100.602 137.5 100.711 136.828 100.93C136.172 101.133 135.625 101.445 135.188 101.867C134.766 102.273 134.453 102.789 134.25 103.414C134.062 104.039 133.977 104.766 133.992 105.594L132.562 104.656C132.562 102.953 132.727 101.406 133.055 100.016C133.398 98.6094 133.883 97.3984 134.508 96.3828C135.133 95.3516 135.891 94.5625 136.781 94.0156C137.672 93.4531 138.672 93.1719 139.781 93.1719C140.172 93.1719 140.555 93.1953 140.93 93.2422C141.32 93.2891 141.664 93.3594 141.961 93.4531ZM142.852 106.578V106.086C142.852 104.227 143.117 102.516 143.648 100.953C144.18 99.375 144.961 98.0078 145.992 96.8516C147.023 95.6953 148.297 94.7969 149.812 94.1562C151.328 93.5 153.078 93.1719 155.062 93.1719C157.062 93.1719 158.82 93.5 160.336 94.1562C161.867 94.7969 163.148 95.6953 164.18 96.8516C165.211 98.0078 165.992 99.375 166.523 100.953C167.055 102.516 167.32 104.227 167.32 106.086V106.578C167.32 108.422 167.055 110.133 166.523 111.711C165.992 113.273 165.211 114.641 164.18 115.812C163.148 116.969 161.875 117.867 160.359 118.508C158.844 119.148 157.094 119.469 155.109 119.469C153.125 119.469 151.367 119.148 149.836 118.508C148.305 117.867 147.023 116.969 145.992 115.812C144.961 114.641 144.18 113.273 143.648 111.711C143.117 110.133 142.852 108.422 142.852 106.578ZM150.75 106.086V106.578C150.75 107.531 150.82 108.422 150.961 109.25C151.102 110.078 151.336 110.805 151.664 111.43C151.992 112.039 152.438 112.516 153 112.859C153.562 113.203 154.266 113.375 155.109 113.375C155.938 113.375 156.625 113.203 157.172 112.859C157.734 112.516 158.18 112.039 158.508 111.43C158.836 110.805 159.07 110.078 159.211 109.25C159.352 108.422 159.422 107.531 159.422 106.578V106.086C159.422 105.164 159.352 104.297 159.211 103.484C159.07 102.656 158.836 101.93 158.508 101.305C158.18 100.664 157.734 100.164 157.172 99.8047C156.609 99.4453 155.906 99.2656 155.062 99.2656C154.234 99.2656 153.539 99.4453 152.977 99.8047C152.43 100.164 151.992 100.664 151.664 101.305C151.336 101.93 151.102 102.656 150.961 103.484C150.82 104.297 150.75 105.164 150.75 106.086ZM171.422 93.6406H179.344V119.82C179.344 121.852 178.953 123.562 178.172 124.953C177.391 126.359 176.273 127.422 174.82 128.141C173.367 128.875 171.633 129.242 169.617 129.242C168.945 129.242 168.328 129.211 167.766 129.148C167.188 129.102 166.555 129 165.867 128.844V122.867C166.273 122.93 166.648 122.977 166.992 123.008C167.336 123.055 167.711 123.078 168.117 123.078C168.836 123.078 169.438 122.961 169.922 122.727C170.406 122.492 170.773 122.133 171.023 121.648C171.289 121.164 171.422 120.555 171.422 119.82V93.6406ZM170.836 87.1016C170.836 85.9766 171.242 85.0547 172.055 84.3359C172.867 83.6172 173.922 83.2578 175.219 83.2578C176.516 83.2578 177.57 83.6172 178.383 84.3359C179.195 85.0547 179.602 85.9766 179.602 87.1016C179.602 88.2266 179.195 89.1484 178.383 89.8672C177.57 90.5859 176.516 90.9453 175.219 90.9453C173.922 90.9453 172.867 90.5859 172.055 89.8672C171.242 89.1484 170.836 88.2266 170.836 87.1016ZM196.102 119.469C194.039 119.469 192.195 119.148 190.57 118.508C188.945 117.852 187.57 116.953 186.445 115.812C185.336 114.672 184.484 113.359 183.891 111.875C183.312 110.391 183.023 108.82 183.023 107.164V106.273C183.023 104.414 183.281 102.695 183.797 101.117C184.312 99.5234 185.078 98.1328 186.094 96.9453C187.109 95.7578 188.383 94.8359 189.914 94.1797C191.445 93.5078 193.227 93.1719 195.258 93.1719C197.055 93.1719 198.664 93.4609 200.086 94.0391C201.508 94.6172 202.711 95.4453 203.695 96.5234C204.695 97.6016 205.453 98.9062 205.969 100.438C206.5 101.969 206.766 103.688 206.766 105.594V108.805H186.047V103.859H199.055V103.25C199.07 102.406 198.922 101.688 198.609 101.094C198.312 100.5 197.875 100.047 197.297 99.7344C196.719 99.4219 196.016 99.2656 195.188 99.2656C194.328 99.2656 193.617 99.4531 193.055 99.8281C192.508 100.203 192.078 100.719 191.766 101.375C191.469 102.016 191.258 102.758 191.133 103.602C191.008 104.445 190.945 105.336 190.945 106.273V107.164C190.945 108.102 191.07 108.953 191.32 109.719C191.586 110.484 191.961 111.141 192.445 111.688C192.945 112.219 193.539 112.633 194.227 112.93C194.93 113.227 195.727 113.375 196.617 113.375C197.695 113.375 198.758 113.172 199.805 112.766C200.852 112.359 201.75 111.688 202.5 110.75L206.086 115.016C205.57 115.75 204.836 116.461 203.883 117.148C202.945 117.836 201.82 118.398 200.508 118.836C199.195 119.258 197.727 119.469 196.102 119.469ZM220.688 113.375C221.422 113.375 222.047 113.242 222.562 112.977C223.094 112.695 223.492 112.305 223.758 111.805C224.039 111.289 224.172 110.672 224.156 109.953H231.586C231.602 111.859 231.133 113.531 230.18 114.969C229.242 116.391 227.961 117.5 226.336 118.297C224.727 119.078 222.906 119.469 220.875 119.469C218.891 119.469 217.156 119.148 215.672 118.508C214.188 117.852 212.945 116.945 211.945 115.789C210.961 114.617 210.219 113.25 209.719 111.688C209.234 110.125 208.992 108.43 208.992 106.602V106.062C208.992 104.234 209.234 102.539 209.719 100.977C210.219 99.3984 210.961 98.0312 211.945 96.875C212.945 95.7031 214.18 94.7969 215.648 94.1562C217.133 93.5 218.859 93.1719 220.828 93.1719C222.938 93.1719 224.797 93.5703 226.406 94.3672C228.031 95.1641 229.305 96.3203 230.227 97.8359C231.148 99.3516 231.602 101.188 231.586 103.344H224.156C224.172 102.578 224.055 101.891 223.805 101.281C223.555 100.672 223.164 100.188 222.633 99.8281C222.117 99.4531 221.453 99.2656 220.641 99.2656C219.828 99.2656 219.172 99.4453 218.672 99.8047C218.172 100.164 217.789 100.664 217.523 101.305C217.273 101.93 217.102 102.648 217.008 103.461C216.93 104.273 216.891 105.141 216.891 106.062V106.602C216.891 107.539 216.93 108.422 217.008 109.25C217.102 110.062 217.281 110.781 217.547 111.406C217.812 112.016 218.195 112.5 218.695 112.859C219.195 113.203 219.859 113.375 220.688 113.375ZM248.32 93.6406V99.125H233.039V93.6406H248.32ZM236.25 87.3359H244.148V110.727C244.148 111.398 244.227 111.922 244.383 112.297C244.539 112.656 244.805 112.914 245.18 113.07C245.57 113.211 246.086 113.281 246.727 113.281C247.18 113.281 247.555 113.273 247.852 113.258C248.148 113.227 248.43 113.188 248.695 113.141V118.789C248.023 119.008 247.32 119.172 246.586 119.281C245.852 119.406 245.07 119.469 244.242 119.469C242.555 119.469 241.109 119.203 239.906 118.672C238.719 118.141 237.812 117.305 237.188 116.164C236.562 115.023 236.25 113.539 236.25 111.711V87.3359ZM277.406 107.422H268.922V101.07H277.406C278.562 101.07 279.5 100.875 280.219 100.484C280.938 100.094 281.461 99.5547 281.789 98.8672C282.133 98.1641 282.305 97.375 282.305 96.5C282.305 95.5625 282.133 94.6953 281.789 93.8984C281.461 93.1016 280.938 92.4609 280.219 91.9766C279.5 91.4766 278.562 91.2266 277.406 91.2266H272.016V119H263.789V84.875H277.406C280.141 84.875 282.492 85.375 284.461 86.375C286.445 87.375 287.969 88.75 289.031 90.5C290.094 92.2344 290.625 94.2188 290.625 96.4531C290.625 98.6562 290.094 100.578 289.031 102.219C287.969 103.859 286.445 105.141 284.461 106.062C282.492 106.969 280.141 107.422 277.406 107.422ZM302.414 83V119H294.516V83H302.414ZM301.477 105.453L299.625 105.5C299.625 103.719 299.844 102.078 300.281 100.578C300.719 99.0781 301.344 97.7734 302.156 96.6641C302.969 95.5547 303.945 94.6953 305.086 94.0859C306.227 93.4766 307.492 93.1719 308.883 93.1719C310.133 93.1719 311.273 93.3516 312.305 93.7109C313.352 94.0703 314.25 94.6484 315 95.4453C315.766 96.2422 316.352 97.2812 316.758 98.5625C317.18 99.8438 317.391 101.406 317.391 103.25V119H309.445V103.203C309.445 102.172 309.297 101.375 309 100.812C308.719 100.234 308.312 99.8359 307.781 99.6172C307.25 99.3828 306.602 99.2656 305.836 99.2656C304.914 99.2656 304.164 99.4219 303.586 99.7344C303.008 100.047 302.562 100.484 302.25 101.047C301.953 101.594 301.75 102.242 301.641 102.992C301.531 103.742 301.477 104.562 301.477 105.453ZM330.117 93.6406V119H322.195V93.6406H330.117ZM321.727 87.1016C321.727 85.9766 322.133 85.0547 322.945 84.3359C323.758 83.6172 324.812 83.2578 326.109 83.2578C327.406 83.2578 328.461 83.6172 329.273 84.3359C330.086 85.0547 330.492 85.9766 330.492 87.1016C330.492 88.2266 330.086 89.1484 329.273 89.8672C328.461 90.5859 327.406 90.9453 326.109 90.9453C324.812 90.9453 323.758 90.5859 322.945 89.8672C322.133 89.1484 321.727 88.2266 321.727 87.1016ZM343.336 83V119H335.414V83H343.336ZM347.227 106.578V106.086C347.227 104.227 347.492 102.516 348.023 100.953C348.555 99.375 349.336 98.0078 350.367 96.8516C351.398 95.6953 352.672 94.7969 354.188 94.1562C355.703 93.5 357.453 93.1719 359.438 93.1719C361.438 93.1719 363.195 93.5 364.711 94.1562C366.242 94.7969 367.523 95.6953 368.555 96.8516C369.586 98.0078 370.367 99.375 370.898 100.953C371.43 102.516 371.695 104.227 371.695 106.086V106.578C371.695 108.422 371.43 110.133 370.898 111.711C370.367 113.273 369.586 114.641 368.555 115.812C367.523 116.969 366.25 117.867 364.734 118.508C363.219 119.148 361.469 119.469 359.484 119.469C357.5 119.469 355.742 119.148 354.211 118.508C352.68 117.867 351.398 116.969 350.367 115.812C349.336 114.641 348.555 113.273 348.023 111.711C347.492 110.133 347.227 108.422 347.227 106.578ZM355.125 106.086V106.578C355.125 107.531 355.195 108.422 355.336 109.25C355.477 110.078 355.711 110.805 356.039 111.43C356.367 112.039 356.812 112.516 357.375 112.859C357.938 113.203 358.641 113.375 359.484 113.375C360.312 113.375 361 113.203 361.547 112.859C362.109 112.516 362.555 112.039 362.883 111.43C363.211 110.805 363.445 110.078 363.586 109.25C363.727 108.422 363.797 107.531 363.797 106.578V106.086C363.797 105.164 363.727 104.297 363.586 103.484C363.445 102.656 363.211 101.93 362.883 101.305C362.555 100.664 362.109 100.164 361.547 99.8047C360.984 99.4453 360.281 99.2656 359.438 99.2656C358.609 99.2656 357.914 99.4453 357.352 99.8047C356.805 100.164 356.367 100.664 356.039 101.305C355.711 101.93 355.477 102.656 355.336 103.484C355.195 104.297 355.125 105.164 355.125 106.086ZM388.5 111.875C388.5 111.438 388.352 111.062 388.055 110.75C387.773 110.422 387.273 110.125 386.555 109.859C385.836 109.578 384.828 109.297 383.531 109.016C382.297 108.75 381.133 108.398 380.039 107.961C378.961 107.523 378.016 106.992 377.203 106.367C376.391 105.742 375.75 105 375.281 104.141C374.828 103.281 374.602 102.297 374.602 101.188C374.602 100.109 374.828 99.0938 375.281 98.1406C375.75 97.1719 376.43 96.3203 377.32 95.5859C378.227 94.8359 379.328 94.25 380.625 93.8281C381.922 93.3906 383.398 93.1719 385.055 93.1719C387.336 93.1719 389.305 93.5234 390.961 94.2266C392.617 94.9141 393.891 95.8828 394.781 97.1328C395.688 98.3672 396.141 99.7969 396.141 101.422H388.242C388.242 100.781 388.133 100.234 387.914 99.7812C387.711 99.3281 387.375 98.9844 386.906 98.75C386.438 98.5 385.812 98.375 385.031 98.375C384.484 98.375 383.984 98.4766 383.531 98.6797C383.094 98.8828 382.742 99.1641 382.477 99.5234C382.211 99.8828 382.078 100.305 382.078 100.789C382.078 101.133 382.156 101.445 382.312 101.727C382.484 101.992 382.742 102.242 383.086 102.477C383.43 102.695 383.867 102.898 384.398 103.086C384.93 103.258 385.57 103.414 386.32 103.555C388.023 103.867 389.617 104.312 391.102 104.891C392.586 105.469 393.789 106.289 394.711 107.352C395.648 108.414 396.117 109.844 396.117 111.641C396.117 112.766 395.859 113.805 395.344 114.758C394.828 115.695 394.086 116.523 393.117 117.242C392.148 117.945 390.984 118.492 389.625 118.883C388.266 119.273 386.734 119.469 385.031 119.469C382.609 119.469 380.562 119.039 378.891 118.18C377.219 117.305 375.953 116.211 375.094 114.898C374.25 113.57 373.828 112.227 373.828 110.867H381.188C381.219 111.648 381.406 112.289 381.75 112.789C382.109 113.289 382.586 113.656 383.18 113.891C383.773 114.125 384.461 114.242 385.242 114.242C385.961 114.242 386.555 114.141 387.023 113.938C387.508 113.734 387.875 113.461 388.125 113.117C388.375 112.758 388.5 112.344 388.5 111.875ZM398.836 106.578V106.086C398.836 104.227 399.102 102.516 399.633 100.953C400.164 99.375 400.945 98.0078 401.977 96.8516C403.008 95.6953 404.281 94.7969 405.797 94.1562C407.312 93.5 409.062 93.1719 411.047 93.1719C413.047 93.1719 414.805 93.5 416.32 94.1562C417.852 94.7969 419.133 95.6953 420.164 96.8516C421.195 98.0078 421.977 99.375 422.508 100.953C423.039 102.516 423.305 104.227 423.305 106.086V106.578C423.305 108.422 423.039 110.133 422.508 111.711C421.977 113.273 421.195 114.641 420.164 115.812C419.133 116.969 417.859 117.867 416.344 118.508C414.828 119.148 413.078 119.469 411.094 119.469C409.109 119.469 407.352 119.148 405.82 118.508C404.289 117.867 403.008 116.969 401.977 115.812C400.945 114.641 400.164 113.273 399.633 111.711C399.102 110.133 398.836 108.422 398.836 106.578ZM406.734 106.086V106.578C406.734 107.531 406.805 108.422 406.945 109.25C407.086 110.078 407.32 110.805 407.648 111.43C407.977 112.039 408.422 112.516 408.984 112.859C409.547 113.203 410.25 113.375 411.094 113.375C411.922 113.375 412.609 113.203 413.156 112.859C413.719 112.516 414.164 112.039 414.492 111.43C414.82 110.805 415.055 110.078 415.195 109.25C415.336 108.422 415.406 107.531 415.406 106.578V106.086C415.406 105.164 415.336 104.297 415.195 103.484C415.055 102.656 414.82 101.93 414.492 101.305C414.164 100.664 413.719 100.164 413.156 99.8047C412.594 99.4453 411.891 99.2656 411.047 99.2656C410.219 99.2656 409.523 99.4453 408.961 99.8047C408.414 100.164 407.977 100.664 407.648 101.305C407.32 101.93 407.086 102.656 406.945 103.484C406.805 104.297 406.734 105.164 406.734 106.086ZM434.789 98.5156V128.75H426.891V93.6406H434.25L434.789 98.5156ZM450.352 106.016V106.508C450.352 108.352 450.141 110.062 449.719 111.641C449.297 113.219 448.672 114.594 447.844 115.766C447.016 116.938 445.984 117.852 444.75 118.508C443.531 119.148 442.117 119.469 440.508 119.469C438.992 119.469 437.688 119.133 436.594 118.461C435.5 117.789 434.586 116.859 433.852 115.672C433.117 114.484 432.523 113.125 432.07 111.594C431.617 110.062 431.258 108.445 430.992 106.742V106.109C431.258 104.281 431.617 102.586 432.07 101.023C432.523 99.4453 433.117 98.0703 433.852 96.8984C434.586 95.7266 435.492 94.8125 436.57 94.1562C437.664 93.5 438.969 93.1719 440.484 93.1719C442.094 93.1719 443.508 93.4766 444.727 94.0859C445.961 94.6953 446.992 95.5703 447.82 96.7109C448.664 97.8359 449.297 99.1875 449.719 100.766C450.141 102.344 450.352 104.094 450.352 106.016ZM442.453 106.508V106.016C442.453 105.031 442.383 104.133 442.242 103.32C442.102 102.492 441.875 101.773 441.562 101.164C441.266 100.555 440.867 100.086 440.367 99.7578C439.867 99.4297 439.25 99.2656 438.516 99.2656C437.672 99.2656 436.961 99.3984 436.383 99.6641C435.82 99.9141 435.367 100.305 435.023 100.836C434.695 101.352 434.461 102 434.32 102.781C434.195 103.547 434.141 104.445 434.156 105.477V107.398C434.125 108.586 434.242 109.633 434.508 110.539C434.773 111.43 435.234 112.125 435.891 112.625C436.547 113.125 437.438 113.375 438.562 113.375C439.312 113.375 439.938 113.203 440.438 112.859C440.938 112.5 441.336 112.008 441.633 111.383C441.93 110.742 442.141 110.008 442.266 109.18C442.391 108.352 442.453 107.461 442.453 106.508ZM461.602 83V119H453.703V83H461.602ZM460.664 105.453L458.812 105.5C458.812 103.719 459.031 102.078 459.469 100.578C459.906 99.0781 460.531 97.7734 461.344 96.6641C462.156 95.5547 463.133 94.6953 464.273 94.0859C465.414 93.4766 466.68 93.1719 468.07 93.1719C469.32 93.1719 470.461 93.3516 471.492 93.7109C472.539 94.0703 473.438 94.6484 474.188 95.4453C474.953 96.2422 475.539 97.2812 475.945 98.5625C476.367 99.8438 476.578 101.406 476.578 103.25V119H468.633V103.203C468.633 102.172 468.484 101.375 468.188 100.812C467.906 100.234 467.5 99.8359 466.969 99.6172C466.438 99.3828 465.789 99.2656 465.023 99.2656C464.102 99.2656 463.352 99.4219 462.773 99.7344C462.195 100.047 461.75 100.484 461.438 101.047C461.141 101.594 460.938 102.242 460.828 102.992C460.719 103.742 460.664 104.562 460.664 105.453ZM488.742 116.023L495.305 93.6406H503.789L493.594 122.773C493.375 123.414 493.086 124.102 492.727 124.836C492.367 125.586 491.875 126.297 491.25 126.969C490.625 127.641 489.82 128.188 488.836 128.609C487.867 129.031 486.664 129.242 485.227 129.242C484.461 129.242 483.898 129.203 483.539 129.125C483.195 129.062 482.664 128.945 481.945 128.773V123.125C482.148 123.125 482.32 123.125 482.461 123.125C482.617 123.125 482.789 123.125 482.977 123.125C483.82 123.125 484.492 123.039 484.992 122.867C485.508 122.695 485.898 122.445 486.164 122.117C486.445 121.789 486.664 121.391 486.82 120.922L488.742 116.023ZM487.078 93.6406L492.07 111.383L492.938 119.75H487.641L478.617 93.6406H487.078Z" fill="#5D4F3C"/>
<path d="M1134 0H1348C1356.28 0 1363 6.71573 1363 15V148C1363 156.284 1356.28 163 1348 163H1134V0Z" fill="#5D4F3C"/>
<path d="M1234.26 103.786H1262.74V109.357H1234.26V103.786ZM1239.96 114.929H1257.04V120.5H1239.96V114.929ZM1248.5 42.5C1240.95 42.5 1233.71 45.4349 1228.37 50.6592C1223.03 55.8834 1220.03 62.969 1220.03 70.3571C1219.84 74.4057 1220.63 78.4412 1222.34 82.1315C1224.05 85.8219 1226.64 89.0616 1229.88 91.5843C1232.73 94.175 1234.26 95.6514 1234.26 98.2143H1239.96C1239.96 93.0886 1236.8 90.2193 1233.72 87.4614C1231.06 85.4676 1228.94 82.8658 1227.55 79.8838C1226.15 76.9019 1225.53 73.6308 1225.72 70.3571C1225.72 64.4466 1228.12 58.7781 1232.39 54.5988C1236.67 50.4194 1242.46 48.0714 1248.5 48.0714C1254.54 48.0714 1260.33 50.4194 1264.61 54.5988C1268.88 58.7781 1271.28 64.4466 1271.28 70.3571C1271.47 73.6333 1270.84 76.9059 1269.44 79.888C1268.04 82.8701 1265.92 85.4706 1263.25 87.4614C1260.2 90.2471 1257.04 93.0329 1257.04 98.2143H1262.74C1262.74 95.6514 1264.25 94.175 1267.12 91.5564C1270.36 89.0381 1272.94 85.8031 1274.66 82.1176C1276.37 78.4321 1277.16 74.4014 1276.97 70.3571C1276.97 66.6989 1276.24 63.0765 1274.81 59.6967C1273.37 56.3169 1271.28 53.2459 1268.63 50.6592C1265.99 48.0724 1262.85 46.0205 1259.4 44.6205C1255.94 43.2205 1252.24 42.5 1248.5 42.5V42.5Z" fill="#F0EAD6"/>
</svg>
