<svg width="1363" height="163" viewBox="0 0 1363 163" fill="none" xmlns="http://www.w3.org/2000/svg">
<path d="M0 15C0 6.71573 6.71573 0 15 0H37V163H15C6.71573 163 0 156.284 0 148V15Z" fill="white"/>
<rect width="1097" height="163" transform="translate(37)" fill="#F0F0F0"/>
<path d="M94.512 47.296H99.672L104.544 52.6L99.672 57.904H94.512L99.408 52.6L94.512 47.296ZM124.678 44.152V47.44H120.214V61H116.11V47.44H111.646V44.152H124.678ZM125.922 54.28C125.922 52.904 126.178 51.696 126.69 50.656C127.218 49.616 127.93 48.816 128.826 48.256C129.722 47.696 130.722 47.416 131.826 47.416C132.77 47.416 133.594 47.608 134.298 47.992C135.018 48.376 135.57 48.88 135.954 49.504V47.608H140.058V61H135.954V59.104C135.554 59.728 134.994 60.232 134.274 60.616C133.57 61 132.746 61.192 131.802 61.192C130.714 61.192 129.722 60.912 128.826 60.352C127.93 59.776 127.218 58.968 126.69 57.928C126.178 56.872 125.922 55.656 125.922 54.28ZM135.954 54.304C135.954 53.28 135.666 52.472 135.09 51.88C134.53 51.288 133.842 50.992 133.026 50.992C132.21 50.992 131.514 51.288 130.938 51.88C130.378 52.456 130.098 53.256 130.098 54.28C130.098 55.304 130.378 56.12 130.938 56.728C131.514 57.32 132.21 57.616 133.026 57.616C133.842 57.616 134.53 57.32 135.09 56.728C135.666 56.136 135.954 55.328 135.954 54.304ZM147.131 49.504C147.515 48.88 148.067 48.376 148.787 47.992C149.507 47.608 150.331 47.416 151.259 47.416C152.363 47.416 153.363 47.696 154.259 48.256C155.155 48.816 155.859 49.616 156.371 50.656C156.899 51.696 157.163 52.904 157.163 54.28C157.163 55.656 156.899 56.872 156.371 57.928C155.859 58.968 155.155 59.776 154.259 60.352C153.363 60.912 152.363 61.192 151.259 61.192C150.315 61.192 149.491 61.008 148.787 60.64C148.083 60.256 147.531 59.752 147.131 59.128V61H143.027V43.24H147.131V49.504ZM152.987 54.28C152.987 53.256 152.699 52.456 152.123 51.88C151.563 51.288 150.867 50.992 150.035 50.992C149.219 50.992 148.523 51.288 147.947 51.88C147.387 52.472 147.107 53.28 147.107 54.304C147.107 55.328 147.387 56.136 147.947 56.728C148.523 57.32 149.219 57.616 150.035 57.616C150.851 57.616 151.547 57.32 152.123 56.728C152.699 56.12 152.987 55.304 152.987 54.28ZM167.5 61L163.42 55.384V61H159.316V43.24H163.42V53.056L167.476 47.608H172.54L166.972 54.328L172.588 61H167.5ZM182.384 47.464C183.92 47.464 185.152 47.976 186.08 49C187.008 50.008 187.472 51.4 187.472 53.176V61H183.392V53.728C183.392 52.832 183.16 52.136 182.696 51.64C182.232 51.144 181.608 50.896 180.824 50.896C180.04 50.896 179.416 51.144 178.952 51.64C178.488 52.136 178.256 52.832 178.256 53.728V61H174.152V43.24H178.256V49.408C178.672 48.816 179.24 48.344 179.96 47.992C180.68 47.64 181.488 47.464 182.384 47.464ZM202.948 54.088C202.948 54.472 202.924 54.872 202.876 55.288H193.588C193.652 56.12 193.916 56.76 194.38 57.208C194.86 57.64 195.444 57.856 196.132 57.856C197.156 57.856 197.868 57.424 198.268 56.56H202.636C202.412 57.44 202.004 58.232 201.412 58.936C200.836 59.64 200.108 60.192 199.228 60.592C198.348 60.992 197.364 61.192 196.276 61.192C194.964 61.192 193.796 60.912 192.772 60.352C191.748 59.792 190.948 58.992 190.372 57.952C189.796 56.912 189.508 55.696 189.508 54.304C189.508 52.912 189.788 51.696 190.348 50.656C190.924 49.616 191.724 48.816 192.748 48.256C193.772 47.696 194.948 47.416 196.276 47.416C197.572 47.416 198.724 47.688 199.732 48.232C200.74 48.776 201.524 49.552 202.084 50.56C202.66 51.568 202.948 52.744 202.948 54.088ZM198.748 53.008C198.748 52.304 198.508 51.744 198.028 51.328C197.548 50.912 196.948 50.704 196.228 50.704C195.54 50.704 194.956 50.904 194.476 51.304C194.012 51.704 193.724 52.272 193.612 53.008H198.748ZM212.577 57.52V61H210.489C209.001 61 207.841 60.64 207.009 59.92C206.177 59.184 205.761 57.992 205.761 56.344V51.016H204.129V47.608H205.761V44.344H209.865V47.608H212.553V51.016H209.865V56.392C209.865 56.792 209.961 57.08 210.153 57.256C210.345 57.432 210.665 57.52 211.113 57.52H212.577ZM223.023 47.464C224.591 47.464 225.839 47.976 226.767 49C227.711 50.008 228.183 51.4 228.183 53.176V61H224.103V53.728C224.103 52.832 223.871 52.136 223.407 51.64C222.943 51.144 222.319 50.896 221.535 50.896C220.751 50.896 220.127 51.144 219.663 51.64C219.199 52.136 218.967 52.832 218.967 53.728V61H214.863V47.608H218.967V49.384C219.383 48.792 219.943 48.328 220.647 47.992C221.351 47.64 222.143 47.464 223.023 47.464ZM230.219 54.28C230.219 52.904 230.475 51.696 230.987 50.656C231.515 49.616 232.227 48.816 233.123 48.256C234.019 47.696 235.019 47.416 236.123 47.416C237.067 47.416 237.891 47.608 238.595 47.992C239.315 48.376 239.867 48.88 240.251 49.504V47.608H244.355V61H240.251V59.104C239.851 59.728 239.291 60.232 238.571 60.616C237.867 61 237.043 61.192 236.099 61.192C235.011 61.192 234.019 60.912 233.123 60.352C232.227 59.776 231.515 58.968 230.987 57.928C230.475 56.872 230.219 55.656 230.219 54.28ZM240.251 54.304C240.251 53.28 239.963 52.472 239.387 51.88C238.827 51.288 238.139 50.992 237.323 50.992C236.507 50.992 235.811 51.288 235.235 51.88C234.675 52.456 234.395 53.256 234.395 54.28C234.395 55.304 234.675 56.12 235.235 56.728C235.811 57.32 236.507 57.616 237.323 57.616C238.139 57.616 238.827 57.32 239.387 56.728C239.963 56.136 240.251 55.328 240.251 54.304Z" fill="#888888"/>
<path d="M104.04 85.304V105.464C104.04 107.48 104.536 109.032 105.528 110.12C106.52 111.208 107.976 111.752 109.896 111.752C111.816 111.752 113.288 111.208 114.312 110.12C115.336 109.032 115.848 107.48 115.848 105.464V85.304H124.056V105.416C124.056 108.424 123.416 110.968 122.136 113.048C120.856 115.128 119.128 116.696 116.952 117.752C114.808 118.808 112.408 119.336 109.752 119.336C107.096 119.336 104.712 118.824 102.6 117.8C100.52 116.744 98.872 115.176 97.656 113.096C96.44 110.984 95.832 108.424 95.832 105.416V85.304H104.04ZM146.14 91.928C149.276 91.928 151.772 92.952 153.628 95C155.516 97.016 156.46 99.8 156.46 103.352V119H148.3V104.456C148.3 102.664 147.836 101.272 146.908 100.28C145.98 99.288 144.732 98.792 143.164 98.792C141.596 98.792 140.348 99.288 139.42 100.28C138.492 101.272 138.028 102.664 138.028 104.456V119H129.82V92.216H138.028V95.768C138.86 94.584 139.98 93.656 141.388 92.984C142.796 92.28 144.38 91.928 146.14 91.928ZM166.292 89.432C164.852 89.432 163.668 89.016 162.74 88.184C161.844 87.32 161.396 86.264 161.396 85.016C161.396 83.736 161.844 82.68 162.74 81.848C163.668 80.984 164.852 80.552 166.292 80.552C167.7 80.552 168.852 80.984 169.748 81.848C170.676 82.68 171.14 83.736 171.14 85.016C171.14 86.264 170.676 87.32 169.748 88.184C168.852 89.016 167.7 89.432 166.292 89.432ZM170.372 92.216V119H162.164V92.216H170.372ZM191.248 112.04V119H187.072C184.096 119 181.776 118.28 180.112 116.84C178.448 115.368 177.616 112.984 177.616 109.688V99.032H174.352V92.216H177.616V85.688H185.824V92.216H191.2V99.032H185.824V109.784C185.824 110.584 186.016 111.16 186.4 111.512C186.784 111.864 187.424 112.04 188.32 112.04H191.248ZM230.232 85.304V91.88H221.304V119H213.096V91.88H204.168V85.304H230.232ZM259.599 105.176C259.599 105.944 259.551 106.744 259.455 107.576H240.879C241.007 109.24 241.535 110.52 242.463 111.416C243.423 112.28 244.591 112.712 245.967 112.712C248.015 112.712 249.439 111.848 250.239 110.12H258.975C258.527 111.88 257.711 113.464 256.527 114.872C255.375 116.28 253.919 117.384 252.159 118.184C250.399 118.984 248.431 119.384 246.255 119.384C243.631 119.384 241.295 118.824 239.247 117.704C237.199 116.584 235.599 114.984 234.447 112.904C233.295 110.824 232.719 108.392 232.719 105.608C232.719 102.824 233.279 100.392 234.399 98.312C235.551 96.232 237.151 94.632 239.199 93.512C241.247 92.392 243.599 91.832 246.255 91.832C248.847 91.832 251.151 92.376 253.167 93.464C255.183 94.552 256.751 96.104 257.871 98.12C259.023 100.136 259.599 102.488 259.599 105.176ZM251.199 103.016C251.199 101.608 250.719 100.488 249.759 99.656C248.799 98.824 247.599 98.408 246.159 98.408C244.783 98.408 243.615 98.808 242.655 99.608C241.727 100.408 241.151 101.544 240.927 103.016H251.199ZM274.825 119.384C272.489 119.384 270.409 118.984 268.585 118.184C266.761 117.384 265.321 116.296 264.265 114.92C263.209 113.512 262.617 111.944 262.489 110.216H270.601C270.697 111.144 271.129 111.896 271.897 112.472C272.665 113.048 273.609 113.336 274.729 113.336C275.753 113.336 276.537 113.144 277.081 112.76C277.657 112.344 277.945 111.816 277.945 111.176C277.945 110.408 277.545 109.848 276.745 109.496C275.945 109.112 274.649 108.696 272.857 108.248C270.937 107.8 269.337 107.336 268.057 106.856C266.777 106.344 265.673 105.56 264.745 104.504C263.817 103.416 263.353 101.96 263.353 100.136C263.353 98.6 263.769 97.208 264.601 95.96C265.465 94.68 266.713 93.672 268.345 92.936C270.009 92.2 271.977 91.832 274.249 91.832C277.609 91.832 280.249 92.664 282.169 94.328C284.121 95.992 285.241 98.2 285.529 100.952H277.945C277.817 100.024 277.401 99.288 276.697 98.744C276.025 98.2 275.129 97.928 274.009 97.928C273.049 97.928 272.313 98.12 271.801 98.504C271.289 98.856 271.033 99.352 271.033 99.992C271.033 100.76 271.433 101.336 272.233 101.72C273.065 102.104 274.345 102.488 276.073 102.872C278.057 103.384 279.673 103.896 280.921 104.408C282.169 104.888 283.257 105.688 284.185 106.808C285.145 107.896 285.641 109.368 285.673 111.224C285.673 112.792 285.225 114.2 284.329 115.448C283.465 116.664 282.201 117.624 280.537 118.328C278.905 119.032 277.001 119.384 274.825 119.384ZM305.623 112.04V119H301.447C298.471 119 296.151 118.28 294.487 116.84C292.823 115.368 291.991 112.984 291.991 109.688V99.032H288.727V92.216H291.991V85.688H300.199V92.216H305.575V99.032H300.199V109.784C300.199 110.584 300.391 111.16 300.775 111.512C301.159 111.864 301.799 112.04 302.695 112.04H305.623ZM314.323 89.432C312.883 89.432 311.699 89.016 310.771 88.184C309.875 87.32 309.427 86.264 309.427 85.016C309.427 83.736 309.875 82.68 310.771 81.848C311.699 80.984 312.883 80.552 314.323 80.552C315.731 80.552 316.883 80.984 317.779 81.848C318.707 82.68 319.171 83.736 319.171 85.016C319.171 86.264 318.707 87.32 317.779 88.184C316.883 89.016 315.731 89.432 314.323 89.432ZM318.403 92.216V119H310.195V92.216H318.403ZM340.671 91.928C343.807 91.928 346.303 92.952 348.159 95C350.047 97.016 350.991 99.8 350.991 103.352V119H342.831V104.456C342.831 102.664 342.367 101.272 341.439 100.28C340.511 99.288 339.263 98.792 337.695 98.792C336.127 98.792 334.879 99.288 333.951 100.28C333.023 101.272 332.559 102.664 332.559 104.456V119H324.351V92.216H332.559V95.768C333.391 94.584 334.511 93.656 335.919 92.984C337.327 92.28 338.911 91.928 340.671 91.928ZM366.871 91.832C368.759 91.832 370.407 92.216 371.815 92.984C373.255 93.752 374.359 94.76 375.127 96.008V92.216H383.335V118.952C383.335 121.416 382.839 123.64 381.847 125.624C380.887 127.64 379.399 129.24 377.383 130.424C375.399 131.608 372.919 132.2 369.943 132.2C365.975 132.2 362.759 131.256 360.295 129.368C357.831 127.512 356.423 124.984 356.071 121.784H364.183C364.439 122.808 365.047 123.608 366.007 124.184C366.967 124.792 368.151 125.096 369.559 125.096C371.255 125.096 372.599 124.6 373.591 123.608C374.615 122.648 375.127 121.096 375.127 118.952V115.16C374.327 116.408 373.223 117.432 371.815 118.232C370.407 119 368.759 119.384 366.871 119.384C364.663 119.384 362.663 118.824 360.871 117.704C359.079 116.552 357.655 114.936 356.599 112.856C355.575 110.744 355.063 108.312 355.063 105.56C355.063 102.808 355.575 100.392 356.599 98.312C357.655 96.232 359.079 94.632 360.871 93.512C362.663 92.392 364.663 91.832 366.871 91.832ZM375.127 105.608C375.127 103.56 374.551 101.944 373.399 100.76C372.279 99.576 370.903 98.984 369.271 98.984C367.639 98.984 366.247 99.576 365.095 100.76C363.975 101.912 363.415 103.512 363.415 105.56C363.415 107.608 363.975 109.24 365.095 110.456C366.247 111.64 367.639 112.232 369.271 112.232C370.903 112.232 372.279 111.64 373.399 110.456C374.551 109.272 375.127 107.656 375.127 105.608Z" fill="#2F4F4F"/>
<path d="M1134 0H1348C1356.28 0 1363 6.71573 1363 15V148C1363 156.284 1356.28 163 1348 163H1134V0Z" fill="#2F4F4F"/>
<path d="M1210.62 43.625H1286.38V119.375H1210.62V43.625Z" fill="white" fill-opacity="0.01"/>
<path d="M1276.91 72.0312V105.172C1276.91 107.787 1274.79 109.906 1272.17 109.906H1224.83C1222.21 109.906 1220.09 107.787 1220.09 105.172V57.8281C1220.09 55.2134 1222.21 53.0938 1224.83 53.0938H1261.12" stroke="white" stroke-width="7.24" stroke-linecap="round" stroke-linejoin="round"/>
<path d="M1232.72 75.1875L1248.5 87.8125L1276.91 53.0938" stroke="white" stroke-width="7.24" stroke-linecap="round" stroke-linejoin="round"/>
</svg>
