<svg width="1363" height="163" viewBox="0 0 1363 163" fill="none" xmlns="http://www.w3.org/2000/svg">
<path d="M0 15C0 6.71573 6.71573 0 15 0H37V163H15C6.71573 163 0 156.284 0 148V15Z" fill="white"/>
<rect width="1097" height="163" transform="translate(37)" fill="#2F4F4F"/>
<path d="M94.512 47.296H99.672L104.544 52.6L99.672 57.904H94.512L99.408 52.6L94.512 47.296ZM124.678 44.152V47.44H120.214V61H116.11V47.44H111.646V44.152H124.678ZM125.922 54.28C125.922 52.904 126.178 51.696 126.69 50.656C127.218 49.616 127.93 48.816 128.826 48.256C129.722 47.696 130.722 47.416 131.826 47.416C132.77 47.416 133.594 47.608 134.298 47.992C135.018 48.376 135.57 48.88 135.954 49.504V47.608H140.058V61H135.954V59.104C135.554 59.728 134.994 60.232 134.274 60.616C133.57 61 132.746 61.192 131.802 61.192C130.714 61.192 129.722 60.912 128.826 60.352C127.93 59.776 127.218 58.968 126.69 57.928C126.178 56.872 125.922 55.656 125.922 54.28ZM135.954 54.304C135.954 53.28 135.666 52.472 135.09 51.88C134.53 51.288 133.842 50.992 133.026 50.992C132.21 50.992 131.514 51.288 130.938 51.88C130.378 52.456 130.098 53.256 130.098 54.28C130.098 55.304 130.378 56.12 130.938 56.728C131.514 57.32 132.21 57.616 133.026 57.616C133.842 57.616 134.53 57.32 135.09 56.728C135.666 56.136 135.954 55.328 135.954 54.304ZM147.131 49.504C147.515 48.88 148.067 48.376 148.787 47.992C149.507 47.608 150.331 47.416 151.259 47.416C152.363 47.416 153.363 47.696 154.259 48.256C155.155 48.816 155.859 49.616 156.371 50.656C156.899 51.696 157.163 52.904 157.163 54.28C157.163 55.656 156.899 56.872 156.371 57.928C155.859 58.968 155.155 59.776 154.259 60.352C153.363 60.912 152.363 61.192 151.259 61.192C150.315 61.192 149.491 61.008 148.787 60.64C148.083 60.256 147.531 59.752 147.131 59.128V61H143.027V43.24H147.131V49.504ZM152.987 54.28C152.987 53.256 152.699 52.456 152.123 51.88C151.563 51.288 150.867 50.992 150.035 50.992C149.219 50.992 148.523 51.288 147.947 51.88C147.387 52.472 147.107 53.28 147.107 54.304C147.107 55.328 147.387 56.136 147.947 56.728C148.523 57.32 149.219 57.616 150.035 57.616C150.851 57.616 151.547 57.32 152.123 56.728C152.699 56.12 152.987 55.304 152.987 54.28ZM167.5 61L163.42 55.384V61H159.316V43.24H163.42V53.056L167.476 47.608H172.54L166.972 54.328L172.588 61H167.5ZM182.384 47.464C183.92 47.464 185.152 47.976 186.08 49C187.008 50.008 187.472 51.4 187.472 53.176V61H183.392V53.728C183.392 52.832 183.16 52.136 182.696 51.64C182.232 51.144 181.608 50.896 180.824 50.896C180.04 50.896 179.416 51.144 178.952 51.64C178.488 52.136 178.256 52.832 178.256 53.728V61H174.152V43.24H178.256V49.408C178.672 48.816 179.24 48.344 179.96 47.992C180.68 47.64 181.488 47.464 182.384 47.464ZM202.948 54.088C202.948 54.472 202.924 54.872 202.876 55.288H193.588C193.652 56.12 193.916 56.76 194.38 57.208C194.86 57.64 195.444 57.856 196.132 57.856C197.156 57.856 197.868 57.424 198.268 56.56H202.636C202.412 57.44 202.004 58.232 201.412 58.936C200.836 59.64 200.108 60.192 199.228 60.592C198.348 60.992 197.364 61.192 196.276 61.192C194.964 61.192 193.796 60.912 192.772 60.352C191.748 59.792 190.948 58.992 190.372 57.952C189.796 56.912 189.508 55.696 189.508 54.304C189.508 52.912 189.788 51.696 190.348 50.656C190.924 49.616 191.724 48.816 192.748 48.256C193.772 47.696 194.948 47.416 196.276 47.416C197.572 47.416 198.724 47.688 199.732 48.232C200.74 48.776 201.524 49.552 202.084 50.56C202.66 51.568 202.948 52.744 202.948 54.088ZM198.748 53.008C198.748 52.304 198.508 51.744 198.028 51.328C197.548 50.912 196.948 50.704 196.228 50.704C195.54 50.704 194.956 50.904 194.476 51.304C194.012 51.704 193.724 52.272 193.612 53.008H198.748ZM212.577 57.52V61H210.489C209.001 61 207.841 60.64 207.009 59.92C206.177 59.184 205.761 57.992 205.761 56.344V51.016H204.129V47.608H205.761V44.344H209.865V47.608H212.553V51.016H209.865V56.392C209.865 56.792 209.961 57.08 210.153 57.256C210.345 57.432 210.665 57.52 211.113 57.52H212.577ZM223.023 47.464C224.591 47.464 225.839 47.976 226.767 49C227.711 50.008 228.183 51.4 228.183 53.176V61H224.103V53.728C224.103 52.832 223.871 52.136 223.407 51.64C222.943 51.144 222.319 50.896 221.535 50.896C220.751 50.896 220.127 51.144 219.663 51.64C219.199 52.136 218.967 52.832 218.967 53.728V61H214.863V47.608H218.967V49.384C219.383 48.792 219.943 48.328 220.647 47.992C221.351 47.64 222.143 47.464 223.023 47.464ZM230.219 54.28C230.219 52.904 230.475 51.696 230.987 50.656C231.515 49.616 232.227 48.816 233.123 48.256C234.019 47.696 235.019 47.416 236.123 47.416C237.067 47.416 237.891 47.608 238.595 47.992C239.315 48.376 239.867 48.88 240.251 49.504V47.608H244.355V61H240.251V59.104C239.851 59.728 239.291 60.232 238.571 60.616C237.867 61 237.043 61.192 236.099 61.192C235.011 61.192 234.019 60.912 233.123 60.352C232.227 59.776 231.515 58.968 230.987 57.928C230.475 56.872 230.219 55.656 230.219 54.28ZM240.251 54.304C240.251 53.28 239.963 52.472 239.387 51.88C238.827 51.288 238.139 50.992 237.323 50.992C236.507 50.992 235.811 51.288 235.235 51.88C234.675 52.456 234.395 53.256 234.395 54.28C234.395 55.304 234.675 56.12 235.235 56.728C235.811 57.32 236.507 57.616 237.323 57.616C238.139 57.616 238.827 57.32 239.387 56.728C239.963 56.136 240.251 55.328 240.251 54.304Z" fill="#888888"/>
<path d="M121.656 96.152C121.656 98.104 121.208 99.896 120.312 101.528C119.416 103.128 118.04 104.424 116.184 105.416C114.328 106.408 112.024 106.904 109.272 106.904H104.184V119H95.976V85.304H109.272C111.96 85.304 114.232 85.768 116.088 86.696C117.944 87.624 119.336 88.904 120.264 90.536C121.192 92.168 121.656 94.04 121.656 96.152ZM108.648 100.376C110.216 100.376 111.384 100.008 112.152 99.272C112.92 98.536 113.304 97.496 113.304 96.152C113.304 94.808 112.92 93.768 112.152 93.032C111.384 92.296 110.216 91.928 108.648 91.928H104.184V100.376H108.648ZM134.137 96.68C135.097 95.208 136.297 94.056 137.737 93.224C139.177 92.36 140.777 91.928 142.537 91.928V100.616H140.281C138.233 100.616 136.697 101.064 135.673 101.96C134.649 102.824 134.137 104.36 134.137 106.568V119H125.929V92.216H134.137V96.68ZM158.652 119.384C156.028 119.384 153.66 118.824 151.548 117.704C149.468 116.584 147.82 114.984 146.604 112.904C145.42 110.824 144.828 108.392 144.828 105.608C144.828 102.856 145.436 100.44 146.652 98.36C147.868 96.248 149.532 94.632 151.644 93.512C153.756 92.392 156.124 91.832 158.748 91.832C161.372 91.832 163.74 92.392 165.852 93.512C167.964 94.632 169.628 96.248 170.844 98.36C172.06 100.44 172.668 102.856 172.668 105.608C172.668 108.36 172.044 110.792 170.796 112.904C169.58 114.984 167.9 116.584 165.756 117.704C163.644 118.824 161.276 119.384 158.652 119.384ZM158.652 112.28C160.22 112.28 161.548 111.704 162.636 110.552C163.756 109.4 164.316 107.752 164.316 105.608C164.316 103.464 163.772 101.816 162.684 100.664C161.628 99.512 160.316 98.936 158.748 98.936C157.148 98.936 155.82 99.512 154.764 100.664C153.708 101.784 153.18 103.432 153.18 105.608C153.18 107.752 153.692 109.4 154.716 110.552C155.772 111.704 157.084 112.28 158.652 112.28ZM191.951 112.04V119H187.775C184.799 119 182.479 118.28 180.815 116.84C179.151 115.368 178.319 112.984 178.319 109.688V99.032H175.055V92.216H178.319V85.688H186.527V92.216H191.903V99.032H186.527V109.784C186.527 110.584 186.719 111.16 187.103 111.512C187.487 111.864 188.127 112.04 189.023 112.04H191.951ZM208.715 119.384C206.091 119.384 203.723 118.824 201.611 117.704C199.531 116.584 197.883 114.984 196.667 112.904C195.483 110.824 194.891 108.392 194.891 105.608C194.891 102.856 195.499 100.44 196.715 98.36C197.931 96.248 199.595 94.632 201.707 93.512C203.819 92.392 206.187 91.832 208.811 91.832C211.435 91.832 213.803 92.392 215.915 93.512C218.027 94.632 219.691 96.248 220.907 98.36C222.123 100.44 222.731 102.856 222.731 105.608C222.731 108.36 222.107 110.792 220.859 112.904C219.643 114.984 217.963 116.584 215.819 117.704C213.707 118.824 211.339 119.384 208.715 119.384ZM208.715 112.28C210.283 112.28 211.611 111.704 212.699 110.552C213.819 109.4 214.379 107.752 214.379 105.608C214.379 103.464 213.835 101.816 212.747 100.664C211.691 99.512 210.379 98.936 208.811 98.936C207.211 98.936 205.883 99.512 204.827 100.664C203.771 101.784 203.243 103.432 203.243 105.608C203.243 107.752 203.755 109.4 204.779 110.552C205.835 111.704 207.147 112.28 208.715 112.28ZM242.013 112.04V119H237.837C234.861 119 232.541 118.28 230.877 116.84C229.213 115.368 228.381 112.984 228.381 109.688V99.032H225.117V92.216H228.381V85.688H236.589V92.216H241.965V99.032H236.589V109.784C236.589 110.584 236.781 111.16 237.165 111.512C237.549 111.864 238.189 112.04 239.085 112.04H242.013ZM273.945 92.216L257.145 131.72H248.313L254.457 118.088L243.561 92.216H252.729L258.921 108.968L265.065 92.216H273.945ZM285.122 96.008C285.922 94.76 287.026 93.752 288.434 92.984C289.842 92.216 291.49 91.832 293.378 91.832C295.586 91.832 297.586 92.392 299.378 93.512C301.17 94.632 302.578 96.232 303.602 98.312C304.658 100.392 305.186 102.808 305.186 105.56C305.186 108.312 304.658 110.744 303.602 112.856C302.578 114.936 301.17 116.552 299.378 117.704C297.586 118.824 295.586 119.384 293.378 119.384C291.522 119.384 289.874 119 288.434 118.232C287.026 117.464 285.922 116.472 285.122 115.256V131.768H276.914V92.216H285.122V96.008ZM296.834 105.56C296.834 103.512 296.258 101.912 295.106 100.76C293.986 99.576 292.594 98.984 290.93 98.984C289.298 98.984 287.906 99.576 286.754 100.76C285.634 101.944 285.074 103.56 285.074 105.608C285.074 107.656 285.634 109.272 286.754 110.456C287.906 111.64 289.298 112.232 290.93 112.232C292.562 112.232 293.954 111.64 295.106 110.456C296.258 109.24 296.834 107.608 296.834 105.56ZM313.62 89.432C312.18 89.432 310.996 89.016 310.068 88.184C309.172 87.32 308.724 86.264 308.724 85.016C308.724 83.736 309.172 82.68 310.068 81.848C310.996 80.984 312.18 80.552 313.62 80.552C315.028 80.552 316.18 80.984 317.076 81.848C318.004 82.68 318.468 83.736 318.468 85.016C318.468 86.264 318.004 87.32 317.076 88.184C316.18 89.016 315.028 89.432 313.62 89.432ZM317.7 92.216V119H309.492V92.216H317.7ZM339.968 91.928C343.104 91.928 345.6 92.952 347.456 95C349.344 97.016 350.288 99.8 350.288 103.352V119H342.128V104.456C342.128 102.664 341.664 101.272 340.736 100.28C339.808 99.288 338.56 98.792 336.992 98.792C335.424 98.792 334.176 99.288 333.248 100.28C332.32 101.272 331.856 102.664 331.856 104.456V119H323.648V92.216H331.856V95.768C332.688 94.584 333.808 93.656 335.216 92.984C336.624 92.28 338.208 91.928 339.968 91.928ZM366.168 91.832C368.056 91.832 369.704 92.216 371.112 92.984C372.552 93.752 373.656 94.76 374.424 96.008V92.216H382.632V118.952C382.632 121.416 382.136 123.64 381.144 125.624C380.184 127.64 378.696 129.24 376.68 130.424C374.696 131.608 372.216 132.2 369.24 132.2C365.272 132.2 362.056 131.256 359.592 129.368C357.128 127.512 355.72 124.984 355.368 121.784H363.48C363.736 122.808 364.344 123.608 365.304 124.184C366.264 124.792 367.448 125.096 368.856 125.096C370.552 125.096 371.896 124.6 372.888 123.608C373.912 122.648 374.424 121.096 374.424 118.952V115.16C373.624 116.408 372.52 117.432 371.112 118.232C369.704 119 368.056 119.384 366.168 119.384C363.96 119.384 361.96 118.824 360.168 117.704C358.376 116.552 356.952 114.936 355.896 112.856C354.872 110.744 354.36 108.312 354.36 105.56C354.36 102.808 354.872 100.392 355.896 98.312C356.952 96.232 358.376 94.632 360.168 93.512C361.96 92.392 363.96 91.832 366.168 91.832ZM374.424 105.608C374.424 103.56 373.848 101.944 372.696 100.76C371.576 99.576 370.2 98.984 368.568 98.984C366.936 98.984 365.544 99.576 364.392 100.76C363.272 101.912 362.712 103.512 362.712 105.56C362.712 107.608 363.272 109.24 364.392 110.456C365.544 111.64 366.936 112.232 368.568 112.232C370.2 112.232 371.576 111.64 372.696 110.456C373.848 109.272 374.424 107.656 374.424 105.608Z" fill="white"/>
<path d="M1134 0H1348C1356.28 0 1363 6.71573 1363 15V148C1363 156.284 1356.28 163 1348 163H1134V0Z" fill="#2F4F4F"/>
<path fill-rule="evenodd" clip-rule="evenodd" d="M1202.75 46.502C1202.75 45.3974 1203.65 44.502 1204.75 44.502H1292.25C1293.35 44.502 1294.25 45.3974 1294.25 46.502V116.498C1294.25 117.603 1293.35 118.498 1292.25 118.498H1204.75C1203.65 118.498 1202.75 117.603 1202.75 116.498V46.502ZM1206.75 48.502V52.9964H1290.25V48.502H1206.75ZM1290.25 56.9964H1235.19V114.498H1290.25V56.9964ZM1231.19 114.498V56.9964H1206.75V114.498H1231.19Z" fill="white"/>
<path fill-rule="evenodd" clip-rule="evenodd" d="M1209.72 62.3022C1209.72 61.1977 1210.62 60.3022 1211.72 60.3022H1225.72C1226.83 60.3022 1227.72 61.1977 1227.72 62.3022V81.6974C1227.72 82.802 1226.83 83.6974 1225.72 83.6974H1211.72C1210.62 83.6974 1209.72 82.802 1209.72 81.6974V62.3022ZM1213.72 64.3022V79.6974H1223.72V64.3022H1213.72ZM1239.33 63.1982C1239.33 62.0937 1240.22 61.1982 1241.33 61.1982H1284.25C1285.36 61.1982 1286.25 62.0937 1286.25 63.1982V109.407C1286.25 110.511 1285.36 111.407 1284.25 111.407H1241.33C1240.22 111.407 1239.33 110.511 1239.33 109.407V63.1982ZM1243.33 65.1982V107.407H1282.25V65.1982H1243.33ZM1209.56 93.4382C1209.56 92.3336 1210.46 91.4382 1211.56 91.4382H1220.48C1221.59 91.4382 1222.48 92.3336 1222.48 93.4382C1222.48 94.5427 1221.59 95.4382 1220.48 95.4382H1211.56C1210.46 95.4382 1209.56 94.5427 1209.56 93.4382ZM1209.56 100.438C1209.56 99.3336 1210.46 98.4381 1211.56 98.4381H1226.1C1227.21 98.4381 1228.1 99.3336 1228.1 100.438C1228.1 101.543 1227.21 102.438 1226.1 102.438H1211.56C1210.46 102.438 1209.56 101.543 1209.56 100.438ZM1209.56 107.438C1209.56 106.334 1210.46 105.438 1211.56 105.438H1220.48C1221.59 105.438 1222.48 106.334 1222.48 107.438C1222.48 108.543 1221.59 109.438 1220.48 109.438H1211.56C1210.46 109.438 1209.56 108.543 1209.56 107.438Z" fill="white"/>
</svg>
