<svg width="1363" height="163" viewBox="0 0 1363 163" fill="none" xmlns="http://www.w3.org/2000/svg">
<path d="M0 15C0 6.71573 6.71573 0 15 0H37V163H15C6.71573 163 0 156.284 0 148V15Z" fill="white"/>
<rect width="1097" height="163" transform="translate(37)" fill="#2F4F4F"/>
<path d="M94.512 47.296H99.672L104.544 52.6L99.672 57.904H94.512L99.408 52.6L94.512 47.296ZM124.678 44.152V47.44H120.214V61H116.11V47.44H111.646V44.152H124.678ZM125.922 54.28C125.922 52.904 126.178 51.696 126.69 50.656C127.218 49.616 127.93 48.816 128.826 48.256C129.722 47.696 130.722 47.416 131.826 47.416C132.77 47.416 133.594 47.608 134.298 47.992C135.018 48.376 135.57 48.88 135.954 49.504V47.608H140.058V61H135.954V59.104C135.554 59.728 134.994 60.232 134.274 60.616C133.57 61 132.746 61.192 131.802 61.192C130.714 61.192 129.722 60.912 128.826 60.352C127.93 59.776 127.218 58.968 126.69 57.928C126.178 56.872 125.922 55.656 125.922 54.28ZM135.954 54.304C135.954 53.28 135.666 52.472 135.09 51.88C134.53 51.288 133.842 50.992 133.026 50.992C132.21 50.992 131.514 51.288 130.938 51.88C130.378 52.456 130.098 53.256 130.098 54.28C130.098 55.304 130.378 56.12 130.938 56.728C131.514 57.32 132.21 57.616 133.026 57.616C133.842 57.616 134.53 57.32 135.09 56.728C135.666 56.136 135.954 55.328 135.954 54.304ZM147.131 49.504C147.515 48.88 148.067 48.376 148.787 47.992C149.507 47.608 150.331 47.416 151.259 47.416C152.363 47.416 153.363 47.696 154.259 48.256C155.155 48.816 155.859 49.616 156.371 50.656C156.899 51.696 157.163 52.904 157.163 54.28C157.163 55.656 156.899 56.872 156.371 57.928C155.859 58.968 155.155 59.776 154.259 60.352C153.363 60.912 152.363 61.192 151.259 61.192C150.315 61.192 149.491 61.008 148.787 60.64C148.083 60.256 147.531 59.752 147.131 59.128V61H143.027V43.24H147.131V49.504ZM152.987 54.28C152.987 53.256 152.699 52.456 152.123 51.88C151.563 51.288 150.867 50.992 150.035 50.992C149.219 50.992 148.523 51.288 147.947 51.88C147.387 52.472 147.107 53.28 147.107 54.304C147.107 55.328 147.387 56.136 147.947 56.728C148.523 57.32 149.219 57.616 150.035 57.616C150.851 57.616 151.547 57.32 152.123 56.728C152.699 56.12 152.987 55.304 152.987 54.28ZM167.5 61L163.42 55.384V61H159.316V43.24H163.42V53.056L167.476 47.608H172.54L166.972 54.328L172.588 61H167.5ZM182.384 47.464C183.92 47.464 185.152 47.976 186.08 49C187.008 50.008 187.472 51.4 187.472 53.176V61H183.392V53.728C183.392 52.832 183.16 52.136 182.696 51.64C182.232 51.144 181.608 50.896 180.824 50.896C180.04 50.896 179.416 51.144 178.952 51.64C178.488 52.136 178.256 52.832 178.256 53.728V61H174.152V43.24H178.256V49.408C178.672 48.816 179.24 48.344 179.96 47.992C180.68 47.64 181.488 47.464 182.384 47.464ZM202.948 54.088C202.948 54.472 202.924 54.872 202.876 55.288H193.588C193.652 56.12 193.916 56.76 194.38 57.208C194.86 57.64 195.444 57.856 196.132 57.856C197.156 57.856 197.868 57.424 198.268 56.56H202.636C202.412 57.44 202.004 58.232 201.412 58.936C200.836 59.64 200.108 60.192 199.228 60.592C198.348 60.992 197.364 61.192 196.276 61.192C194.964 61.192 193.796 60.912 192.772 60.352C191.748 59.792 190.948 58.992 190.372 57.952C189.796 56.912 189.508 55.696 189.508 54.304C189.508 52.912 189.788 51.696 190.348 50.656C190.924 49.616 191.724 48.816 192.748 48.256C193.772 47.696 194.948 47.416 196.276 47.416C197.572 47.416 198.724 47.688 199.732 48.232C200.74 48.776 201.524 49.552 202.084 50.56C202.66 51.568 202.948 52.744 202.948 54.088ZM198.748 53.008C198.748 52.304 198.508 51.744 198.028 51.328C197.548 50.912 196.948 50.704 196.228 50.704C195.54 50.704 194.956 50.904 194.476 51.304C194.012 51.704 193.724 52.272 193.612 53.008H198.748ZM212.577 57.52V61H210.489C209.001 61 207.841 60.64 207.009 59.92C206.177 59.184 205.761 57.992 205.761 56.344V51.016H204.129V47.608H205.761V44.344H209.865V47.608H212.553V51.016H209.865V56.392C209.865 56.792 209.961 57.08 210.153 57.256C210.345 57.432 210.665 57.52 211.113 57.52H212.577ZM223.023 47.464C224.591 47.464 225.839 47.976 226.767 49C227.711 50.008 228.183 51.4 228.183 53.176V61H224.103V53.728C224.103 52.832 223.871 52.136 223.407 51.64C222.943 51.144 222.319 50.896 221.535 50.896C220.751 50.896 220.127 51.144 219.663 51.64C219.199 52.136 218.967 52.832 218.967 53.728V61H214.863V47.608H218.967V49.384C219.383 48.792 219.943 48.328 220.647 47.992C221.351 47.64 222.143 47.464 223.023 47.464ZM230.219 54.28C230.219 52.904 230.475 51.696 230.987 50.656C231.515 49.616 232.227 48.816 233.123 48.256C234.019 47.696 235.019 47.416 236.123 47.416C237.067 47.416 237.891 47.608 238.595 47.992C239.315 48.376 239.867 48.88 240.251 49.504V47.608H244.355V61H240.251V59.104C239.851 59.728 239.291 60.232 238.571 60.616C237.867 61 237.043 61.192 236.099 61.192C235.011 61.192 234.019 60.912 233.123 60.352C232.227 59.776 231.515 58.968 230.987 57.928C230.475 56.872 230.219 55.656 230.219 54.28ZM240.251 54.304C240.251 53.28 239.963 52.472 239.387 51.88C238.827 51.288 238.139 50.992 237.323 50.992C236.507 50.992 235.811 51.288 235.235 51.88C234.675 52.456 234.395 53.256 234.395 54.28C234.395 55.304 234.675 56.12 235.235 56.728C235.811 57.32 236.507 57.616 237.323 57.616C238.139 57.616 238.827 57.32 239.387 56.728C239.963 56.136 240.251 55.328 240.251 54.304Z" fill="#888888"/>
<path d="M116.952 113.048H104.376L102.36 119H93.768L105.96 85.304H115.464L127.656 119H118.968L116.952 113.048ZM114.84 106.712L110.664 94.376L106.536 106.712H114.84ZM177.735 85.304L168.951 119H159.015L153.639 96.824L148.071 119H138.135L129.591 85.304H138.375L143.223 109.832L149.223 85.304H158.247L164.007 109.832L168.903 85.304H177.735ZM194.043 119.336C191.579 119.336 189.371 118.936 187.419 118.136C185.467 117.336 183.899 116.152 182.715 114.584C181.563 113.016 180.955 111.128 180.891 108.92H189.627C189.755 110.168 190.187 111.128 190.923 111.8C191.659 112.44 192.619 112.76 193.803 112.76C195.019 112.76 195.979 112.488 196.683 111.944C197.387 111.368 197.739 110.584 197.739 109.592C197.739 108.76 197.451 108.072 196.875 107.528C196.331 106.984 195.643 106.536 194.811 106.184C194.011 105.832 192.859 105.432 191.355 104.984C189.179 104.312 187.403 103.64 186.027 102.968C184.651 102.296 183.467 101.304 182.475 99.992C181.483 98.68 180.987 96.968 180.987 94.856C180.987 91.72 182.123 89.272 184.395 87.512C186.667 85.72 189.627 84.824 193.275 84.824C196.987 84.824 199.979 85.72 202.251 87.512C204.523 89.272 205.739 91.736 205.899 94.904H197.019C196.955 93.816 196.555 92.968 195.819 92.36C195.083 91.72 194.139 91.4 192.987 91.4C191.995 91.4 191.195 91.672 190.587 92.216C189.979 92.728 189.675 93.48 189.675 94.472C189.675 95.56 190.187 96.408 191.211 97.016C192.235 97.624 193.835 98.28 196.011 98.984C198.187 99.72 199.947 100.424 201.291 101.096C202.667 101.768 203.851 102.744 204.843 104.024C205.835 105.304 206.331 106.952 206.331 108.968C206.331 110.888 205.835 112.632 204.843 114.2C203.883 115.768 202.475 117.016 200.619 117.944C198.763 118.872 196.571 119.336 194.043 119.336ZM234.178 85.304C237.73 85.304 240.834 86.008 243.49 87.416C246.146 88.824 248.194 90.808 249.634 93.368C251.106 95.896 251.842 98.824 251.842 102.152C251.842 105.448 251.106 108.376 249.634 110.936C248.194 113.496 246.13 115.48 243.442 116.888C240.786 118.296 237.698 119 234.178 119H221.554V85.304H234.178ZM233.65 111.896C236.754 111.896 239.17 111.048 240.898 109.352C242.626 107.656 243.49 105.256 243.49 102.152C243.49 99.048 242.626 96.632 240.898 94.904C239.17 93.176 236.754 92.312 233.65 92.312H229.762V111.896H233.65ZM281.677 105.176C281.677 105.944 281.629 106.744 281.533 107.576H262.957C263.085 109.24 263.613 110.52 264.541 111.416C265.501 112.28 266.669 112.712 268.045 112.712C270.093 112.712 271.517 111.848 272.317 110.12H281.053C280.605 111.88 279.789 113.464 278.605 114.872C277.453 116.28 275.997 117.384 274.237 118.184C272.477 118.984 270.509 119.384 268.333 119.384C265.709 119.384 263.373 118.824 261.325 117.704C259.277 116.584 257.677 114.984 256.525 112.904C255.373 110.824 254.797 108.392 254.797 105.608C254.797 102.824 255.357 100.392 256.477 98.312C257.629 96.232 259.229 94.632 261.277 93.512C263.325 92.392 265.677 91.832 268.333 91.832C270.925 91.832 273.229 92.376 275.245 93.464C277.261 94.552 278.829 96.104 279.949 98.12C281.101 100.136 281.677 102.488 281.677 105.176ZM273.277 103.016C273.277 101.608 272.797 100.488 271.837 99.656C270.877 98.824 269.677 98.408 268.237 98.408C266.861 98.408 265.693 98.808 264.733 99.608C263.805 100.408 263.229 101.544 263.005 103.016H273.277ZM294.215 96.008C295.015 94.76 296.119 93.752 297.527 92.984C298.935 92.216 300.583 91.832 302.471 91.832C304.679 91.832 306.679 92.392 308.471 93.512C310.263 94.632 311.671 96.232 312.695 98.312C313.751 100.392 314.279 102.808 314.279 105.56C314.279 108.312 313.751 110.744 312.695 112.856C311.671 114.936 310.263 116.552 308.471 117.704C306.679 118.824 304.679 119.384 302.471 119.384C300.615 119.384 298.967 119 297.527 118.232C296.119 117.464 295.015 116.472 294.215 115.256V131.768H286.007V92.216H294.215V96.008ZM305.927 105.56C305.927 103.512 305.351 101.912 304.199 100.76C303.079 99.576 301.687 98.984 300.023 98.984C298.391 98.984 296.999 99.576 295.847 100.76C294.727 101.944 294.167 103.56 294.167 105.608C294.167 107.656 294.727 109.272 295.847 110.456C296.999 111.64 298.391 112.232 300.023 112.232C301.655 112.232 303.047 111.64 304.199 110.456C305.351 109.24 305.927 107.608 305.927 105.56ZM326.793 83.48V119H318.585V83.48H326.793ZM344.934 119.384C342.31 119.384 339.942 118.824 337.83 117.704C335.75 116.584 334.102 114.984 332.886 112.904C331.702 110.824 331.11 108.392 331.11 105.608C331.11 102.856 331.718 100.44 332.934 98.36C334.15 96.248 335.814 94.632 337.926 93.512C340.038 92.392 342.406 91.832 345.03 91.832C347.654 91.832 350.022 92.392 352.134 93.512C354.246 94.632 355.91 96.248 357.126 98.36C358.342 100.44 358.95 102.856 358.95 105.608C358.95 108.36 358.326 110.792 357.078 112.904C355.862 114.984 354.182 116.584 352.038 117.704C349.926 118.824 347.558 119.384 344.934 119.384ZM344.934 112.28C346.502 112.28 347.83 111.704 348.918 110.552C350.038 109.4 350.598 107.752 350.598 105.608C350.598 103.464 350.054 101.816 348.966 100.664C347.91 99.512 346.598 98.936 345.03 98.936C343.43 98.936 342.102 99.512 341.046 100.664C339.99 101.784 339.462 103.432 339.462 105.608C339.462 107.752 339.974 109.4 340.998 110.552C342.054 111.704 343.366 112.28 344.934 112.28ZM390.664 92.216L373.864 131.72H365.032L371.176 118.088L360.28 92.216H369.448L375.64 108.968L381.784 92.216H390.664ZM427.808 91.928C431.136 91.928 433.776 92.936 435.728 94.952C437.712 96.968 438.704 99.768 438.704 103.352V119H430.544V104.456C430.544 102.728 430.08 101.4 429.152 100.472C428.256 99.512 427.008 99.032 425.408 99.032C423.808 99.032 422.544 99.512 421.616 100.472C420.72 101.4 420.272 102.728 420.272 104.456V119H412.112V104.456C412.112 102.728 411.648 101.4 410.72 100.472C409.824 99.512 408.576 99.032 406.976 99.032C405.376 99.032 404.112 99.512 403.184 100.472C402.288 101.4 401.84 102.728 401.84 104.456V119H393.632V92.216H401.84V95.576C402.672 94.456 403.76 93.576 405.104 92.936C406.448 92.264 407.968 91.928 409.664 91.928C411.68 91.928 413.472 92.36 415.04 93.224C416.64 94.088 417.888 95.32 418.784 96.92C419.712 95.448 420.976 94.248 422.576 93.32C424.176 92.392 425.92 91.928 427.808 91.928ZM469.693 105.176C469.693 105.944 469.645 106.744 469.549 107.576H450.973C451.101 109.24 451.629 110.52 452.557 111.416C453.517 112.28 454.685 112.712 456.061 112.712C458.109 112.712 459.533 111.848 460.333 110.12H469.069C468.621 111.88 467.805 113.464 466.621 114.872C465.469 116.28 464.013 117.384 462.253 118.184C460.493 118.984 458.525 119.384 456.349 119.384C453.725 119.384 451.389 118.824 449.341 117.704C447.293 116.584 445.693 114.984 444.541 112.904C443.389 110.824 442.813 108.392 442.813 105.608C442.813 102.824 443.373 100.392 444.493 98.312C445.645 96.232 447.245 94.632 449.293 93.512C451.341 92.392 453.693 91.832 456.349 91.832C458.941 91.832 461.245 92.376 463.261 93.464C465.277 94.552 466.845 96.104 467.965 98.12C469.117 100.136 469.693 102.488 469.693 105.176ZM461.293 103.016C461.293 101.608 460.813 100.488 459.853 99.656C458.893 98.824 457.693 98.408 456.253 98.408C454.877 98.408 453.709 98.808 452.749 99.608C451.821 100.408 451.245 101.544 451.021 103.016H461.293ZM490.343 91.928C493.479 91.928 495.975 92.952 497.831 95C499.719 97.016 500.663 99.8 500.663 103.352V119H492.503V104.456C492.503 102.664 492.039 101.272 491.111 100.28C490.183 99.288 488.935 98.792 487.367 98.792C485.799 98.792 484.551 99.288 483.623 100.28C482.695 101.272 482.231 102.664 482.231 104.456V119H474.023V92.216H482.231V95.768C483.063 94.584 484.183 93.656 485.591 92.984C486.999 92.28 488.583 91.928 490.343 91.928ZM521.295 112.04V119H517.119C514.143 119 511.823 118.28 510.159 116.84C508.495 115.368 507.663 112.984 507.663 109.688V99.032H504.399V92.216H507.663V85.688H515.871V92.216H521.247V99.032H515.871V109.784C515.871 110.584 516.063 111.16 516.447 111.512C516.831 111.864 517.471 112.04 518.367 112.04H521.295Z" fill="white"/>
<path d="M1134 0H1348C1356.28 0 1363 6.71573 1363 15V148C1363 156.284 1356.28 163 1348 163H1134V0Z" fill="#2F4F4F"/>
<path d="M1212.5 117.5L1212.5 45.5L1284.5 45.5L1284.5 117.5L1212.5 117.5Z" fill="white" fill-opacity="0.01"/>
<path d="M1221.5 81.5125L1221.5 108.5L1275.5 108.5L1275.5 81.5" stroke="white" stroke-width="7.24" stroke-linecap="round" stroke-linejoin="round"/>
<path d="M1262 68L1248.5 54.5L1235 68" stroke="white" stroke-width="7.24" stroke-linecap="round" stroke-linejoin="round"/>
<path d="M1248.49 93.5L1248.49 54.5" stroke="white" stroke-width="7.24" stroke-linecap="round" stroke-linejoin="round"/>
</svg>
