<svg width="1363" height="163" viewBox="0 0 1363 163" fill="none" xmlns="http://www.w3.org/2000/svg">
<path d="M0 15C0 6.71573 6.71573 0 15 0H37V163H15C6.71573 163 0 156.284 0 148V15Z" fill="white"/>
<rect width="1097" height="163" transform="translate(37)" fill="#F0F0F0"/>
<path d="M94.512 47.296H99.672L104.544 52.6L99.672 57.904H94.512L99.408 52.6L94.512 47.296ZM124.678 44.152V47.44H120.214V61H116.11V47.44H111.646V44.152H124.678ZM125.922 54.28C125.922 52.904 126.178 51.696 126.69 50.656C127.218 49.616 127.93 48.816 128.826 48.256C129.722 47.696 130.722 47.416 131.826 47.416C132.77 47.416 133.594 47.608 134.298 47.992C135.018 48.376 135.57 48.88 135.954 49.504V47.608H140.058V61H135.954V59.104C135.554 59.728 134.994 60.232 134.274 60.616C133.57 61 132.746 61.192 131.802 61.192C130.714 61.192 129.722 60.912 128.826 60.352C127.93 59.776 127.218 58.968 126.69 57.928C126.178 56.872 125.922 55.656 125.922 54.28ZM135.954 54.304C135.954 53.28 135.666 52.472 135.09 51.88C134.53 51.288 133.842 50.992 133.026 50.992C132.21 50.992 131.514 51.288 130.938 51.88C130.378 52.456 130.098 53.256 130.098 54.28C130.098 55.304 130.378 56.12 130.938 56.728C131.514 57.32 132.21 57.616 133.026 57.616C133.842 57.616 134.53 57.32 135.09 56.728C135.666 56.136 135.954 55.328 135.954 54.304ZM147.131 49.504C147.515 48.88 148.067 48.376 148.787 47.992C149.507 47.608 150.331 47.416 151.259 47.416C152.363 47.416 153.363 47.696 154.259 48.256C155.155 48.816 155.859 49.616 156.371 50.656C156.899 51.696 157.163 52.904 157.163 54.28C157.163 55.656 156.899 56.872 156.371 57.928C155.859 58.968 155.155 59.776 154.259 60.352C153.363 60.912 152.363 61.192 151.259 61.192C150.315 61.192 149.491 61.008 148.787 60.64C148.083 60.256 147.531 59.752 147.131 59.128V61H143.027V43.24H147.131V49.504ZM152.987 54.28C152.987 53.256 152.699 52.456 152.123 51.88C151.563 51.288 150.867 50.992 150.035 50.992C149.219 50.992 148.523 51.288 147.947 51.88C147.387 52.472 147.107 53.28 147.107 54.304C147.107 55.328 147.387 56.136 147.947 56.728C148.523 57.32 149.219 57.616 150.035 57.616C150.851 57.616 151.547 57.32 152.123 56.728C152.699 56.12 152.987 55.304 152.987 54.28ZM167.5 61L163.42 55.384V61H159.316V43.24H163.42V53.056L167.476 47.608H172.54L166.972 54.328L172.588 61H167.5ZM186.776 54.088C186.776 54.472 186.752 54.872 186.704 55.288H177.416C177.48 56.12 177.744 56.76 178.208 57.208C178.688 57.64 179.272 57.856 179.96 57.856C180.984 57.856 181.696 57.424 182.096 56.56H186.464C186.24 57.44 185.832 58.232 185.24 58.936C184.664 59.64 183.936 60.192 183.056 60.592C182.176 60.992 181.192 61.192 180.104 61.192C178.792 61.192 177.624 60.912 176.6 60.352C175.576 59.792 174.776 58.992 174.2 57.952C173.624 56.912 173.336 55.696 173.336 54.304C173.336 52.912 173.616 51.696 174.176 50.656C174.752 49.616 175.552 48.816 176.576 48.256C177.6 47.696 178.776 47.416 180.104 47.416C181.4 47.416 182.552 47.688 183.56 48.232C184.568 48.776 185.352 49.552 185.912 50.56C186.488 51.568 186.776 52.744 186.776 54.088ZM182.576 53.008C182.576 52.304 182.336 51.744 181.856 51.328C181.376 50.912 180.776 50.704 180.056 50.704C179.368 50.704 178.784 50.904 178.304 51.304C177.84 51.704 177.552 52.272 177.44 53.008H182.576ZM197.173 47.464C198.709 47.464 199.941 47.976 200.869 49C201.797 50.008 202.261 51.4 202.261 53.176V61H198.181V53.728C198.181 52.832 197.949 52.136 197.485 51.64C197.021 51.144 196.397 50.896 195.613 50.896C194.829 50.896 194.205 51.144 193.741 51.64C193.277 52.136 193.045 52.832 193.045 53.728V61H188.941V43.24H193.045V49.408C193.461 48.816 194.029 48.344 194.749 47.992C195.469 47.64 196.277 47.464 197.173 47.464ZM212.577 57.52V61H210.489C209.001 61 207.841 60.64 207.009 59.92C206.177 59.184 205.761 57.992 205.761 56.344V51.016H204.129V47.608H205.761V44.344H209.865V47.608H212.553V51.016H209.865V56.392C209.865 56.792 209.961 57.08 210.153 57.256C210.345 57.432 210.665 57.52 211.113 57.52H212.577ZM223.023 47.464C224.591 47.464 225.839 47.976 226.767 49C227.711 50.008 228.183 51.4 228.183 53.176V61H224.103V53.728C224.103 52.832 223.871 52.136 223.407 51.64C222.943 51.144 222.319 50.896 221.535 50.896C220.751 50.896 220.127 51.144 219.663 51.64C219.199 52.136 218.967 52.832 218.967 53.728V61H214.863V47.608H218.967V49.384C219.383 48.792 219.943 48.328 220.647 47.992C221.351 47.64 222.143 47.464 223.023 47.464ZM230.219 54.28C230.219 52.904 230.475 51.696 230.987 50.656C231.515 49.616 232.227 48.816 233.123 48.256C234.019 47.696 235.019 47.416 236.123 47.416C237.067 47.416 237.891 47.608 238.595 47.992C239.315 48.376 239.867 48.88 240.251 49.504V47.608H244.355V61H240.251V59.104C239.851 59.728 239.291 60.232 238.571 60.616C237.867 61 237.043 61.192 236.099 61.192C235.011 61.192 234.019 60.912 233.123 60.352C232.227 59.776 231.515 58.968 230.987 57.928C230.475 56.872 230.219 55.656 230.219 54.28ZM240.251 54.304C240.251 53.28 239.963 52.472 239.387 51.88C238.827 51.288 238.139 50.992 237.323 50.992C236.507 50.992 235.811 51.288 235.235 51.88C234.675 52.456 234.395 53.256 234.395 54.28C234.395 55.304 234.675 56.12 235.235 56.728C235.811 57.32 236.507 57.616 237.323 57.616C238.139 57.616 238.827 57.32 239.387 56.728C239.963 56.136 240.251 55.328 240.251 54.304Z" fill="#888888"/>
<path d="M121.656 96.152C121.656 98.104 121.208 99.896 120.312 101.528C119.416 103.128 118.04 104.424 116.184 105.416C114.328 106.408 112.024 106.904 109.272 106.904H104.184V119H95.976V85.304H109.272C111.96 85.304 114.232 85.768 116.088 86.696C117.944 87.624 119.336 88.904 120.264 90.536C121.192 92.168 121.656 94.04 121.656 96.152ZM108.648 100.376C110.216 100.376 111.384 100.008 112.152 99.272C112.92 98.536 113.304 97.496 113.304 96.152C113.304 94.808 112.92 93.768 112.152 93.032C111.384 92.296 110.216 91.928 108.648 91.928H104.184V100.376H108.648ZM134.137 96.68C135.097 95.208 136.297 94.056 137.737 93.224C139.177 92.36 140.777 91.928 142.537 91.928V100.616H140.281C138.233 100.616 136.697 101.064 135.673 101.96C134.649 102.824 134.137 104.36 134.137 106.568V119H125.929V92.216H134.137V96.68ZM158.652 119.384C156.028 119.384 153.66 118.824 151.548 117.704C149.468 116.584 147.82 114.984 146.604 112.904C145.42 110.824 144.828 108.392 144.828 105.608C144.828 102.856 145.436 100.44 146.652 98.36C147.868 96.248 149.532 94.632 151.644 93.512C153.756 92.392 156.124 91.832 158.748 91.832C161.372 91.832 163.74 92.392 165.852 93.512C167.964 94.632 169.628 96.248 170.844 98.36C172.06 100.44 172.668 102.856 172.668 105.608C172.668 108.36 172.044 110.792 170.796 112.904C169.58 114.984 167.9 116.584 165.756 117.704C163.644 118.824 161.276 119.384 158.652 119.384ZM158.652 112.28C160.22 112.28 161.548 111.704 162.636 110.552C163.756 109.4 164.316 107.752 164.316 105.608C164.316 103.464 163.772 101.816 162.684 100.664C161.628 99.512 160.316 98.936 158.748 98.936C157.148 98.936 155.82 99.512 154.764 100.664C153.708 101.784 153.18 103.432 153.18 105.608C153.18 107.752 153.692 109.4 154.716 110.552C155.772 111.704 157.084 112.28 158.652 112.28ZM181.103 89.432C179.663 89.432 178.479 89.016 177.551 88.184C176.655 87.32 176.207 86.264 176.207 85.016C176.207 83.736 176.655 82.68 177.551 81.848C178.479 80.984 179.663 80.552 181.103 80.552C182.511 80.552 183.663 80.984 184.559 81.848C185.487 82.68 185.951 83.736 185.951 85.016C185.951 86.264 185.487 87.32 184.559 88.184C183.663 89.016 182.511 89.432 181.103 89.432ZM185.231 122.456C185.231 125.752 184.399 128.12 182.735 129.56C181.071 131.032 178.751 131.768 175.775 131.768H172.559V124.808H174.527C175.423 124.808 176.063 124.632 176.447 124.28C176.831 123.928 177.023 123.352 177.023 122.552V92.216H185.231V122.456ZM216.38 105.176C216.38 105.944 216.332 106.744 216.236 107.576H197.66C197.788 109.24 198.316 110.52 199.244 111.416C200.204 112.28 201.372 112.712 202.748 112.712C204.796 112.712 206.22 111.848 207.02 110.12H215.756C215.308 111.88 214.492 113.464 213.308 114.872C212.156 116.28 210.7 117.384 208.94 118.184C207.18 118.984 205.212 119.384 203.036 119.384C200.412 119.384 198.076 118.824 196.028 117.704C193.98 116.584 192.38 114.984 191.228 112.904C190.076 110.824 189.5 108.392 189.5 105.608C189.5 102.824 190.06 100.392 191.18 98.312C192.332 96.232 193.932 94.632 195.98 93.512C198.028 92.392 200.38 91.832 203.036 91.832C205.628 91.832 207.932 92.376 209.948 93.464C211.964 94.552 213.532 96.104 214.652 98.12C215.804 100.136 216.38 102.488 216.38 105.176ZM207.98 103.016C207.98 101.608 207.5 100.488 206.54 99.656C205.58 98.824 204.38 98.408 202.94 98.408C201.564 98.408 200.396 98.808 199.436 99.608C198.508 100.408 197.932 101.544 197.708 103.016H207.98ZM219.078 105.608C219.078 102.824 219.638 100.392 220.758 98.312C221.91 96.232 223.494 94.632 225.51 93.512C227.558 92.392 229.894 91.832 232.518 91.832C235.878 91.832 238.678 92.712 240.918 94.472C243.19 96.232 244.678 98.712 245.382 101.912H236.646C235.91 99.864 234.486 98.84 232.374 98.84C230.87 98.84 229.67 99.432 228.774 100.616C227.878 101.768 227.43 103.432 227.43 105.608C227.43 107.784 227.878 109.464 228.774 110.648C229.67 111.8 230.87 112.376 232.374 112.376C234.486 112.376 235.91 111.352 236.646 109.304H245.382C244.678 112.44 243.19 114.904 240.918 116.696C238.646 118.488 235.846 119.384 232.518 119.384C229.894 119.384 227.558 118.824 225.51 117.704C223.494 116.584 221.91 114.984 220.758 112.904C219.638 110.824 219.078 108.392 219.078 105.608ZM264.701 112.04V119H260.525C257.549 119 255.229 118.28 253.565 116.84C251.901 115.368 251.069 112.984 251.069 109.688V99.032H247.805V92.216H251.069V85.688H259.277V92.216H264.653V99.032H259.277V109.784C259.277 110.584 259.469 111.16 259.853 111.512C260.237 111.864 260.877 112.04 261.773 112.04H264.701ZM305.125 96.152C305.125 98.104 304.677 99.896 303.781 101.528C302.885 103.128 301.509 104.424 299.653 105.416C297.797 106.408 295.493 106.904 292.741 106.904H287.653V119H279.445V85.304H292.741C295.429 85.304 297.701 85.768 299.557 86.696C301.413 87.624 302.805 88.904 303.733 90.536C304.661 92.168 305.125 94.04 305.125 96.152ZM292.117 100.376C293.685 100.376 294.853 100.008 295.621 99.272C296.389 98.536 296.773 97.496 296.773 96.152C296.773 94.808 296.389 93.768 295.621 93.032C294.853 92.296 293.685 91.928 292.117 91.928H287.653V100.376H292.117ZM325.862 91.928C328.934 91.928 331.398 92.952 333.254 95C335.11 97.016 336.038 99.8 336.038 103.352V119H327.878V104.456C327.878 102.664 327.414 101.272 326.486 100.28C325.558 99.288 324.31 98.792 322.742 98.792C321.174 98.792 319.926 99.288 318.998 100.28C318.07 101.272 317.606 102.664 317.606 104.456V119H309.398V83.48H317.606V95.816C318.438 94.632 319.574 93.688 321.014 92.984C322.454 92.28 324.07 91.928 325.862 91.928ZM345.87 89.432C344.43 89.432 343.246 89.016 342.318 88.184C341.422 87.32 340.974 86.264 340.974 85.016C340.974 83.736 341.422 82.68 342.318 81.848C343.246 80.984 344.43 80.552 345.87 80.552C347.278 80.552 348.43 80.984 349.326 81.848C350.254 82.68 350.718 83.736 350.718 85.016C350.718 86.264 350.254 87.32 349.326 88.184C348.43 89.016 347.278 89.432 345.87 89.432ZM349.95 92.216V119H341.742V92.216H349.95ZM364.106 83.48V119H355.898V83.48H364.106ZM382.246 119.384C379.622 119.384 377.254 118.824 375.142 117.704C373.062 116.584 371.414 114.984 370.198 112.904C369.014 110.824 368.422 108.392 368.422 105.608C368.422 102.856 369.03 100.44 370.246 98.36C371.462 96.248 373.126 94.632 375.238 93.512C377.35 92.392 379.718 91.832 382.342 91.832C384.966 91.832 387.334 92.392 389.446 93.512C391.558 94.632 393.222 96.248 394.438 98.36C395.654 100.44 396.262 102.856 396.262 105.608C396.262 108.36 395.638 110.792 394.39 112.904C393.174 114.984 391.494 116.584 389.35 117.704C387.238 118.824 384.87 119.384 382.246 119.384ZM382.246 112.28C383.814 112.28 385.142 111.704 386.23 110.552C387.35 109.4 387.91 107.752 387.91 105.608C387.91 103.464 387.366 101.816 386.278 100.664C385.222 99.512 383.91 98.936 382.342 98.936C380.742 98.936 379.414 99.512 378.358 100.664C377.302 101.784 376.774 103.432 376.774 105.608C376.774 107.752 377.286 109.4 378.31 110.552C379.366 111.704 380.678 112.28 382.246 112.28ZM411.513 119.384C409.177 119.384 407.097 118.984 405.273 118.184C403.449 117.384 402.009 116.296 400.953 114.92C399.897 113.512 399.305 111.944 399.177 110.216H407.289C407.385 111.144 407.817 111.896 408.585 112.472C409.353 113.048 410.297 113.336 411.417 113.336C412.441 113.336 413.225 113.144 413.769 112.76C414.345 112.344 414.633 111.816 414.633 111.176C414.633 110.408 414.233 109.848 413.433 109.496C412.633 109.112 411.337 108.696 409.545 108.248C407.625 107.8 406.025 107.336 404.745 106.856C403.465 106.344 402.361 105.56 401.433 104.504C400.505 103.416 400.041 101.96 400.041 100.136C400.041 98.6 400.457 97.208 401.289 95.96C402.153 94.68 403.401 93.672 405.033 92.936C406.697 92.2 408.665 91.832 410.937 91.832C414.297 91.832 416.937 92.664 418.857 94.328C420.809 95.992 421.929 98.2 422.217 100.952H414.633C414.505 100.024 414.089 99.288 413.385 98.744C412.713 98.2 411.817 97.928 410.697 97.928C409.737 97.928 409.001 98.12 408.489 98.504C407.977 98.856 407.721 99.352 407.721 99.992C407.721 100.76 408.121 101.336 408.921 101.72C409.753 102.104 411.033 102.488 412.761 102.872C414.745 103.384 416.361 103.896 417.609 104.408C418.857 104.888 419.945 105.688 420.873 106.808C421.833 107.896 422.329 109.368 422.361 111.224C422.361 112.792 421.913 114.2 421.017 115.448C420.153 116.664 418.889 117.624 417.225 118.328C415.593 119.032 413.689 119.384 411.513 119.384ZM439.574 119.384C436.95 119.384 434.582 118.824 432.47 117.704C430.39 116.584 428.742 114.984 427.526 112.904C426.342 110.824 425.75 108.392 425.75 105.608C425.75 102.856 426.358 100.44 427.574 98.36C428.79 96.248 430.454 94.632 432.566 93.512C434.678 92.392 437.046 91.832 439.67 91.832C442.294 91.832 444.662 92.392 446.774 93.512C448.886 94.632 450.55 96.248 451.766 98.36C452.982 100.44 453.59 102.856 453.59 105.608C453.59 108.36 452.966 110.792 451.718 112.904C450.502 114.984 448.822 116.584 446.678 117.704C444.566 118.824 442.198 119.384 439.574 119.384ZM439.574 112.28C441.142 112.28 442.47 111.704 443.558 110.552C444.678 109.4 445.238 107.752 445.238 105.608C445.238 103.464 444.694 101.816 443.606 100.664C442.55 99.512 441.238 98.936 439.67 98.936C438.07 98.936 436.742 99.512 435.686 100.664C434.63 101.784 434.102 103.432 434.102 105.608C434.102 107.752 434.614 109.4 435.638 110.552C436.694 111.704 438.006 112.28 439.574 112.28ZM466.153 96.008C466.953 94.76 468.057 93.752 469.465 92.984C470.873 92.216 472.521 91.832 474.409 91.832C476.617 91.832 478.617 92.392 480.409 93.512C482.201 94.632 483.609 96.232 484.633 98.312C485.689 100.392 486.217 102.808 486.217 105.56C486.217 108.312 485.689 110.744 484.633 112.856C483.609 114.936 482.201 116.552 480.409 117.704C478.617 118.824 476.617 119.384 474.409 119.384C472.553 119.384 470.905 119 469.465 118.232C468.057 117.464 466.953 116.472 466.153 115.256V131.768H457.945V92.216H466.153V96.008ZM477.865 105.56C477.865 103.512 477.289 101.912 476.137 100.76C475.017 99.576 473.625 98.984 471.961 98.984C470.329 98.984 468.937 99.576 467.785 100.76C466.665 101.944 466.105 103.56 466.105 105.608C466.105 107.656 466.665 109.272 467.785 110.456C468.937 111.64 470.329 112.232 471.961 112.232C473.593 112.232 474.985 111.64 476.137 110.456C477.289 109.24 477.865 107.608 477.865 105.56ZM506.987 91.928C510.059 91.928 512.523 92.952 514.379 95C516.235 97.016 517.163 99.8 517.163 103.352V119H509.003V104.456C509.003 102.664 508.539 101.272 507.611 100.28C506.683 99.288 505.435 98.792 503.867 98.792C502.299 98.792 501.051 99.288 500.123 100.28C499.195 101.272 498.731 102.664 498.731 104.456V119H490.523V83.48H498.731V95.816C499.563 94.632 500.699 93.688 502.139 92.984C503.579 92.28 505.195 91.928 506.987 91.928ZM550.227 92.216L533.427 131.72H524.595L530.739 118.088L519.843 92.216H529.011L535.203 108.968L541.347 92.216H550.227Z" fill="#2F4F4F"/>
<path d="M1134 0H1348C1356.28 0 1363 6.71573 1363 15V148C1363 156.284 1356.28 163 1348 163H1134V0Z" fill="#2F4F4F"/>
<path d="M1234.26 103.786H1262.74V109.357H1234.26V103.786ZM1239.96 114.929H1257.04V120.5H1239.96V114.929ZM1248.5 42.5C1240.95 42.5 1233.71 45.4349 1228.37 50.6592C1223.03 55.8834 1220.03 62.969 1220.03 70.3571C1219.84 74.4057 1220.63 78.4412 1222.34 82.1315C1224.05 85.8219 1226.64 89.0616 1229.88 91.5843C1232.73 94.175 1234.26 95.6514 1234.26 98.2143H1239.96C1239.96 93.0886 1236.8 90.2193 1233.72 87.4614C1231.06 85.4676 1228.94 82.8658 1227.55 79.8838C1226.15 76.9019 1225.53 73.6308 1225.72 70.3571C1225.72 64.4466 1228.12 58.7781 1232.39 54.5988C1236.67 50.4194 1242.46 48.0714 1248.5 48.0714C1254.54 48.0714 1260.33 50.4194 1264.61 54.5988C1268.88 58.7781 1271.28 64.4466 1271.28 70.3571C1271.47 73.6333 1270.84 76.9059 1269.44 79.888C1268.04 82.8701 1265.92 85.4706 1263.25 87.4614C1260.2 90.2471 1257.04 93.0329 1257.04 98.2143H1262.74C1262.74 95.6514 1264.25 94.175 1267.12 91.5564C1270.36 89.0381 1272.94 85.8031 1274.66 82.1176C1276.37 78.4321 1277.16 74.4014 1276.97 70.3571C1276.97 66.6989 1276.24 63.0765 1274.81 59.6967C1273.37 56.3169 1271.28 53.2459 1268.63 50.6592C1265.99 48.0724 1262.85 46.0205 1259.4 44.6205C1255.94 43.2205 1252.24 42.5 1248.5 42.5V42.5Z" fill="white"/>
</svg>
