<svg width="1363" height="163" viewBox="0 0 1363 163" fill="none" xmlns="http://www.w3.org/2000/svg">
<path d="M0 15C0 6.71573 6.71573 0 15 0H37V163H15C6.71573 163 0 156.284 0 148V15Z" fill="#F0EAD6"/>
<rect width="1097" height="163" transform="translate(37)" fill="#F0F0F0"/>
<path d="M101.906 53.9219L94.3945 51.2383V48.0859L104.602 52.375V54.6367L101.906 53.9219ZM94.3945 56.1719L101.918 53.4297L104.602 52.7852V55.0352L94.3945 59.3242V56.1719ZM119.895 43.9375V61H116.391V43.9375H119.895ZM125.145 43.9375V46.6914H111.223V43.9375H125.145ZM132 58.1406V52.4922C132 52.0859 131.934 51.7383 131.801 51.4492C131.668 51.1523 131.461 50.9219 131.18 50.7578C130.906 50.5938 130.551 50.5117 130.113 50.5117C129.738 50.5117 129.414 50.5781 129.141 50.7109C128.867 50.8359 128.656 51.0195 128.508 51.2617C128.359 51.4961 128.285 51.7734 128.285 52.0938H124.91C124.91 51.5547 125.035 51.043 125.285 50.5586C125.535 50.0742 125.898 49.6484 126.375 49.2812C126.852 48.9062 127.418 48.6133 128.074 48.4023C128.738 48.1914 129.48 48.0859 130.301 48.0859C131.285 48.0859 132.16 48.25 132.926 48.5781C133.691 48.9062 134.293 49.3984 134.73 50.0547C135.176 50.7109 135.398 51.5312 135.398 52.5156V57.9414C135.398 58.6367 135.441 59.207 135.527 59.6523C135.613 60.0898 135.738 60.4727 135.902 60.8008V61H132.492C132.328 60.6562 132.203 60.2266 132.117 59.7109C132.039 59.1875 132 58.6641 132 58.1406ZM132.445 53.2773L132.469 55.1875H130.582C130.137 55.1875 129.75 55.2383 129.422 55.3398C129.094 55.4414 128.824 55.5859 128.613 55.7734C128.402 55.9531 128.246 56.1641 128.145 56.4062C128.051 56.6484 128.004 56.9141 128.004 57.2031C128.004 57.4922 128.07 57.7539 128.203 57.9883C128.336 58.2148 128.527 58.3945 128.777 58.5273C129.027 58.6523 129.32 58.7148 129.656 58.7148C130.164 58.7148 130.605 58.6133 130.98 58.4102C131.355 58.207 131.645 57.957 131.848 57.6602C132.059 57.3633 132.168 57.082 132.176 56.8164L133.066 58.2461C132.941 58.5664 132.77 58.8984 132.551 59.2422C132.34 59.5859 132.07 59.9102 131.742 60.2148C131.414 60.5117 131.02 60.7578 130.559 60.9531C130.098 61.1406 129.551 61.2344 128.918 61.2344C128.113 61.2344 127.383 61.0742 126.727 60.7539C126.078 60.4258 125.562 59.9766 125.18 59.4062C124.805 58.8281 124.617 58.1719 124.617 57.4375C124.617 56.7734 124.742 56.1836 124.992 55.668C125.242 55.1523 125.609 54.7188 126.094 54.3672C126.586 54.0078 127.199 53.7383 127.934 53.5586C128.668 53.3711 129.52 53.2773 130.488 53.2773H132.445ZM138 43H141.375V58.0938L141.035 61H138V43ZM149.402 54.5312V54.7773C149.402 55.7227 149.301 56.5898 149.098 57.3789C148.902 58.168 148.598 58.8516 148.184 59.4297C147.77 60 147.254 60.4453 146.637 60.7656C146.027 61.0781 145.309 61.2344 144.48 61.2344C143.707 61.2344 143.035 61.0781 142.465 60.7656C141.902 60.4531 141.43 60.0117 141.047 59.4414C140.664 58.8711 140.355 58.2031 140.121 57.4375C139.887 56.6719 139.711 55.8359 139.594 54.9297V54.3906C139.711 53.4844 139.887 52.6484 140.121 51.8828C140.355 51.1172 140.664 50.4492 141.047 49.8789C141.43 49.3086 141.902 48.8672 142.465 48.5547C143.027 48.2422 143.691 48.0859 144.457 48.0859C145.293 48.0859 146.02 48.2461 146.637 48.5664C147.262 48.8789 147.777 49.3242 148.184 49.9023C148.598 50.4727 148.902 51.1523 149.098 51.9414C149.301 52.7227 149.402 53.5859 149.402 54.5312ZM146.027 54.7773V54.5312C146.027 54.0156 145.988 53.5312 145.91 53.0781C145.84 52.6172 145.715 52.2148 145.535 51.8711C145.355 51.5195 145.109 51.2422 144.797 51.0391C144.492 50.8359 144.098 50.7344 143.613 50.7344C143.152 50.7344 142.762 50.8125 142.441 50.9688C142.121 51.125 141.855 51.3438 141.645 51.625C141.441 51.9062 141.289 52.2422 141.188 52.6328C141.086 53.0156 141.023 53.4375 141 53.8984V55.4336C141.023 56.0508 141.125 56.5977 141.305 57.0742C141.492 57.543 141.773 57.9141 142.148 58.1875C142.531 58.4531 143.027 58.5859 143.637 58.5859C144.113 58.5859 144.508 58.4922 144.82 58.3047C145.133 58.1172 145.375 57.8516 145.547 57.5078C145.727 57.1641 145.852 56.7617 145.922 56.3008C145.992 55.832 146.027 55.3242 146.027 54.7773ZM154.875 42.9883V61H151.5V42.9883H154.875ZM162.867 48.3203L157.359 54.6016L154.406 57.5898L153.176 55.1523L155.52 52.1758L158.812 48.3203H162.867ZM159.363 61L155.613 55.1406L157.945 53.1016L163.254 61H159.363ZM167.613 43V61H164.238V43H167.613ZM167.133 54.2148H166.207C166.215 53.332 166.332 52.5195 166.559 51.7773C166.785 51.0273 167.109 50.3789 167.531 49.832C167.953 49.2773 168.457 48.8477 169.043 48.543C169.637 48.2383 170.293 48.0859 171.012 48.0859C171.637 48.0859 172.203 48.1758 172.711 48.3555C173.227 48.5273 173.668 48.8086 174.035 49.1992C174.41 49.582 174.699 50.0859 174.902 50.7109C175.105 51.3359 175.207 52.0938 175.207 52.9844V61H171.809V52.9609C171.809 52.3984 171.727 51.957 171.562 51.6367C171.406 51.3086 171.176 51.0781 170.871 50.9453C170.574 50.8047 170.207 50.7344 169.77 50.7344C169.285 50.7344 168.871 50.8242 168.527 51.0039C168.191 51.1836 167.922 51.4336 167.719 51.7539C167.516 52.0664 167.367 52.4336 167.273 52.8555C167.18 53.2773 167.133 53.7305 167.133 54.2148ZM183.609 61.2344C182.625 61.2344 181.742 61.0781 180.961 60.7656C180.18 60.4453 179.516 60.0039 178.969 59.4414C178.43 58.8789 178.016 58.2266 177.727 57.4844C177.438 56.7344 177.293 55.9375 177.293 55.0938V54.625C177.293 53.6641 177.43 52.7852 177.703 51.9883C177.977 51.1914 178.367 50.5 178.875 49.9141C179.391 49.3281 180.016 48.8789 180.75 48.5664C181.484 48.2461 182.312 48.0859 183.234 48.0859C184.133 48.0859 184.93 48.2344 185.625 48.5312C186.32 48.8281 186.902 49.25 187.371 49.7969C187.848 50.3438 188.207 51 188.449 51.7656C188.691 52.5234 188.812 53.3672 188.812 54.2969V55.7031H178.734V53.4531H185.496V53.1953C185.496 52.7266 185.41 52.3086 185.238 51.9414C185.074 51.5664 184.824 51.2695 184.488 51.0508C184.152 50.832 183.723 50.7227 183.199 50.7227C182.754 50.7227 182.371 50.8203 182.051 51.0156C181.73 51.2109 181.469 51.4844 181.266 51.8359C181.07 52.1875 180.922 52.6016 180.82 53.0781C180.727 53.5469 180.68 54.0625 180.68 54.625V55.0938C180.68 55.6016 180.75 56.0703 180.891 56.5C181.039 56.9297 181.246 57.3008 181.512 57.6133C181.785 57.9258 182.113 58.168 182.496 58.3398C182.887 58.5117 183.328 58.5977 183.82 58.5977C184.43 58.5977 184.996 58.4805 185.52 58.2461C186.051 58.0039 186.508 57.6406 186.891 57.1562L188.531 58.9375C188.266 59.3203 187.902 59.6875 187.441 60.0391C186.988 60.3906 186.441 60.6797 185.801 60.9062C185.16 61.125 184.43 61.2344 183.609 61.2344ZM196.945 48.3203V50.7109H189.562V48.3203H196.945ZM191.391 45.1914H194.766V57.1797C194.766 57.5469 194.812 57.8281 194.906 58.0234C195.008 58.2188 195.156 58.3555 195.352 58.4336C195.547 58.5039 195.793 58.5391 196.09 58.5391C196.301 58.5391 196.488 58.5312 196.652 58.5156C196.824 58.4922 196.969 58.4688 197.086 58.4453L197.098 60.9297C196.809 61.0234 196.496 61.0977 196.16 61.1523C195.824 61.207 195.453 61.2344 195.047 61.2344C194.305 61.2344 193.656 61.1133 193.102 60.8711C192.555 60.6211 192.133 60.2227 191.836 59.6758C191.539 59.1289 191.391 58.4102 191.391 57.5195V45.1914ZM202.172 51.0273V61H198.797V48.3203H201.961L202.172 51.0273ZM201.68 54.2148H200.766C200.766 53.2773 200.887 52.4336 201.129 51.6836C201.371 50.9258 201.711 50.2812 202.148 49.75C202.586 49.2109 203.105 48.8008 203.707 48.5195C204.316 48.2305 204.996 48.0859 205.746 48.0859C206.34 48.0859 206.883 48.1719 207.375 48.3438C207.867 48.5156 208.289 48.7891 208.641 49.1641C209 49.5391 209.273 50.0352 209.461 50.6523C209.656 51.2695 209.754 52.0234 209.754 52.9141V61H206.355V52.9023C206.355 52.3398 206.277 51.9023 206.121 51.5898C205.965 51.2773 205.734 51.0586 205.43 50.9336C205.133 50.8008 204.766 50.7344 204.328 50.7344C203.875 50.7344 203.48 50.8242 203.145 51.0039C202.816 51.1836 202.543 51.4336 202.324 51.7539C202.113 52.0664 201.953 52.4336 201.844 52.8555C201.734 53.2773 201.68 53.7305 201.68 54.2148ZM219.164 58.1406V52.4922C219.164 52.0859 219.098 51.7383 218.965 51.4492C218.832 51.1523 218.625 50.9219 218.344 50.7578C218.07 50.5938 217.715 50.5117 217.277 50.5117C216.902 50.5117 216.578 50.5781 216.305 50.7109C216.031 50.8359 215.82 51.0195 215.672 51.2617C215.523 51.4961 215.449 51.7734 215.449 52.0938H212.074C212.074 51.5547 212.199 51.043 212.449 50.5586C212.699 50.0742 213.062 49.6484 213.539 49.2812C214.016 48.9062 214.582 48.6133 215.238 48.4023C215.902 48.1914 216.645 48.0859 217.465 48.0859C218.449 48.0859 219.324 48.25 220.09 48.5781C220.855 48.9062 221.457 49.3984 221.895 50.0547C222.34 50.7109 222.562 51.5312 222.562 52.5156V57.9414C222.562 58.6367 222.605 59.207 222.691 59.6523C222.777 60.0898 222.902 60.4727 223.066 60.8008V61H219.656C219.492 60.6562 219.367 60.2266 219.281 59.7109C219.203 59.1875 219.164 58.6641 219.164 58.1406ZM219.609 53.2773L219.633 55.1875H217.746C217.301 55.1875 216.914 55.2383 216.586 55.3398C216.258 55.4414 215.988 55.5859 215.777 55.7734C215.566 55.9531 215.41 56.1641 215.309 56.4062C215.215 56.6484 215.168 56.9141 215.168 57.2031C215.168 57.4922 215.234 57.7539 215.367 57.9883C215.5 58.2148 215.691 58.3945 215.941 58.5273C216.191 58.6523 216.484 58.7148 216.82 58.7148C217.328 58.7148 217.77 58.6133 218.145 58.4102C218.52 58.207 218.809 57.957 219.012 57.6602C219.223 57.3633 219.332 57.082 219.34 56.8164L220.23 58.2461C220.105 58.5664 219.934 58.8984 219.715 59.2422C219.504 59.5859 219.234 59.9102 218.906 60.2148C218.578 60.5117 218.184 60.7578 217.723 60.9531C217.262 61.1406 216.715 61.2344 216.082 61.2344C215.277 61.2344 214.547 61.0742 213.891 60.7539C213.242 60.4258 212.727 59.9766 212.344 59.4062C211.969 58.8281 211.781 58.1719 211.781 57.4375C211.781 56.7734 211.906 56.1836 212.156 55.668C212.406 55.1523 212.773 54.7188 213.258 54.3672C213.75 54.0078 214.363 53.7383 215.098 53.5586C215.832 53.3711 216.684 53.2773 217.652 53.2773H219.609Z" fill="#888888"/>
<path d="M109.219 107.422H100.734V101.07H109.219C110.375 101.07 111.312 100.875 112.031 100.484C112.75 100.094 113.273 99.5547 113.602 98.8672C113.945 98.1641 114.117 97.375 114.117 96.5C114.117 95.5625 113.945 94.6953 113.602 93.8984C113.273 93.1016 112.75 92.4609 112.031 91.9766C111.312 91.4766 110.375 91.2266 109.219 91.2266H103.828V119H95.6016V84.875H109.219C111.953 84.875 114.305 85.375 116.273 86.375C118.258 87.375 119.781 88.75 120.844 90.5C121.906 92.2344 122.438 94.2188 122.438 96.4531C122.438 98.6562 121.906 100.578 120.844 102.219C119.781 103.859 118.258 105.141 116.273 106.062C114.305 106.969 111.953 107.422 109.219 107.422ZM134.461 99.9219V119H126.562V93.6406H133.945L134.461 99.9219ZM141.961 93.4531L141.82 100.789C141.508 100.758 141.086 100.719 140.555 100.672C140.023 100.625 139.578 100.602 139.219 100.602C138.297 100.602 137.5 100.711 136.828 100.93C136.172 101.133 135.625 101.445 135.188 101.867C134.766 102.273 134.453 102.789 134.25 103.414C134.062 104.039 133.977 104.766 133.992 105.594L132.562 104.656C132.562 102.953 132.727 101.406 133.055 100.016C133.398 98.6094 133.883 97.3984 134.508 96.3828C135.133 95.3516 135.891 94.5625 136.781 94.0156C137.672 93.4531 138.672 93.1719 139.781 93.1719C140.172 93.1719 140.555 93.1953 140.93 93.2422C141.32 93.2891 141.664 93.3594 141.961 93.4531ZM142.852 106.578V106.086C142.852 104.227 143.117 102.516 143.648 100.953C144.18 99.375 144.961 98.0078 145.992 96.8516C147.023 95.6953 148.297 94.7969 149.812 94.1562C151.328 93.5 153.078 93.1719 155.062 93.1719C157.062 93.1719 158.82 93.5 160.336 94.1562C161.867 94.7969 163.148 95.6953 164.18 96.8516C165.211 98.0078 165.992 99.375 166.523 100.953C167.055 102.516 167.32 104.227 167.32 106.086V106.578C167.32 108.422 167.055 110.133 166.523 111.711C165.992 113.273 165.211 114.641 164.18 115.812C163.148 116.969 161.875 117.867 160.359 118.508C158.844 119.148 157.094 119.469 155.109 119.469C153.125 119.469 151.367 119.148 149.836 118.508C148.305 117.867 147.023 116.969 145.992 115.812C144.961 114.641 144.18 113.273 143.648 111.711C143.117 110.133 142.852 108.422 142.852 106.578ZM150.75 106.086V106.578C150.75 107.531 150.82 108.422 150.961 109.25C151.102 110.078 151.336 110.805 151.664 111.43C151.992 112.039 152.438 112.516 153 112.859C153.562 113.203 154.266 113.375 155.109 113.375C155.938 113.375 156.625 113.203 157.172 112.859C157.734 112.516 158.18 112.039 158.508 111.43C158.836 110.805 159.07 110.078 159.211 109.25C159.352 108.422 159.422 107.531 159.422 106.578V106.086C159.422 105.164 159.352 104.297 159.211 103.484C159.07 102.656 158.836 101.93 158.508 101.305C158.18 100.664 157.734 100.164 157.172 99.8047C156.609 99.4453 155.906 99.2656 155.062 99.2656C154.234 99.2656 153.539 99.4453 152.977 99.8047C152.43 100.164 151.992 100.664 151.664 101.305C151.336 101.93 151.102 102.656 150.961 103.484C150.82 104.297 150.75 105.164 150.75 106.086ZM184.195 93.6406V99.125H168.914V93.6406H184.195ZM172.125 87.3359H180.023V110.727C180.023 111.398 180.102 111.922 180.258 112.297C180.414 112.656 180.68 112.914 181.055 113.07C181.445 113.211 181.961 113.281 182.602 113.281C183.055 113.281 183.43 113.273 183.727 113.258C184.023 113.227 184.305 113.188 184.57 113.141V118.789C183.898 119.008 183.195 119.172 182.461 119.281C181.727 119.406 180.945 119.469 180.117 119.469C178.43 119.469 176.984 119.203 175.781 118.672C174.594 118.141 173.688 117.305 173.062 116.164C172.438 115.023 172.125 113.539 172.125 111.711V87.3359ZM185.648 106.578V106.086C185.648 104.227 185.914 102.516 186.445 100.953C186.977 99.375 187.758 98.0078 188.789 96.8516C189.82 95.6953 191.094 94.7969 192.609 94.1562C194.125 93.5 195.875 93.1719 197.859 93.1719C199.859 93.1719 201.617 93.5 203.133 94.1562C204.664 94.7969 205.945 95.6953 206.977 96.8516C208.008 98.0078 208.789 99.375 209.32 100.953C209.852 102.516 210.117 104.227 210.117 106.086V106.578C210.117 108.422 209.852 110.133 209.32 111.711C208.789 113.273 208.008 114.641 206.977 115.812C205.945 116.969 204.672 117.867 203.156 118.508C201.641 119.148 199.891 119.469 197.906 119.469C195.922 119.469 194.164 119.148 192.633 118.508C191.102 117.867 189.82 116.969 188.789 115.812C187.758 114.641 186.977 113.273 186.445 111.711C185.914 110.133 185.648 108.422 185.648 106.578ZM193.547 106.086V106.578C193.547 107.531 193.617 108.422 193.758 109.25C193.898 110.078 194.133 110.805 194.461 111.43C194.789 112.039 195.234 112.516 195.797 112.859C196.359 113.203 197.062 113.375 197.906 113.375C198.734 113.375 199.422 113.203 199.969 112.859C200.531 112.516 200.977 112.039 201.305 111.43C201.633 110.805 201.867 110.078 202.008 109.25C202.148 108.422 202.219 107.531 202.219 106.578V106.086C202.219 105.164 202.148 104.297 202.008 103.484C201.867 102.656 201.633 101.93 201.305 101.305C200.977 100.664 200.531 100.164 199.969 99.8047C199.406 99.4453 198.703 99.2656 197.859 99.2656C197.031 99.2656 196.336 99.4453 195.773 99.8047C195.227 100.164 194.789 100.664 194.461 101.305C194.133 101.93 193.898 102.656 193.758 103.484C193.617 104.297 193.547 105.164 193.547 106.086ZM226.992 93.6406V99.125H211.711V93.6406H226.992ZM214.922 87.3359H222.82V110.727C222.82 111.398 222.898 111.922 223.055 112.297C223.211 112.656 223.477 112.914 223.852 113.07C224.242 113.211 224.758 113.281 225.398 113.281C225.852 113.281 226.227 113.273 226.523 113.258C226.82 113.227 227.102 113.188 227.367 113.141V118.789C226.695 119.008 225.992 119.172 225.258 119.281C224.523 119.406 223.742 119.469 222.914 119.469C221.227 119.469 219.781 119.203 218.578 118.672C217.391 118.141 216.484 117.305 215.859 116.164C215.234 115.023 214.922 113.539 214.922 111.711V87.3359ZM237.914 116.023L244.477 93.6406H252.961L242.766 122.773C242.547 123.414 242.258 124.102 241.898 124.836C241.539 125.586 241.047 126.297 240.422 126.969C239.797 127.641 238.992 128.188 238.008 128.609C237.039 129.031 235.836 129.242 234.398 129.242C233.633 129.242 233.07 129.203 232.711 129.125C232.367 129.062 231.836 128.945 231.117 128.773V123.125C231.32 123.125 231.492 123.125 231.633 123.125C231.789 123.125 231.961 123.125 232.148 123.125C232.992 123.125 233.664 123.039 234.164 122.867C234.68 122.695 235.07 122.445 235.336 122.117C235.617 121.789 235.836 121.391 235.992 120.922L237.914 116.023ZM236.25 93.6406L241.242 111.383L242.109 119.75H236.812L227.789 93.6406H236.25ZM262.992 98.5156V128.75H255.094V93.6406H262.453L262.992 98.5156ZM278.555 106.016V106.508C278.555 108.352 278.344 110.062 277.922 111.641C277.5 113.219 276.875 114.594 276.047 115.766C275.219 116.938 274.188 117.852 272.953 118.508C271.734 119.148 270.32 119.469 268.711 119.469C267.195 119.469 265.891 119.133 264.797 118.461C263.703 117.789 262.789 116.859 262.055 115.672C261.32 114.484 260.727 113.125 260.273 111.594C259.82 110.062 259.461 108.445 259.195 106.742V106.109C259.461 104.281 259.82 102.586 260.273 101.023C260.727 99.4453 261.32 98.0703 262.055 96.8984C262.789 95.7266 263.695 94.8125 264.773 94.1562C265.867 93.5 267.172 93.1719 268.688 93.1719C270.297 93.1719 271.711 93.4766 272.93 94.0859C274.164 94.6953 275.195 95.5703 276.023 96.7109C276.867 97.8359 277.5 99.1875 277.922 100.766C278.344 102.344 278.555 104.094 278.555 106.016ZM270.656 106.508V106.016C270.656 105.031 270.586 104.133 270.445 103.32C270.305 102.492 270.078 101.773 269.766 101.164C269.469 100.555 269.07 100.086 268.57 99.7578C268.07 99.4297 267.453 99.2656 266.719 99.2656C265.875 99.2656 265.164 99.3984 264.586 99.6641C264.023 99.9141 263.57 100.305 263.227 100.836C262.898 101.352 262.664 102 262.523 102.781C262.398 103.547 262.344 104.445 262.359 105.477V107.398C262.328 108.586 262.445 109.633 262.711 110.539C262.977 111.43 263.438 112.125 264.094 112.625C264.75 113.125 265.641 113.375 266.766 113.375C267.516 113.375 268.141 113.203 268.641 112.859C269.141 112.5 269.539 112.008 269.836 111.383C270.133 110.742 270.344 110.008 270.469 109.18C270.594 108.352 270.656 107.461 270.656 106.508ZM290.414 93.6406V119H282.492V93.6406H290.414ZM282.023 87.1016C282.023 85.9766 282.43 85.0547 283.242 84.3359C284.055 83.6172 285.109 83.2578 286.406 83.2578C287.703 83.2578 288.758 83.6172 289.57 84.3359C290.383 85.0547 290.789 85.9766 290.789 87.1016C290.789 88.2266 290.383 89.1484 289.57 89.8672C288.758 90.5859 287.703 90.9453 286.406 90.9453C285.109 90.9453 284.055 90.5859 283.242 89.8672C282.43 89.1484 282.023 88.2266 282.023 87.1016ZM303.047 99.0547V119H295.148V93.6406H302.555L303.047 99.0547ZM302.109 105.453L300.258 105.5C300.258 103.562 300.492 101.836 300.961 100.32C301.43 98.7891 302.094 97.4922 302.953 96.4297C303.812 95.3672 304.836 94.5625 306.023 94.0156C307.227 93.4531 308.562 93.1719 310.031 93.1719C311.203 93.1719 312.273 93.3438 313.242 93.6875C314.227 94.0312 315.07 94.5859 315.773 95.3516C316.492 96.1172 317.039 97.1328 317.414 98.3984C317.805 99.6484 318 101.195 318 103.039V119H310.055V103.016C310.055 102 309.914 101.227 309.633 100.695C309.352 100.148 308.945 99.7734 308.414 99.5703C307.883 99.3672 307.234 99.2656 306.469 99.2656C305.656 99.2656 304.969 99.4219 304.406 99.7344C303.844 100.047 303.391 100.484 303.047 101.047C302.719 101.594 302.477 102.242 302.32 102.992C302.18 103.742 302.109 104.562 302.109 105.453ZM338.32 93.6406H345.492V118.016C345.492 120.359 344.953 122.344 343.875 123.969C342.797 125.609 341.289 126.852 339.352 127.695C337.43 128.555 335.18 128.984 332.602 128.984C331.461 128.984 330.297 128.836 329.109 128.539C327.922 128.258 326.812 127.836 325.781 127.273C324.75 126.711 323.883 126.016 323.18 125.188L326.484 120.547C327.125 121.266 327.93 121.875 328.898 122.375C329.867 122.891 331.008 123.148 332.32 123.148C333.461 123.148 334.414 122.945 335.18 122.539C335.961 122.133 336.555 121.539 336.961 120.758C337.367 119.992 337.57 119.062 337.57 117.969V99.6406L338.32 93.6406ZM321.469 106.625V106.133C321.469 104.211 321.703 102.461 322.172 100.883C322.656 99.2891 323.344 97.9219 324.234 96.7812C325.141 95.625 326.234 94.7344 327.516 94.1094C328.797 93.4844 330.242 93.1719 331.852 93.1719C333.586 93.1719 335.008 93.5078 336.117 94.1797C337.242 94.8359 338.141 95.7578 338.812 96.9453C339.5 98.1328 340.031 99.5234 340.406 101.117C340.797 102.695 341.125 104.398 341.391 106.227V106.812C341.125 108.531 340.758 110.156 340.289 111.688C339.836 113.203 339.242 114.547 338.508 115.719C337.773 116.891 336.852 117.812 335.742 118.484C334.648 119.141 333.336 119.469 331.805 119.469C330.211 119.469 328.773 119.148 327.492 118.508C326.227 117.867 325.141 116.969 324.234 115.812C323.344 114.656 322.656 113.297 322.172 111.734C321.703 110.172 321.469 108.469 321.469 106.625ZM329.367 106.133V106.625C329.367 107.578 329.453 108.461 329.625 109.273C329.812 110.086 330.094 110.805 330.469 111.43C330.844 112.039 331.305 112.516 331.852 112.859C332.414 113.203 333.07 113.375 333.82 113.375C334.961 113.375 335.883 113.133 336.586 112.648C337.289 112.164 337.797 111.477 338.109 110.586C338.422 109.695 338.555 108.648 338.508 107.445V105.594C338.539 104.562 338.469 103.656 338.297 102.875C338.125 102.078 337.852 101.414 337.477 100.883C337.117 100.352 336.633 99.9531 336.023 99.6875C335.43 99.4062 334.711 99.2656 333.867 99.2656C333.133 99.2656 332.484 99.4375 331.922 99.7812C331.359 100.125 330.891 100.609 330.516 101.234C330.141 101.844 329.852 102.57 329.648 103.414C329.461 104.242 329.367 105.148 329.367 106.133Z" fill="#5D4F3C"/>
<path d="M1134 0H1348C1356.28 0 1363 6.71573 1363 15V148C1363 156.284 1356.28 163 1348 163H1134V0Z" fill="#5D4F3C"/>
<path fill-rule="evenodd" clip-rule="evenodd" d="M1202.75 46.5018C1202.75 45.3973 1203.65 44.5018 1204.75 44.5018H1292.25C1293.35 44.5018 1294.25 45.3973 1294.25 46.5018V116.498C1294.25 117.603 1293.35 118.498 1292.25 118.498H1204.75C1203.65 118.498 1202.75 117.603 1202.75 116.498V46.5018ZM1206.75 48.5018V52.9963H1290.25V48.5018H1206.75ZM1290.25 56.9963H1235.19V114.498H1290.25V56.9963ZM1231.19 114.498V56.9963H1206.75V114.498H1231.19Z" fill="#F0EAD6"/>
<path fill-rule="evenodd" clip-rule="evenodd" d="M1209.72 62.3022C1209.72 61.1976 1210.62 60.3022 1211.72 60.3022H1225.72C1226.83 60.3022 1227.72 61.1976 1227.72 62.3022V81.6974C1227.72 82.802 1226.83 83.6974 1225.72 83.6974H1211.72C1210.62 83.6974 1209.72 82.802 1209.72 81.6974V62.3022ZM1213.72 64.3022V79.6974H1223.72V64.3022H1213.72ZM1239.33 63.1982C1239.33 62.0936 1240.22 61.1982 1241.33 61.1982H1284.25C1285.36 61.1982 1286.25 62.0936 1286.25 63.1982V109.407C1286.25 110.511 1285.36 111.407 1284.25 111.407H1241.33C1240.22 111.407 1239.33 110.511 1239.33 109.407V63.1982ZM1243.33 65.1982V107.407H1282.25V65.1982H1243.33ZM1209.56 93.4381C1209.56 92.3336 1210.46 91.4381 1211.56 91.4381H1220.48C1221.59 91.4381 1222.48 92.3336 1222.48 93.4381C1222.48 94.5427 1221.59 95.4381 1220.48 95.4381H1211.56C1210.46 95.4381 1209.56 94.5427 1209.56 93.4381ZM1209.56 100.438C1209.56 99.3335 1210.46 98.4381 1211.56 98.4381H1226.1C1227.21 98.4381 1228.1 99.3335 1228.1 100.438C1228.1 101.543 1227.21 102.438 1226.1 102.438H1211.56C1210.46 102.438 1209.56 101.543 1209.56 100.438ZM1209.56 107.438C1209.56 106.334 1210.46 105.438 1211.56 105.438H1220.48C1221.59 105.438 1222.48 106.334 1222.48 107.438C1222.48 108.543 1221.59 109.438 1220.48 109.438H1211.56C1210.46 109.438 1209.56 108.543 1209.56 107.438Z" fill="#F0EAD6"/>
</svg>
