<svg width="1363" height="163" viewBox="0 0 1363 163" fill="none" xmlns="http://www.w3.org/2000/svg">
<path d="M0 15C0 6.71573 6.71573 0 15 0H37V163H15C6.71573 163 0 156.284 0 148V15Z" fill="white"/>
<rect width="1097" height="163" transform="translate(37)" fill="#F0F0F0"/>
<path d="M94.512 47.296H99.672L104.544 52.6L99.672 57.904H94.512L99.408 52.6L94.512 47.296ZM124.678 44.152V47.44H120.214V61H116.11V47.44H111.646V44.152H124.678ZM125.922 54.28C125.922 52.904 126.178 51.696 126.69 50.656C127.218 49.616 127.93 48.816 128.826 48.256C129.722 47.696 130.722 47.416 131.826 47.416C132.77 47.416 133.594 47.608 134.298 47.992C135.018 48.376 135.57 48.88 135.954 49.504V47.608H140.058V61H135.954V59.104C135.554 59.728 134.994 60.232 134.274 60.616C133.57 61 132.746 61.192 131.802 61.192C130.714 61.192 129.722 60.912 128.826 60.352C127.93 59.776 127.218 58.968 126.69 57.928C126.178 56.872 125.922 55.656 125.922 54.28ZM135.954 54.304C135.954 53.28 135.666 52.472 135.09 51.88C134.53 51.288 133.842 50.992 133.026 50.992C132.21 50.992 131.514 51.288 130.938 51.88C130.378 52.456 130.098 53.256 130.098 54.28C130.098 55.304 130.378 56.12 130.938 56.728C131.514 57.32 132.21 57.616 133.026 57.616C133.842 57.616 134.53 57.32 135.09 56.728C135.666 56.136 135.954 55.328 135.954 54.304ZM147.131 49.504C147.515 48.88 148.067 48.376 148.787 47.992C149.507 47.608 150.331 47.416 151.259 47.416C152.363 47.416 153.363 47.696 154.259 48.256C155.155 48.816 155.859 49.616 156.371 50.656C156.899 51.696 157.163 52.904 157.163 54.28C157.163 55.656 156.899 56.872 156.371 57.928C155.859 58.968 155.155 59.776 154.259 60.352C153.363 60.912 152.363 61.192 151.259 61.192C150.315 61.192 149.491 61.008 148.787 60.64C148.083 60.256 147.531 59.752 147.131 59.128V61H143.027V43.24H147.131V49.504ZM152.987 54.28C152.987 53.256 152.699 52.456 152.123 51.88C151.563 51.288 150.867 50.992 150.035 50.992C149.219 50.992 148.523 51.288 147.947 51.88C147.387 52.472 147.107 53.28 147.107 54.304C147.107 55.328 147.387 56.136 147.947 56.728C148.523 57.32 149.219 57.616 150.035 57.616C150.851 57.616 151.547 57.32 152.123 56.728C152.699 56.12 152.987 55.304 152.987 54.28ZM167.5 61L163.42 55.384V61H159.316V43.24H163.42V53.056L167.476 47.608H172.54L166.972 54.328L172.588 61H167.5ZM182.384 47.464C183.92 47.464 185.152 47.976 186.08 49C187.008 50.008 187.472 51.4 187.472 53.176V61H183.392V53.728C183.392 52.832 183.16 52.136 182.696 51.64C182.232 51.144 181.608 50.896 180.824 50.896C180.04 50.896 179.416 51.144 178.952 51.64C178.488 52.136 178.256 52.832 178.256 53.728V61H174.152V43.24H178.256V49.408C178.672 48.816 179.24 48.344 179.96 47.992C180.68 47.64 181.488 47.464 182.384 47.464ZM202.948 54.088C202.948 54.472 202.924 54.872 202.876 55.288H193.588C193.652 56.12 193.916 56.76 194.38 57.208C194.86 57.64 195.444 57.856 196.132 57.856C197.156 57.856 197.868 57.424 198.268 56.56H202.636C202.412 57.44 202.004 58.232 201.412 58.936C200.836 59.64 200.108 60.192 199.228 60.592C198.348 60.992 197.364 61.192 196.276 61.192C194.964 61.192 193.796 60.912 192.772 60.352C191.748 59.792 190.948 58.992 190.372 57.952C189.796 56.912 189.508 55.696 189.508 54.304C189.508 52.912 189.788 51.696 190.348 50.656C190.924 49.616 191.724 48.816 192.748 48.256C193.772 47.696 194.948 47.416 196.276 47.416C197.572 47.416 198.724 47.688 199.732 48.232C200.74 48.776 201.524 49.552 202.084 50.56C202.66 51.568 202.948 52.744 202.948 54.088ZM198.748 53.008C198.748 52.304 198.508 51.744 198.028 51.328C197.548 50.912 196.948 50.704 196.228 50.704C195.54 50.704 194.956 50.904 194.476 51.304C194.012 51.704 193.724 52.272 193.612 53.008H198.748ZM212.577 57.52V61H210.489C209.001 61 207.841 60.64 207.009 59.92C206.177 59.184 205.761 57.992 205.761 56.344V51.016H204.129V47.608H205.761V44.344H209.865V47.608H212.553V51.016H209.865V56.392C209.865 56.792 209.961 57.08 210.153 57.256C210.345 57.432 210.665 57.52 211.113 57.52H212.577ZM223.023 47.464C224.591 47.464 225.839 47.976 226.767 49C227.711 50.008 228.183 51.4 228.183 53.176V61H224.103V53.728C224.103 52.832 223.871 52.136 223.407 51.64C222.943 51.144 222.319 50.896 221.535 50.896C220.751 50.896 220.127 51.144 219.663 51.64C219.199 52.136 218.967 52.832 218.967 53.728V61H214.863V47.608H218.967V49.384C219.383 48.792 219.943 48.328 220.647 47.992C221.351 47.64 222.143 47.464 223.023 47.464ZM230.219 54.28C230.219 52.904 230.475 51.696 230.987 50.656C231.515 49.616 232.227 48.816 233.123 48.256C234.019 47.696 235.019 47.416 236.123 47.416C237.067 47.416 237.891 47.608 238.595 47.992C239.315 48.376 239.867 48.88 240.251 49.504V47.608H244.355V61H240.251V59.104C239.851 59.728 239.291 60.232 238.571 60.616C237.867 61 237.043 61.192 236.099 61.192C235.011 61.192 234.019 60.912 233.123 60.352C232.227 59.776 231.515 58.968 230.987 57.928C230.475 56.872 230.219 55.656 230.219 54.28ZM240.251 54.304C240.251 53.28 239.963 52.472 239.387 51.88C238.827 51.288 238.139 50.992 237.323 50.992C236.507 50.992 235.811 51.288 235.235 51.88C234.675 52.456 234.395 53.256 234.395 54.28C234.395 55.304 234.675 56.12 235.235 56.728C235.811 57.32 236.507 57.616 237.323 57.616C238.139 57.616 238.827 57.32 239.387 56.728C239.963 56.136 240.251 55.328 240.251 54.304Z" fill="#888888"/>
<path d="M120.216 85.304V91.88H111.288V119H103.08V91.88H94.152V85.304H120.216ZM149.583 105.176C149.583 105.944 149.535 106.744 149.439 107.576H130.863C130.991 109.24 131.519 110.52 132.447 111.416C133.407 112.28 134.575 112.712 135.951 112.712C137.999 112.712 139.423 111.848 140.223 110.12H148.959C148.511 111.88 147.695 113.464 146.511 114.872C145.359 116.28 143.903 117.384 142.143 118.184C140.383 118.984 138.415 119.384 136.239 119.384C133.615 119.384 131.279 118.824 129.231 117.704C127.183 116.584 125.583 114.984 124.431 112.904C123.279 110.824 122.703 108.392 122.703 105.608C122.703 102.824 123.263 100.392 124.383 98.312C125.535 96.232 127.135 94.632 129.183 93.512C131.231 92.392 133.583 91.832 136.239 91.832C138.831 91.832 141.135 92.376 143.151 93.464C145.167 94.552 146.735 96.104 147.855 98.12C149.007 100.136 149.583 102.488 149.583 105.176ZM141.183 103.016C141.183 101.608 140.703 100.488 139.743 99.656C138.783 98.824 137.583 98.408 136.143 98.408C134.767 98.408 133.599 98.808 132.639 99.608C131.711 100.408 131.135 101.544 130.911 103.016H141.183ZM152.282 105.608C152.282 102.824 152.842 100.392 153.962 98.312C155.114 96.232 156.698 94.632 158.714 93.512C160.762 92.392 163.098 91.832 165.722 91.832C169.082 91.832 171.882 92.712 174.122 94.472C176.394 96.232 177.882 98.712 178.586 101.912H169.85C169.114 99.864 167.69 98.84 165.578 98.84C164.074 98.84 162.874 99.432 161.978 100.616C161.082 101.768 160.634 103.432 160.634 105.608C160.634 107.784 161.082 109.464 161.978 110.648C162.874 111.8 164.074 112.376 165.578 112.376C167.69 112.376 169.114 111.352 169.85 109.304H178.586C177.882 112.44 176.394 114.904 174.122 116.696C171.85 118.488 169.05 119.384 165.722 119.384C163.098 119.384 160.762 118.824 158.714 117.704C156.698 116.584 155.114 114.984 153.962 112.904C152.842 110.824 152.282 108.392 152.282 105.608ZM199.44 91.928C202.512 91.928 204.976 92.952 206.832 95C208.688 97.016 209.616 99.8 209.616 103.352V119H201.456V104.456C201.456 102.664 200.992 101.272 200.064 100.28C199.136 99.288 197.888 98.792 196.32 98.792C194.752 98.792 193.504 99.288 192.576 100.28C191.648 101.272 191.184 102.664 191.184 104.456V119H182.976V83.48H191.184V95.816C192.016 94.632 193.152 93.688 194.592 92.984C196.032 92.28 197.648 91.928 199.44 91.928ZM237.684 119.336C235.22 119.336 233.012 118.936 231.06 118.136C229.108 117.336 227.54 116.152 226.356 114.584C225.204 113.016 224.596 111.128 224.532 108.92H233.268C233.396 110.168 233.828 111.128 234.564 111.8C235.3 112.44 236.26 112.76 237.444 112.76C238.66 112.76 239.62 112.488 240.324 111.944C241.028 111.368 241.38 110.584 241.38 109.592C241.38 108.76 241.092 108.072 240.516 107.528C239.972 106.984 239.284 106.536 238.452 106.184C237.652 105.832 236.5 105.432 234.996 104.984C232.82 104.312 231.044 103.64 229.668 102.968C228.292 102.296 227.108 101.304 226.116 99.992C225.124 98.68 224.628 96.968 224.628 94.856C224.628 91.72 225.764 89.272 228.036 87.512C230.308 85.72 233.268 84.824 236.916 84.824C240.628 84.824 243.62 85.72 245.892 87.512C248.164 89.272 249.38 91.736 249.54 94.904H240.66C240.596 93.816 240.196 92.968 239.46 92.36C238.724 91.72 237.78 91.4 236.628 91.4C235.636 91.4 234.836 91.672 234.228 92.216C233.62 92.728 233.316 93.48 233.316 94.472C233.316 95.56 233.828 96.408 234.852 97.016C235.876 97.624 237.476 98.28 239.652 98.984C241.828 99.72 243.588 100.424 244.932 101.096C246.308 101.768 247.492 102.744 248.484 104.024C249.476 105.304 249.972 106.952 249.972 108.968C249.972 110.888 249.476 112.632 248.484 114.2C247.524 115.768 246.116 117.016 244.26 117.944C242.404 118.872 240.212 119.336 237.684 119.336ZM269.951 112.04V119H265.775C262.799 119 260.479 118.28 258.815 116.84C257.151 115.368 256.319 112.984 256.319 109.688V99.032H253.055V92.216H256.319V85.688H264.527V92.216H269.903V99.032H264.527V109.784C264.527 110.584 264.719 111.16 265.103 111.512C265.487 111.864 266.127 112.04 267.023 112.04H269.951ZM272.891 105.56C272.891 102.808 273.403 100.392 274.427 98.312C275.483 96.232 276.907 94.632 278.699 93.512C280.491 92.392 282.491 91.832 284.699 91.832C286.587 91.832 288.235 92.216 289.643 92.984C291.083 93.752 292.187 94.76 292.955 96.008V92.216H301.163V119H292.955V115.208C292.155 116.456 291.035 117.464 289.595 118.232C288.187 119 286.539 119.384 284.651 119.384C282.475 119.384 280.491 118.824 278.699 117.704C276.907 116.552 275.483 114.936 274.427 112.856C273.403 110.744 272.891 108.312 272.891 105.56ZM292.955 105.608C292.955 103.56 292.379 101.944 291.227 100.76C290.107 99.576 288.731 98.984 287.099 98.984C285.467 98.984 284.075 99.576 282.923 100.76C281.803 101.912 281.243 103.512 281.243 105.56C281.243 107.608 281.803 109.24 282.923 110.456C284.075 111.64 285.467 112.232 287.099 112.232C288.731 112.232 290.107 111.64 291.227 110.456C292.379 109.272 292.955 107.656 292.955 105.608ZM305.469 105.608C305.469 102.824 306.029 100.392 307.149 98.312C308.301 96.232 309.885 94.632 311.901 93.512C313.949 92.392 316.285 91.832 318.909 91.832C322.269 91.832 325.069 92.712 327.309 94.472C329.581 96.232 331.069 98.712 331.773 101.912H323.037C322.301 99.864 320.877 98.84 318.765 98.84C317.261 98.84 316.061 99.432 315.165 100.616C314.269 101.768 313.821 103.432 313.821 105.608C313.821 107.784 314.269 109.464 315.165 110.648C316.061 111.8 317.261 112.376 318.765 112.376C320.877 112.376 322.301 111.352 323.037 109.304H331.773C331.069 112.44 329.581 114.904 327.309 116.696C325.037 118.488 322.237 119.384 318.909 119.384C316.285 119.384 313.949 118.824 311.901 117.704C309.885 116.584 308.301 114.984 307.149 112.904C306.029 110.824 305.469 108.392 305.469 105.608ZM352.532 119L344.372 107.768V119H336.164V83.48H344.372V103.112L352.484 92.216H362.612L351.476 105.656L362.708 119H352.532Z" fill="#2F4F4F"/>
<path d="M1134 0H1348C1356.28 0 1363 6.71573 1363 15V148C1363 156.284 1356.28 163 1348 163H1134V0Z" fill="#2F4F4F"/>
<path fill-rule="evenodd" clip-rule="evenodd" d="M1218.75 53C1218.62 53 1218.49 53.0527 1218.4 53.1464C1218.3 53.2402 1218.25 53.3674 1218.25 53.5V109.5C1218.25 109.633 1218.3 109.76 1218.4 109.854C1218.49 109.947 1218.62 110 1218.75 110H1278.25C1278.38 110 1278.51 109.947 1278.6 109.854C1278.7 109.76 1278.75 109.633 1278.75 109.5V64C1278.75 63.8674 1278.7 63.7402 1278.6 63.6464C1278.51 63.5527 1278.38 63.5 1278.25 63.5H1248.5C1247.61 63.5 1246.77 63.1045 1246.2 62.4206L1238.34 53H1218.75ZM1214.15 48.9038C1215.37 47.6848 1217.03 47 1218.75 47H1239.75C1240.64 47 1241.48 47.3955 1242.05 48.0794L1249.91 57.5H1278.25C1279.97 57.5 1281.63 58.1848 1282.85 59.4038C1284.07 60.6228 1284.75 62.2761 1284.75 64V109.5C1284.75 111.224 1284.07 112.877 1282.85 114.096C1281.63 115.315 1279.97 116 1278.25 116H1218.75C1217.03 116 1215.37 115.315 1214.15 114.096C1212.93 112.877 1212.25 111.224 1212.25 109.5V53.5C1212.25 51.7761 1212.93 50.1228 1214.15 48.9038Z" fill="white"/>
<path fill-rule="evenodd" clip-rule="evenodd" d="M1243.97 75.5251C1245.34 76.892 1245.34 79.108 1243.97 80.4749L1237.7 86.75L1243.97 93.0251C1245.34 94.392 1245.34 96.608 1243.97 97.9749C1242.61 99.3417 1240.39 99.3417 1239.03 97.9749L1230.28 89.2249C1228.91 87.858 1228.91 85.642 1230.28 84.2751L1239.03 75.5251C1240.39 74.1583 1242.61 74.1583 1243.97 75.5251Z" fill="white"/>
<path fill-rule="evenodd" clip-rule="evenodd" d="M1252.28 97.9749C1250.91 96.608 1250.91 94.392 1252.28 93.0251L1258.55 86.75L1252.28 80.4749C1250.91 79.108 1250.91 76.892 1252.28 75.5251C1253.64 74.1583 1255.86 74.1583 1257.22 75.5251L1265.97 84.2751C1267.34 85.642 1267.34 87.858 1265.97 89.2249L1257.22 97.9749C1255.86 99.3417 1253.64 99.3417 1252.28 97.9749Z" fill="white"/>
</svg>
