<svg width="1363" height="163" viewBox="0 0 1363 163" fill="none" xmlns="http://www.w3.org/2000/svg">
<path d="M0 15C0 6.71573 6.71573 0 15 0H37V163H15C6.71573 163 0 156.284 0 148V15Z" fill="white"/>
<rect width="1097" height="163" transform="translate(37)" fill="#2F4F4F"/>
<path d="M94.512 47.296H99.672L104.544 52.6L99.672 57.904H94.512L99.408 52.6L94.512 47.296ZM124.678 44.152V47.44H120.214V61H116.11V47.44H111.646V44.152H124.678ZM125.922 54.28C125.922 52.904 126.178 51.696 126.69 50.656C127.218 49.616 127.93 48.816 128.826 48.256C129.722 47.696 130.722 47.416 131.826 47.416C132.77 47.416 133.594 47.608 134.298 47.992C135.018 48.376 135.57 48.88 135.954 49.504V47.608H140.058V61H135.954V59.104C135.554 59.728 134.994 60.232 134.274 60.616C133.57 61 132.746 61.192 131.802 61.192C130.714 61.192 129.722 60.912 128.826 60.352C127.93 59.776 127.218 58.968 126.69 57.928C126.178 56.872 125.922 55.656 125.922 54.28ZM135.954 54.304C135.954 53.28 135.666 52.472 135.09 51.88C134.53 51.288 133.842 50.992 133.026 50.992C132.21 50.992 131.514 51.288 130.938 51.88C130.378 52.456 130.098 53.256 130.098 54.28C130.098 55.304 130.378 56.12 130.938 56.728C131.514 57.32 132.21 57.616 133.026 57.616C133.842 57.616 134.53 57.32 135.09 56.728C135.666 56.136 135.954 55.328 135.954 54.304ZM147.131 49.504C147.515 48.88 148.067 48.376 148.787 47.992C149.507 47.608 150.331 47.416 151.259 47.416C152.363 47.416 153.363 47.696 154.259 48.256C155.155 48.816 155.859 49.616 156.371 50.656C156.899 51.696 157.163 52.904 157.163 54.28C157.163 55.656 156.899 56.872 156.371 57.928C155.859 58.968 155.155 59.776 154.259 60.352C153.363 60.912 152.363 61.192 151.259 61.192C150.315 61.192 149.491 61.008 148.787 60.64C148.083 60.256 147.531 59.752 147.131 59.128V61H143.027V43.24H147.131V49.504ZM152.987 54.28C152.987 53.256 152.699 52.456 152.123 51.88C151.563 51.288 150.867 50.992 150.035 50.992C149.219 50.992 148.523 51.288 147.947 51.88C147.387 52.472 147.107 53.28 147.107 54.304C147.107 55.328 147.387 56.136 147.947 56.728C148.523 57.32 149.219 57.616 150.035 57.616C150.851 57.616 151.547 57.32 152.123 56.728C152.699 56.12 152.987 55.304 152.987 54.28ZM167.5 61L163.42 55.384V61H159.316V43.24H163.42V53.056L167.476 47.608H172.54L166.972 54.328L172.588 61H167.5ZM182.384 47.464C183.92 47.464 185.152 47.976 186.08 49C187.008 50.008 187.472 51.4 187.472 53.176V61H183.392V53.728C183.392 52.832 183.16 52.136 182.696 51.64C182.232 51.144 181.608 50.896 180.824 50.896C180.04 50.896 179.416 51.144 178.952 51.64C178.488 52.136 178.256 52.832 178.256 53.728V61H174.152V43.24H178.256V49.408C178.672 48.816 179.24 48.344 179.96 47.992C180.68 47.64 181.488 47.464 182.384 47.464ZM202.948 54.088C202.948 54.472 202.924 54.872 202.876 55.288H193.588C193.652 56.12 193.916 56.76 194.38 57.208C194.86 57.64 195.444 57.856 196.132 57.856C197.156 57.856 197.868 57.424 198.268 56.56H202.636C202.412 57.44 202.004 58.232 201.412 58.936C200.836 59.64 200.108 60.192 199.228 60.592C198.348 60.992 197.364 61.192 196.276 61.192C194.964 61.192 193.796 60.912 192.772 60.352C191.748 59.792 190.948 58.992 190.372 57.952C189.796 56.912 189.508 55.696 189.508 54.304C189.508 52.912 189.788 51.696 190.348 50.656C190.924 49.616 191.724 48.816 192.748 48.256C193.772 47.696 194.948 47.416 196.276 47.416C197.572 47.416 198.724 47.688 199.732 48.232C200.74 48.776 201.524 49.552 202.084 50.56C202.66 51.568 202.948 52.744 202.948 54.088ZM198.748 53.008C198.748 52.304 198.508 51.744 198.028 51.328C197.548 50.912 196.948 50.704 196.228 50.704C195.54 50.704 194.956 50.904 194.476 51.304C194.012 51.704 193.724 52.272 193.612 53.008H198.748ZM212.577 57.52V61H210.489C209.001 61 207.841 60.64 207.009 59.92C206.177 59.184 205.761 57.992 205.761 56.344V51.016H204.129V47.608H205.761V44.344H209.865V47.608H212.553V51.016H209.865V56.392C209.865 56.792 209.961 57.08 210.153 57.256C210.345 57.432 210.665 57.52 211.113 57.52H212.577ZM223.023 47.464C224.591 47.464 225.839 47.976 226.767 49C227.711 50.008 228.183 51.4 228.183 53.176V61H224.103V53.728C224.103 52.832 223.871 52.136 223.407 51.64C222.943 51.144 222.319 50.896 221.535 50.896C220.751 50.896 220.127 51.144 219.663 51.64C219.199 52.136 218.967 52.832 218.967 53.728V61H214.863V47.608H218.967V49.384C219.383 48.792 219.943 48.328 220.647 47.992C221.351 47.64 222.143 47.464 223.023 47.464ZM230.219 54.28C230.219 52.904 230.475 51.696 230.987 50.656C231.515 49.616 232.227 48.816 233.123 48.256C234.019 47.696 235.019 47.416 236.123 47.416C237.067 47.416 237.891 47.608 238.595 47.992C239.315 48.376 239.867 48.88 240.251 49.504V47.608H244.355V61H240.251V59.104C239.851 59.728 239.291 60.232 238.571 60.616C237.867 61 237.043 61.192 236.099 61.192C235.011 61.192 234.019 60.912 233.123 60.352C232.227 59.776 231.515 58.968 230.987 57.928C230.475 56.872 230.219 55.656 230.219 54.28ZM240.251 54.304C240.251 53.28 239.963 52.472 239.387 51.88C238.827 51.288 238.139 50.992 237.323 50.992C236.507 50.992 235.811 51.288 235.235 51.88C234.675 52.456 234.395 53.256 234.395 54.28C234.395 55.304 234.675 56.12 235.235 56.728C235.811 57.32 236.507 57.616 237.323 57.616C238.139 57.616 238.827 57.32 239.387 56.728C239.963 56.136 240.251 55.328 240.251 54.304Z" fill="#888888"/>
<path d="M121.656 96.152C121.656 98.104 121.208 99.896 120.312 101.528C119.416 103.128 118.04 104.424 116.184 105.416C114.328 106.408 112.024 106.904 109.272 106.904H104.184V119H95.976V85.304H109.272C111.96 85.304 114.232 85.768 116.088 86.696C117.944 87.624 119.336 88.904 120.264 90.536C121.192 92.168 121.656 94.04 121.656 96.152ZM108.648 100.376C110.216 100.376 111.384 100.008 112.152 99.272C112.92 98.536 113.304 97.496 113.304 96.152C113.304 94.808 112.92 93.768 112.152 93.032C111.384 92.296 110.216 91.928 108.648 91.928H104.184V100.376H108.648ZM134.137 96.68C135.097 95.208 136.297 94.056 137.737 93.224C139.177 92.36 140.777 91.928 142.537 91.928V100.616H140.281C138.233 100.616 136.697 101.064 135.673 101.96C134.649 102.824 134.137 104.36 134.137 106.568V119H125.929V92.216H134.137V96.68ZM158.652 119.384C156.028 119.384 153.66 118.824 151.548 117.704C149.468 116.584 147.82 114.984 146.604 112.904C145.42 110.824 144.828 108.392 144.828 105.608C144.828 102.856 145.436 100.44 146.652 98.36C147.868 96.248 149.532 94.632 151.644 93.512C153.756 92.392 156.124 91.832 158.748 91.832C161.372 91.832 163.74 92.392 165.852 93.512C167.964 94.632 169.628 96.248 170.844 98.36C172.06 100.44 172.668 102.856 172.668 105.608C172.668 108.36 172.044 110.792 170.796 112.904C169.58 114.984 167.9 116.584 165.756 117.704C163.644 118.824 161.276 119.384 158.652 119.384ZM158.652 112.28C160.22 112.28 161.548 111.704 162.636 110.552C163.756 109.4 164.316 107.752 164.316 105.608C164.316 103.464 163.772 101.816 162.684 100.664C161.628 99.512 160.316 98.936 158.748 98.936C157.148 98.936 155.82 99.512 154.764 100.664C153.708 101.784 153.18 103.432 153.18 105.608C153.18 107.752 153.692 109.4 154.716 110.552C155.772 111.704 157.084 112.28 158.652 112.28ZM211.199 91.928C214.527 91.928 217.167 92.936 219.119 94.952C221.103 96.968 222.095 99.768 222.095 103.352V119H213.935V104.456C213.935 102.728 213.471 101.4 212.543 100.472C211.647 99.512 210.399 99.032 208.799 99.032C207.199 99.032 205.935 99.512 205.007 100.472C204.111 101.4 203.663 102.728 203.663 104.456V119H195.503V104.456C195.503 102.728 195.039 101.4 194.111 100.472C193.215 99.512 191.967 99.032 190.367 99.032C188.767 99.032 187.503 99.512 186.575 100.472C185.679 101.4 185.231 102.728 185.231 104.456V119H177.023V92.216H185.231V95.576C186.063 94.456 187.151 93.576 188.495 92.936C189.839 92.264 191.359 91.928 193.055 91.928C195.071 91.928 196.863 92.36 198.431 93.224C200.031 94.088 201.279 95.32 202.175 96.92C203.103 95.448 204.367 94.248 205.967 93.32C207.567 92.392 209.311 91.928 211.199 91.928ZM236.043 96.008C236.843 94.76 237.947 93.752 239.355 92.984C240.763 92.216 242.411 91.832 244.299 91.832C246.507 91.832 248.507 92.392 250.299 93.512C252.091 94.632 253.499 96.232 254.523 98.312C255.579 100.392 256.107 102.808 256.107 105.56C256.107 108.312 255.579 110.744 254.523 112.856C253.499 114.936 252.091 116.552 250.299 117.704C248.507 118.824 246.507 119.384 244.299 119.384C242.443 119.384 240.795 119 239.355 118.232C237.947 117.464 236.843 116.472 236.043 115.256V131.768H227.835V92.216H236.043V96.008ZM247.755 105.56C247.755 103.512 247.179 101.912 246.027 100.76C244.907 99.576 243.515 98.984 241.851 98.984C240.219 98.984 238.827 99.576 237.675 100.76C236.555 101.944 235.995 103.56 235.995 105.608C235.995 107.656 236.555 109.272 237.675 110.456C238.827 111.64 240.219 112.232 241.851 112.232C243.483 112.232 244.875 111.64 246.027 110.456C247.179 109.24 247.755 107.608 247.755 105.56ZM275.342 112.04V119H271.166C268.19 119 265.87 118.28 264.206 116.84C262.542 115.368 261.71 112.984 261.71 109.688V99.032H258.446V92.216H261.71V85.688H269.918V92.216H275.294V99.032H269.918V109.784C269.918 110.584 270.11 111.16 270.494 111.512C270.878 111.864 271.518 112.04 272.414 112.04H275.342ZM298.293 91.88V98.696H309.285V105.032H298.293V112.424H310.725V119H290.085V85.304H310.725V91.88H298.293ZM332.374 91.928C335.51 91.928 338.006 92.952 339.862 95C341.75 97.016 342.694 99.8 342.694 103.352V119H334.534V104.456C334.534 102.664 334.07 101.272 333.142 100.28C332.214 99.288 330.966 98.792 329.398 98.792C327.83 98.792 326.582 99.288 325.654 100.28C324.726 101.272 324.262 102.664 324.262 104.456V119H316.054V92.216H324.262V95.768C325.094 94.584 326.214 93.656 327.622 92.984C329.03 92.28 330.614 91.928 332.374 91.928ZM358.574 91.832C360.462 91.832 362.11 92.216 363.518 92.984C364.958 93.752 366.062 94.76 366.83 96.008V92.216H375.038V118.952C375.038 121.416 374.542 123.64 373.55 125.624C372.59 127.64 371.102 129.24 369.086 130.424C367.102 131.608 364.622 132.2 361.646 132.2C357.678 132.2 354.462 131.256 351.998 129.368C349.534 127.512 348.126 124.984 347.774 121.784H355.886C356.142 122.808 356.75 123.608 357.71 124.184C358.67 124.792 359.854 125.096 361.262 125.096C362.958 125.096 364.302 124.6 365.294 123.608C366.318 122.648 366.83 121.096 366.83 118.952V115.16C366.03 116.408 364.926 117.432 363.518 118.232C362.11 119 360.462 119.384 358.574 119.384C356.366 119.384 354.366 118.824 352.574 117.704C350.782 116.552 349.358 114.936 348.302 112.856C347.278 110.744 346.766 108.312 346.766 105.56C346.766 102.808 347.278 100.392 348.302 98.312C349.358 96.232 350.782 94.632 352.574 93.512C354.366 92.392 356.366 91.832 358.574 91.832ZM366.83 105.608C366.83 103.56 366.254 101.944 365.102 100.76C363.982 99.576 362.606 98.984 360.974 98.984C359.342 98.984 357.95 99.576 356.798 100.76C355.678 101.912 355.118 103.512 355.118 105.56C355.118 107.608 355.678 109.24 356.798 110.456C357.95 111.64 359.342 112.232 360.974 112.232C362.606 112.232 363.982 111.64 365.102 110.456C366.254 109.272 366.83 107.656 366.83 105.608ZM385.104 89.432C383.664 89.432 382.48 89.016 381.552 88.184C380.656 87.32 380.208 86.264 380.208 85.016C380.208 83.736 380.656 82.68 381.552 81.848C382.48 80.984 383.664 80.552 385.104 80.552C386.512 80.552 387.664 80.984 388.56 81.848C389.488 82.68 389.952 83.736 389.952 85.016C389.952 86.264 389.488 87.32 388.56 88.184C387.664 89.016 386.512 89.432 385.104 89.432ZM389.184 92.216V119H380.976V92.216H389.184ZM411.452 91.928C414.588 91.928 417.084 92.952 418.94 95C420.828 97.016 421.772 99.8 421.772 103.352V119H413.612V104.456C413.612 102.664 413.148 101.272 412.22 100.28C411.292 99.288 410.044 98.792 408.476 98.792C406.908 98.792 405.66 99.288 404.732 100.28C403.804 101.272 403.34 102.664 403.34 104.456V119H395.132V92.216H403.34V95.768C404.172 94.584 405.292 93.656 406.7 92.984C408.108 92.28 409.692 91.928 411.452 91.928ZM452.724 105.176C452.724 105.944 452.676 106.744 452.58 107.576H434.004C434.132 109.24 434.66 110.52 435.588 111.416C436.548 112.28 437.716 112.712 439.092 112.712C441.14 112.712 442.564 111.848 443.364 110.12H452.1C451.652 111.88 450.836 113.464 449.652 114.872C448.5 116.28 447.044 117.384 445.284 118.184C443.524 118.984 441.556 119.384 439.38 119.384C436.756 119.384 434.42 118.824 432.372 117.704C430.324 116.584 428.724 114.984 427.572 112.904C426.42 110.824 425.844 108.392 425.844 105.608C425.844 102.824 426.404 100.392 427.524 98.312C428.676 96.232 430.276 94.632 432.324 93.512C434.372 92.392 436.724 91.832 439.38 91.832C441.972 91.832 444.276 92.376 446.292 93.464C448.308 94.552 449.876 96.104 450.996 98.12C452.148 100.136 452.724 102.488 452.724 105.176ZM444.324 103.016C444.324 101.608 443.844 100.488 442.884 99.656C441.924 98.824 440.724 98.408 439.284 98.408C437.908 98.408 436.74 98.808 435.78 99.608C434.852 100.408 434.276 101.544 434.052 103.016H444.324ZM482.302 105.176C482.302 105.944 482.254 106.744 482.158 107.576H463.582C463.71 109.24 464.238 110.52 465.166 111.416C466.126 112.28 467.294 112.712 468.67 112.712C470.718 112.712 472.142 111.848 472.942 110.12H481.678C481.23 111.88 480.414 113.464 479.23 114.872C478.078 116.28 476.622 117.384 474.862 118.184C473.102 118.984 471.134 119.384 468.958 119.384C466.334 119.384 463.998 118.824 461.95 117.704C459.902 116.584 458.302 114.984 457.15 112.904C455.998 110.824 455.422 108.392 455.422 105.608C455.422 102.824 455.982 100.392 457.102 98.312C458.254 96.232 459.854 94.632 461.902 93.512C463.95 92.392 466.302 91.832 468.958 91.832C471.55 91.832 473.854 92.376 475.87 93.464C477.886 94.552 479.454 96.104 480.574 98.12C481.726 100.136 482.302 102.488 482.302 105.176ZM473.902 103.016C473.902 101.608 473.422 100.488 472.462 99.656C471.502 98.824 470.302 98.408 468.862 98.408C467.486 98.408 466.318 98.808 465.358 99.608C464.43 100.408 463.854 101.544 463.63 103.016H473.902ZM494.84 96.68C495.8 95.208 497 94.056 498.44 93.224C499.88 92.36 501.48 91.928 503.24 91.928V100.616H500.984C498.936 100.616 497.4 101.064 496.376 101.96C495.352 102.824 494.84 104.36 494.84 106.568V119H486.632V92.216H494.84V96.68ZM511.292 89.432C509.852 89.432 508.668 89.016 507.74 88.184C506.844 87.32 506.396 86.264 506.396 85.016C506.396 83.736 506.844 82.68 507.74 81.848C508.668 80.984 509.852 80.552 511.292 80.552C512.7 80.552 513.852 80.984 514.748 81.848C515.676 82.68 516.14 83.736 516.14 85.016C516.14 86.264 515.676 87.32 514.748 88.184C513.852 89.016 512.7 89.432 511.292 89.432ZM515.372 92.216V119H507.164V92.216H515.372ZM537.64 91.928C540.776 91.928 543.272 92.952 545.128 95C547.016 97.016 547.96 99.8 547.96 103.352V119H539.8V104.456C539.8 102.664 539.336 101.272 538.408 100.28C537.48 99.288 536.232 98.792 534.664 98.792C533.096 98.792 531.848 99.288 530.92 100.28C529.992 101.272 529.528 102.664 529.528 104.456V119H521.32V92.216H529.528V95.768C530.36 94.584 531.48 93.656 532.888 92.984C534.296 92.28 535.88 91.928 537.64 91.928ZM563.84 91.832C565.728 91.832 567.376 92.216 568.784 92.984C570.224 93.752 571.328 94.76 572.096 96.008V92.216H580.304V118.952C580.304 121.416 579.808 123.64 578.816 125.624C577.856 127.64 576.368 129.24 574.352 130.424C572.368 131.608 569.888 132.2 566.912 132.2C562.944 132.2 559.728 131.256 557.264 129.368C554.8 127.512 553.392 124.984 553.04 121.784H561.152C561.408 122.808 562.016 123.608 562.976 124.184C563.936 124.792 565.12 125.096 566.528 125.096C568.224 125.096 569.568 124.6 570.56 123.608C571.584 122.648 572.096 121.096 572.096 118.952V115.16C571.296 116.408 570.192 117.432 568.784 118.232C567.376 119 565.728 119.384 563.84 119.384C561.632 119.384 559.632 118.824 557.84 117.704C556.048 116.552 554.624 114.936 553.568 112.856C552.544 110.744 552.032 108.312 552.032 105.56C552.032 102.808 552.544 100.392 553.568 98.312C554.624 96.232 556.048 94.632 557.84 93.512C559.632 92.392 561.632 91.832 563.84 91.832ZM572.096 105.608C572.096 103.56 571.52 101.944 570.368 100.76C569.248 99.576 567.872 98.984 566.24 98.984C564.608 98.984 563.216 99.576 562.064 100.76C560.944 101.912 560.384 103.512 560.384 105.56C560.384 107.608 560.944 109.24 562.064 110.456C563.216 111.64 564.608 112.232 566.24 112.232C567.872 112.232 569.248 111.64 570.368 110.456C571.52 109.272 572.096 107.656 572.096 105.608Z" fill="white"/>
<path d="M1134 0H1348C1356.28 0 1363 6.71573 1363 15V148C1363 156.284 1356.28 163 1348 163H1134V0Z" fill="#2F4F4F"/>
<mask id="path-5-outside-1_386_74" maskUnits="userSpaceOnUse" x="1212.5" y="43.5" width="72" height="76" fill="black">
<rect fill="white" x="1212.5" y="43.5" width="72" height="76"/>
<path d="M1257.78 110.795L1258.17 117.033C1258.2 117.55 1257.82 118.005 1257.3 118.082C1255.41 118.359 1253.48 118.5 1251.56 118.5C1249.65 118.5 1247.72 118.359 1245.83 118.082C1245.3 118.005 1244.93 117.55 1244.96 117.033L1245.29 111.677C1241.26 110.891 1237.48 109.371 1234.05 107.148L1230.39 111.163C1230.04 111.55 1229.44 111.612 1229.01 111.305C1225.91 109.088 1223.19 106.436 1220.9 103.423C1220.59 103.006 1220.65 102.425 1221.05 102.081L1225.18 98.5235C1222.89 95.1861 1221.33 91.5191 1220.52 87.5987L1215.01 87.921C1214.48 87.9525 1214.01 87.5844 1213.93 87.0723C1213.64 85.2408 1213.5 83.3658 1213.5 81.4989C1213.5 79.6323 1213.64 77.7573 1213.93 75.9255C1214.01 75.4134 1214.48 75.037 1215.01 75.0768L1220.52 75.3991C1221.33 71.48 1222.89 67.8127 1225.18 64.4753L1221.05 60.9166C1220.65 60.5732 1220.59 59.9915 1220.9 59.5751C1223.18 56.565 1225.91 53.9132 1229.01 51.6928C1229.44 51.3858 1230.04 51.448 1230.39 51.8344L1234.05 55.8498C1237.51 53.619 1241.42 52.0541 1245.48 51.2839L1245.04 45.9743C1245 45.4495 1245.38 44.9818 1245.92 44.9043C1249.64 44.3652 1253.49 44.3652 1257.21 44.9043C1257.75 44.9818 1258.13 45.4496 1258.09 45.9743L1257.57 52.1893C1257.52 52.7401 1257.02 53.1503 1256.46 53.105C1255.89 53.0601 1255.47 52.5776 1255.52 52.0273L1255.96 46.7572C1253.05 46.4128 1250.08 46.4128 1247.17 46.7572L1247.61 52.0268C1247.66 52.546 1247.28 53.0109 1246.75 53.0949C1242.36 53.7915 1238.12 55.4843 1234.48 57.9899C1234.05 58.2849 1233.46 58.2181 1233.11 57.8373L1229.48 53.8537C1227.1 55.6511 1224.97 57.7247 1223.12 60.034L1227.22 63.565C1227.61 63.9035 1227.68 64.4749 1227.38 64.8912C1224.81 68.4236 1223.12 72.3693 1222.38 76.6188C1222.29 77.1218 1221.82 77.4795 1221.3 77.4485L1215.84 77.1288C1215.65 78.5723 1215.56 80.0384 1215.56 81.499C1215.56 82.9599 1215.65 84.4259 1215.84 85.8692L1221.3 85.5495C1221.82 85.5157 1222.29 85.8767 1222.38 86.3793C1223.12 90.6301 1224.81 94.5761 1227.38 98.1078C1227.68 98.5242 1227.61 99.0954 1227.22 99.434L1223.12 102.964C1224.97 105.276 1227.11 107.349 1229.48 109.144L1233.11 105.161C1233.46 104.779 1234.05 104.713 1234.48 105.008C1238.11 107.508 1242.17 109.143 1246.54 109.869C1247.06 109.955 1247.43 110.406 1247.4 110.915L1247.07 116.229C1250.04 116.589 1253.09 116.589 1256.06 116.229L1255.73 110.915C1255.7 110.363 1256.13 109.89 1256.7 109.857C1257.26 109.827 1257.75 110.244 1257.78 110.795ZM1279.87 67.5195C1281.52 67.5195 1282.86 68.8234 1282.86 70.4259C1282.86 72.0285 1281.52 73.3323 1279.87 73.3323C1279.49 73.3323 1279.13 73.2564 1278.8 73.131L1276 75.947C1275.8 76.142 1275.54 76.2524 1275.26 76.2524H1260.97C1260.4 76.2524 1259.94 75.8048 1259.94 75.2524C1259.94 74.7 1260.4 74.2524 1260.97 74.2524H1274.82L1277.25 71.8052C1277.02 71.3928 1276.88 70.9277 1276.88 70.4261C1276.88 68.8232 1278.22 67.5195 1279.87 67.5195ZM1278.93 70.4259C1278.93 70.9256 1279.35 71.3321 1279.87 71.3321C1280.38 71.3321 1280.8 70.9256 1280.8 70.4259C1280.8 69.9263 1280.38 69.5197 1279.87 69.5197C1279.35 69.5196 1278.93 69.9261 1278.93 70.4259ZM1268.7 64.8892L1272.51 59.5583C1272.12 59.0691 1271.89 58.4651 1271.89 57.8029C1271.89 56.2003 1273.23 54.8965 1274.87 54.8965C1276.52 54.8965 1277.86 56.2003 1277.86 57.8029C1277.86 59.4054 1276.52 60.7092 1274.87 60.7092C1274.66 60.7092 1274.45 60.6835 1274.24 60.6403L1270.08 66.4604C1269.89 66.729 1269.57 66.8895 1269.23 66.8895H1257.92C1257.35 66.8895 1256.89 66.4419 1256.89 65.8895C1256.89 65.3371 1257.35 64.8895 1257.92 64.8895H1268.7V64.8892ZM1273.94 57.8029C1273.94 58.3025 1274.36 58.7091 1274.87 58.7091C1275.39 58.7091 1275.81 58.3025 1275.81 57.8029C1275.81 57.3032 1275.39 56.8967 1274.87 56.8967C1274.36 56.8965 1273.94 57.3031 1273.94 57.8029ZM1277.62 105.196C1277.62 106.798 1276.28 108.102 1274.63 108.102C1272.98 108.102 1271.64 106.798 1271.64 105.196C1271.64 104.412 1271.96 103.703 1272.48 103.179L1268.69 97.8852H1257.92C1257.35 97.8852 1256.89 97.4376 1256.89 96.8852C1256.89 96.3328 1257.35 95.8852 1257.92 95.8852H1269.23C1269.57 95.8852 1269.89 96.0456 1270.08 96.3143L1274.37 102.315C1274.46 102.307 1274.54 102.289 1274.63 102.289C1276.28 102.289 1277.62 103.593 1277.62 105.196ZM1275.56 105.196C1275.56 104.696 1275.14 104.289 1274.63 104.289C1274.11 104.289 1273.69 104.696 1273.69 105.196C1273.69 105.695 1274.11 106.102 1274.63 106.102C1275.14 106.102 1275.56 105.695 1275.56 105.196ZM1282.61 92.8506C1282.61 94.4532 1281.27 95.757 1279.62 95.757C1277.97 95.757 1276.63 94.4532 1276.63 92.8506C1276.63 92.2267 1276.84 91.6518 1277.18 91.1777L1274.82 88.8004H1260.97C1260.4 88.8004 1259.94 88.3528 1259.94 87.8004C1259.94 87.248 1260.4 86.8004 1260.97 86.8004H1275.26C1275.54 86.8004 1275.8 86.9108 1276 87.1058L1278.91 90.0363C1279.14 89.9817 1279.37 89.9444 1279.62 89.9444C1281.27 89.9443 1282.61 91.2479 1282.61 92.8506ZM1280.55 92.8506C1280.55 92.351 1280.13 91.9444 1279.62 91.9444C1279.11 91.9444 1278.69 92.351 1278.69 92.8506C1278.69 93.3503 1279.11 93.7569 1279.62 93.7569C1280.13 93.7569 1280.55 93.3503 1280.55 92.8506ZM1283.5 81.5261C1283.5 83.1286 1282.16 84.4324 1280.51 84.4324C1279.22 84.4324 1278.14 83.6352 1277.71 82.5258H1255.16V100.204C1255.16 103.826 1252.13 106.773 1248.41 106.773C1245.68 106.773 1243.27 105.218 1242.21 102.835C1242.17 102.836 1242.13 102.837 1242.08 102.837C1238.36 102.837 1235.33 99.8896 1235.33 96.2674C1235.33 96.0939 1235.33 95.9203 1235.35 95.7475C1233.74 95.4353 1232.22 94.6326 1230.98 93.4249C1229.39 91.8756 1228.51 89.8161 1228.51 87.6253C1228.51 85.4345 1229.39 83.3749 1230.98 81.826C1231.1 81.7098 1231.23 81.6079 1231.36 81.4992C1231.23 81.3903 1231.1 81.2884 1230.98 81.1724C1229.39 79.6232 1228.51 77.5636 1228.51 75.3731C1228.51 73.1823 1229.39 71.1227 1230.98 69.5735C1232.22 68.3658 1233.74 67.563 1235.35 67.2509C1235.33 67.078 1235.33 66.9046 1235.33 66.731C1235.33 63.1085 1238.36 60.1615 1242.08 60.1615C1242.13 60.1615 1242.17 60.1618 1242.21 60.1628C1243.27 57.7799 1245.68 56.2252 1248.41 56.2252C1252.13 56.2252 1255.16 59.1721 1255.16 62.7944V80.5259H1277.71C1278.14 79.4168 1279.22 78.62 1280.51 78.62C1282.16 78.6198 1283.5 79.9235 1283.5 81.5261ZM1232.44 79.7581C1232.72 80.0356 1233.05 80.2792 1233.39 80.499H1253.11V62.7941C1253.11 60.2745 1251 58.225 1248.41 58.225C1246.68 58.225 1245.14 59.1203 1244.32 60.5297C1245.15 60.813 1245.92 61.2544 1246.59 61.8364C1246.6 61.8432 1246.6 61.8529 1246.61 61.8598C1246.99 61.6858 1247.42 61.5815 1247.87 61.5815C1249.51 61.5815 1250.86 62.8853 1250.86 64.4874C1250.86 66.09 1249.51 67.3938 1247.87 67.3938C1246.22 67.3938 1244.88 66.09 1244.88 64.4874C1244.88 64.0541 1244.98 63.6465 1245.16 63.2768C1244.3 62.5582 1243.22 62.1612 1242.08 62.1612C1239.49 62.1612 1237.38 64.2111 1237.38 66.7307C1237.38 66.8749 1237.4 67.0183 1237.41 67.1615C1238.63 67.284 1239.8 67.6579 1240.85 68.2699C1241.31 67.9875 1241.85 67.8176 1242.43 67.8176C1244.08 67.8176 1245.42 69.1214 1245.42 70.7239C1245.42 72.3262 1244.08 73.6299 1242.43 73.6299C1240.78 73.6299 1239.44 72.3261 1239.44 70.7239C1239.44 70.43 1239.5 70.1516 1239.58 69.8839C1238.66 69.388 1237.63 69.1172 1236.55 69.1139C1235.06 69.1935 1233.6 69.857 1232.44 70.9873C1231.23 72.1588 1230.57 73.7162 1230.57 75.3728C1230.57 77.0293 1231.23 78.5866 1232.44 79.7581ZM1241.5 70.7241C1241.5 71.2237 1241.92 71.63 1242.43 71.63C1242.95 71.63 1243.36 71.2237 1243.36 70.7241C1243.36 70.2244 1242.95 69.8179 1242.43 69.8179C1241.92 69.8177 1241.5 70.2243 1241.5 70.7241ZM1247.87 65.3938C1248.38 65.3938 1248.8 64.9872 1248.8 64.4876C1248.8 63.9879 1248.38 63.5816 1247.87 63.5816C1247.35 63.5816 1246.93 63.9879 1246.93 64.4876C1246.93 64.9872 1247.35 65.3938 1247.87 65.3938ZM1253.11 100.204V82.499H1233.37C1233.03 82.7166 1232.72 82.9651 1232.44 83.2399C1231.23 84.4112 1230.57 85.9685 1230.57 87.6251C1230.57 89.2817 1231.23 90.8391 1232.44 92.0106C1233.6 93.1409 1235.06 93.8044 1236.55 93.884C1237.61 93.8807 1238.63 93.62 1239.54 93.1388C1239.48 92.9112 1239.44 92.6768 1239.44 92.4315C1239.44 90.8289 1240.78 89.5251 1242.43 89.5251C1244.08 89.5251 1245.42 90.8289 1245.42 92.4315C1245.42 94.0341 1244.08 95.3379 1242.43 95.3379C1241.79 95.3379 1241.2 95.1364 1240.71 94.8008C1239.7 95.3682 1238.58 95.7192 1237.41 95.8365C1237.4 95.9797 1237.38 96.1231 1237.38 96.2674C1237.38 98.787 1239.49 100.836 1242.08 100.836C1243.19 100.836 1244.26 100.455 1245.1 99.7652C1244.96 99.4261 1244.88 99.0564 1244.88 98.6677C1244.88 97.0652 1246.22 95.7614 1247.87 95.7614C1249.51 95.7614 1250.86 97.0652 1250.86 98.6677C1250.86 100.27 1249.51 101.574 1247.87 101.574C1247.37 101.574 1246.91 101.445 1246.5 101.236C1245.85 101.779 1245.11 102.198 1244.32 102.468C1245.14 103.878 1246.68 104.773 1248.41 104.773C1251 104.773 1253.11 102.724 1253.11 100.204ZM1247.87 99.5741C1248.38 99.5741 1248.8 99.1675 1248.8 98.6679C1248.8 98.1682 1248.38 97.7617 1247.87 97.7617C1247.35 97.7617 1246.93 98.1682 1246.93 98.6679C1246.93 99.1675 1247.35 99.5741 1247.87 99.5741ZM1242.43 93.3379C1242.95 93.3379 1243.36 92.9313 1243.36 92.4316C1243.36 91.932 1242.95 91.5254 1242.43 91.5254C1241.92 91.5254 1241.5 91.932 1241.5 92.4316C1241.5 92.5993 1241.55 92.7544 1241.63 92.8892C1241.65 92.9087 1241.67 92.9252 1241.68 92.9463C1241.7 92.9687 1241.71 92.9933 1241.73 93.0166C1241.9 93.2114 1242.15 93.3379 1242.43 93.3379ZM1281.44 81.5261C1281.44 81.0264 1281.02 80.6198 1280.51 80.6198C1280 80.6198 1279.58 81.0264 1279.58 81.5261C1279.58 82.0257 1280 82.4323 1280.51 82.4323C1281.02 82.4323 1281.44 82.0257 1281.44 81.5261Z"/>
</mask>
<path d="M1257.78 110.795L1258.17 117.033C1258.2 117.55 1257.82 118.005 1257.3 118.082C1255.41 118.359 1253.48 118.5 1251.56 118.5C1249.65 118.5 1247.72 118.359 1245.83 118.082C1245.3 118.005 1244.93 117.55 1244.96 117.033L1245.29 111.677C1241.26 110.891 1237.48 109.371 1234.05 107.148L1230.39 111.163C1230.04 111.55 1229.44 111.612 1229.01 111.305C1225.91 109.088 1223.19 106.436 1220.9 103.423C1220.59 103.006 1220.65 102.425 1221.05 102.081L1225.18 98.5235C1222.89 95.1861 1221.33 91.5191 1220.52 87.5987L1215.01 87.921C1214.48 87.9525 1214.01 87.5844 1213.93 87.0723C1213.64 85.2408 1213.5 83.3658 1213.5 81.4989C1213.5 79.6323 1213.64 77.7573 1213.93 75.9255C1214.01 75.4134 1214.48 75.037 1215.01 75.0768L1220.52 75.3991C1221.33 71.48 1222.89 67.8127 1225.18 64.4753L1221.05 60.9166C1220.65 60.5732 1220.59 59.9915 1220.9 59.5751C1223.18 56.565 1225.91 53.9132 1229.01 51.6928C1229.44 51.3858 1230.04 51.448 1230.39 51.8344L1234.05 55.8498C1237.51 53.619 1241.42 52.0541 1245.48 51.2839L1245.04 45.9743C1245 45.4495 1245.38 44.9818 1245.92 44.9043C1249.64 44.3652 1253.49 44.3652 1257.21 44.9043C1257.75 44.9818 1258.13 45.4496 1258.09 45.9743L1257.57 52.1893C1257.52 52.7401 1257.02 53.1503 1256.46 53.105C1255.89 53.0601 1255.47 52.5776 1255.52 52.0273L1255.96 46.7572C1253.05 46.4128 1250.08 46.4128 1247.17 46.7572L1247.61 52.0268C1247.66 52.546 1247.28 53.0109 1246.75 53.0949C1242.36 53.7915 1238.12 55.4843 1234.48 57.9899C1234.05 58.2849 1233.46 58.2181 1233.11 57.8373L1229.48 53.8537C1227.1 55.6511 1224.97 57.7247 1223.12 60.034L1227.22 63.565C1227.61 63.9035 1227.68 64.4749 1227.38 64.8912C1224.81 68.4236 1223.12 72.3693 1222.38 76.6188C1222.29 77.1218 1221.82 77.4795 1221.3 77.4485L1215.84 77.1288C1215.65 78.5723 1215.56 80.0384 1215.56 81.499C1215.56 82.9599 1215.65 84.4259 1215.84 85.8692L1221.3 85.5495C1221.82 85.5157 1222.29 85.8767 1222.38 86.3793C1223.12 90.6301 1224.81 94.5761 1227.38 98.1078C1227.68 98.5242 1227.61 99.0954 1227.22 99.434L1223.12 102.964C1224.97 105.276 1227.11 107.349 1229.48 109.144L1233.11 105.161C1233.46 104.779 1234.05 104.713 1234.48 105.008C1238.11 107.508 1242.17 109.143 1246.54 109.869C1247.06 109.955 1247.43 110.406 1247.4 110.915L1247.07 116.229C1250.04 116.589 1253.09 116.589 1256.06 116.229L1255.73 110.915C1255.7 110.363 1256.13 109.89 1256.7 109.857C1257.26 109.827 1257.75 110.244 1257.78 110.795ZM1279.87 67.5195C1281.52 67.5195 1282.86 68.8234 1282.86 70.4259C1282.86 72.0285 1281.52 73.3323 1279.87 73.3323C1279.49 73.3323 1279.13 73.2564 1278.8 73.131L1276 75.947C1275.8 76.142 1275.54 76.2524 1275.26 76.2524H1260.97C1260.4 76.2524 1259.94 75.8048 1259.94 75.2524C1259.94 74.7 1260.4 74.2524 1260.97 74.2524H1274.82L1277.25 71.8052C1277.02 71.3928 1276.88 70.9277 1276.88 70.4261C1276.88 68.8232 1278.22 67.5195 1279.87 67.5195ZM1278.93 70.4259C1278.93 70.9256 1279.35 71.3321 1279.87 71.3321C1280.38 71.3321 1280.8 70.9256 1280.8 70.4259C1280.8 69.9263 1280.38 69.5197 1279.87 69.5197C1279.35 69.5196 1278.93 69.9261 1278.93 70.4259ZM1268.7 64.8892L1272.51 59.5583C1272.12 59.0691 1271.89 58.4651 1271.89 57.8029C1271.89 56.2003 1273.23 54.8965 1274.87 54.8965C1276.52 54.8965 1277.86 56.2003 1277.86 57.8029C1277.86 59.4054 1276.52 60.7092 1274.87 60.7092C1274.66 60.7092 1274.45 60.6835 1274.24 60.6403L1270.08 66.4604C1269.89 66.729 1269.57 66.8895 1269.23 66.8895H1257.92C1257.35 66.8895 1256.89 66.4419 1256.89 65.8895C1256.89 65.3371 1257.35 64.8895 1257.92 64.8895H1268.7V64.8892ZM1273.94 57.8029C1273.94 58.3025 1274.36 58.7091 1274.87 58.7091C1275.39 58.7091 1275.81 58.3025 1275.81 57.8029C1275.81 57.3032 1275.39 56.8967 1274.87 56.8967C1274.36 56.8965 1273.94 57.3031 1273.94 57.8029ZM1277.62 105.196C1277.62 106.798 1276.28 108.102 1274.63 108.102C1272.98 108.102 1271.64 106.798 1271.64 105.196C1271.64 104.412 1271.96 103.703 1272.48 103.179L1268.69 97.8852H1257.92C1257.35 97.8852 1256.89 97.4376 1256.89 96.8852C1256.89 96.3328 1257.35 95.8852 1257.92 95.8852H1269.23C1269.57 95.8852 1269.89 96.0456 1270.08 96.3143L1274.37 102.315C1274.46 102.307 1274.54 102.289 1274.63 102.289C1276.28 102.289 1277.62 103.593 1277.62 105.196ZM1275.56 105.196C1275.56 104.696 1275.14 104.289 1274.63 104.289C1274.11 104.289 1273.69 104.696 1273.69 105.196C1273.69 105.695 1274.11 106.102 1274.63 106.102C1275.14 106.102 1275.56 105.695 1275.56 105.196ZM1282.61 92.8506C1282.61 94.4532 1281.27 95.757 1279.62 95.757C1277.97 95.757 1276.63 94.4532 1276.63 92.8506C1276.63 92.2267 1276.84 91.6518 1277.18 91.1777L1274.82 88.8004H1260.97C1260.4 88.8004 1259.94 88.3528 1259.94 87.8004C1259.94 87.248 1260.4 86.8004 1260.97 86.8004H1275.26C1275.54 86.8004 1275.8 86.9108 1276 87.1058L1278.91 90.0363C1279.14 89.9817 1279.37 89.9444 1279.62 89.9444C1281.27 89.9443 1282.61 91.2479 1282.61 92.8506ZM1280.55 92.8506C1280.55 92.351 1280.13 91.9444 1279.62 91.9444C1279.11 91.9444 1278.69 92.351 1278.69 92.8506C1278.69 93.3503 1279.11 93.7569 1279.62 93.7569C1280.13 93.7569 1280.55 93.3503 1280.55 92.8506ZM1283.5 81.5261C1283.5 83.1286 1282.16 84.4324 1280.51 84.4324C1279.22 84.4324 1278.14 83.6352 1277.71 82.5258H1255.16V100.204C1255.16 103.826 1252.13 106.773 1248.41 106.773C1245.68 106.773 1243.27 105.218 1242.21 102.835C1242.17 102.836 1242.13 102.837 1242.08 102.837C1238.36 102.837 1235.33 99.8896 1235.33 96.2674C1235.33 96.0939 1235.33 95.9203 1235.35 95.7475C1233.74 95.4353 1232.22 94.6326 1230.98 93.4249C1229.39 91.8756 1228.51 89.8161 1228.51 87.6253C1228.51 85.4345 1229.39 83.3749 1230.98 81.826C1231.1 81.7098 1231.23 81.6079 1231.36 81.4992C1231.23 81.3903 1231.1 81.2884 1230.98 81.1724C1229.39 79.6232 1228.51 77.5636 1228.51 75.3731C1228.51 73.1823 1229.39 71.1227 1230.98 69.5735C1232.22 68.3658 1233.74 67.563 1235.35 67.2509C1235.33 67.078 1235.33 66.9046 1235.33 66.731C1235.33 63.1085 1238.36 60.1615 1242.08 60.1615C1242.13 60.1615 1242.17 60.1618 1242.21 60.1628C1243.27 57.7799 1245.68 56.2252 1248.41 56.2252C1252.13 56.2252 1255.16 59.1721 1255.16 62.7944V80.5259H1277.71C1278.14 79.4168 1279.22 78.62 1280.51 78.62C1282.16 78.6198 1283.5 79.9235 1283.5 81.5261ZM1232.44 79.7581C1232.72 80.0356 1233.05 80.2792 1233.39 80.499H1253.11V62.7941C1253.11 60.2745 1251 58.225 1248.41 58.225C1246.68 58.225 1245.14 59.1203 1244.32 60.5297C1245.15 60.813 1245.92 61.2544 1246.59 61.8364C1246.6 61.8432 1246.6 61.8529 1246.61 61.8598C1246.99 61.6858 1247.42 61.5815 1247.87 61.5815C1249.51 61.5815 1250.86 62.8853 1250.86 64.4874C1250.86 66.09 1249.51 67.3938 1247.87 67.3938C1246.22 67.3938 1244.88 66.09 1244.88 64.4874C1244.88 64.0541 1244.98 63.6465 1245.16 63.2768C1244.3 62.5582 1243.22 62.1612 1242.08 62.1612C1239.49 62.1612 1237.38 64.2111 1237.38 66.7307C1237.38 66.8749 1237.4 67.0183 1237.41 67.1615C1238.63 67.284 1239.8 67.6579 1240.85 68.2699C1241.31 67.9875 1241.85 67.8176 1242.43 67.8176C1244.08 67.8176 1245.42 69.1214 1245.42 70.7239C1245.42 72.3262 1244.08 73.6299 1242.43 73.6299C1240.78 73.6299 1239.44 72.3261 1239.44 70.7239C1239.44 70.43 1239.5 70.1516 1239.58 69.8839C1238.66 69.388 1237.63 69.1172 1236.55 69.1139C1235.06 69.1935 1233.6 69.857 1232.44 70.9873C1231.23 72.1588 1230.57 73.7162 1230.57 75.3728C1230.57 77.0293 1231.23 78.5866 1232.44 79.7581ZM1241.5 70.7241C1241.5 71.2237 1241.92 71.63 1242.43 71.63C1242.95 71.63 1243.36 71.2237 1243.36 70.7241C1243.36 70.2244 1242.95 69.8179 1242.43 69.8179C1241.92 69.8177 1241.5 70.2243 1241.5 70.7241ZM1247.87 65.3938C1248.38 65.3938 1248.8 64.9872 1248.8 64.4876C1248.8 63.9879 1248.38 63.5816 1247.87 63.5816C1247.35 63.5816 1246.93 63.9879 1246.93 64.4876C1246.93 64.9872 1247.35 65.3938 1247.87 65.3938ZM1253.11 100.204V82.499H1233.37C1233.03 82.7166 1232.72 82.9651 1232.44 83.2399C1231.23 84.4112 1230.57 85.9685 1230.57 87.6251C1230.57 89.2817 1231.23 90.8391 1232.44 92.0106C1233.6 93.1409 1235.06 93.8044 1236.55 93.884C1237.61 93.8807 1238.63 93.62 1239.54 93.1388C1239.48 92.9112 1239.44 92.6768 1239.44 92.4315C1239.44 90.8289 1240.78 89.5251 1242.43 89.5251C1244.08 89.5251 1245.42 90.8289 1245.42 92.4315C1245.42 94.0341 1244.08 95.3379 1242.43 95.3379C1241.79 95.3379 1241.2 95.1364 1240.71 94.8008C1239.7 95.3682 1238.58 95.7192 1237.41 95.8365C1237.4 95.9797 1237.38 96.1231 1237.38 96.2674C1237.38 98.787 1239.49 100.836 1242.08 100.836C1243.19 100.836 1244.26 100.455 1245.1 99.7652C1244.96 99.4261 1244.88 99.0564 1244.88 98.6677C1244.88 97.0652 1246.22 95.7614 1247.87 95.7614C1249.51 95.7614 1250.86 97.0652 1250.86 98.6677C1250.86 100.27 1249.51 101.574 1247.87 101.574C1247.37 101.574 1246.91 101.445 1246.5 101.236C1245.85 101.779 1245.11 102.198 1244.32 102.468C1245.14 103.878 1246.68 104.773 1248.41 104.773C1251 104.773 1253.11 102.724 1253.11 100.204ZM1247.87 99.5741C1248.38 99.5741 1248.8 99.1675 1248.8 98.6679C1248.8 98.1682 1248.38 97.7617 1247.87 97.7617C1247.35 97.7617 1246.93 98.1682 1246.93 98.6679C1246.93 99.1675 1247.35 99.5741 1247.87 99.5741ZM1242.43 93.3379C1242.95 93.3379 1243.36 92.9313 1243.36 92.4316C1243.36 91.932 1242.95 91.5254 1242.43 91.5254C1241.92 91.5254 1241.5 91.932 1241.5 92.4316C1241.5 92.5993 1241.55 92.7544 1241.63 92.8892C1241.65 92.9087 1241.67 92.9252 1241.68 92.9463C1241.7 92.9687 1241.71 92.9933 1241.73 93.0166C1241.9 93.2114 1242.15 93.3379 1242.43 93.3379ZM1281.44 81.5261C1281.44 81.0264 1281.02 80.6198 1280.51 80.6198C1280 80.6198 1279.58 81.0264 1279.58 81.5261C1279.58 82.0257 1280 82.4323 1280.51 82.4323C1281.02 82.4323 1281.44 82.0257 1281.44 81.5261Z" fill="white"/>
<path d="M1257.78 110.795L1258.17 117.033C1258.2 117.55 1257.82 118.005 1257.3 118.082C1255.41 118.359 1253.48 118.5 1251.56 118.5C1249.65 118.5 1247.72 118.359 1245.83 118.082C1245.3 118.005 1244.93 117.55 1244.96 117.033L1245.29 111.677C1241.26 110.891 1237.48 109.371 1234.05 107.148L1230.39 111.163C1230.04 111.55 1229.44 111.612 1229.01 111.305C1225.91 109.088 1223.19 106.436 1220.9 103.423C1220.59 103.006 1220.65 102.425 1221.05 102.081L1225.18 98.5235C1222.89 95.1861 1221.33 91.5191 1220.52 87.5987L1215.01 87.921C1214.48 87.9525 1214.01 87.5844 1213.93 87.0723C1213.64 85.2408 1213.5 83.3658 1213.5 81.4989C1213.5 79.6323 1213.64 77.7573 1213.93 75.9255C1214.01 75.4134 1214.48 75.037 1215.01 75.0768L1220.52 75.3991C1221.33 71.48 1222.89 67.8127 1225.18 64.4753L1221.05 60.9166C1220.65 60.5732 1220.59 59.9915 1220.9 59.5751C1223.18 56.565 1225.91 53.9132 1229.01 51.6928C1229.44 51.3858 1230.04 51.448 1230.39 51.8344L1234.05 55.8498C1237.51 53.619 1241.42 52.0541 1245.48 51.2839L1245.04 45.9743C1245 45.4495 1245.38 44.9818 1245.92 44.9043C1249.64 44.3652 1253.49 44.3652 1257.21 44.9043C1257.75 44.9818 1258.13 45.4496 1258.09 45.9743L1257.57 52.1893C1257.52 52.7401 1257.02 53.1503 1256.46 53.105C1255.89 53.0601 1255.47 52.5776 1255.52 52.0273L1255.96 46.7572C1253.05 46.4128 1250.08 46.4128 1247.17 46.7572L1247.61 52.0268C1247.66 52.546 1247.28 53.0109 1246.75 53.0949C1242.36 53.7915 1238.12 55.4843 1234.48 57.9899C1234.05 58.2849 1233.46 58.2181 1233.11 57.8373L1229.48 53.8537C1227.1 55.6511 1224.97 57.7247 1223.12 60.034L1227.22 63.565C1227.61 63.9035 1227.68 64.4749 1227.38 64.8912C1224.81 68.4236 1223.12 72.3693 1222.38 76.6188C1222.29 77.1218 1221.82 77.4795 1221.3 77.4485L1215.84 77.1288C1215.65 78.5723 1215.56 80.0384 1215.56 81.499C1215.56 82.9599 1215.65 84.4259 1215.84 85.8692L1221.3 85.5495C1221.82 85.5157 1222.29 85.8767 1222.38 86.3793C1223.12 90.6301 1224.81 94.5761 1227.38 98.1078C1227.68 98.5242 1227.61 99.0954 1227.22 99.434L1223.12 102.964C1224.97 105.276 1227.11 107.349 1229.48 109.144L1233.11 105.161C1233.46 104.779 1234.05 104.713 1234.48 105.008C1238.11 107.508 1242.17 109.143 1246.54 109.869C1247.06 109.955 1247.43 110.406 1247.4 110.915L1247.07 116.229C1250.04 116.589 1253.09 116.589 1256.06 116.229L1255.73 110.915C1255.7 110.363 1256.13 109.89 1256.7 109.857C1257.26 109.827 1257.75 110.244 1257.78 110.795ZM1279.87 67.5195C1281.52 67.5195 1282.86 68.8234 1282.86 70.4259C1282.86 72.0285 1281.52 73.3323 1279.87 73.3323C1279.49 73.3323 1279.13 73.2564 1278.8 73.131L1276 75.947C1275.8 76.142 1275.54 76.2524 1275.26 76.2524H1260.97C1260.4 76.2524 1259.94 75.8048 1259.94 75.2524C1259.94 74.7 1260.4 74.2524 1260.97 74.2524H1274.82L1277.25 71.8052C1277.02 71.3928 1276.88 70.9277 1276.88 70.4261C1276.88 68.8232 1278.22 67.5195 1279.87 67.5195ZM1278.93 70.4259C1278.93 70.9256 1279.35 71.3321 1279.87 71.3321C1280.38 71.3321 1280.8 70.9256 1280.8 70.4259C1280.8 69.9263 1280.38 69.5197 1279.87 69.5197C1279.35 69.5196 1278.93 69.9261 1278.93 70.4259ZM1268.7 64.8892L1272.51 59.5583C1272.12 59.0691 1271.89 58.4651 1271.89 57.8029C1271.89 56.2003 1273.23 54.8965 1274.87 54.8965C1276.52 54.8965 1277.86 56.2003 1277.86 57.8029C1277.86 59.4054 1276.52 60.7092 1274.87 60.7092C1274.66 60.7092 1274.45 60.6835 1274.24 60.6403L1270.08 66.4604C1269.89 66.729 1269.57 66.8895 1269.23 66.8895H1257.92C1257.35 66.8895 1256.89 66.4419 1256.89 65.8895C1256.89 65.3371 1257.35 64.8895 1257.92 64.8895H1268.7V64.8892ZM1273.94 57.8029C1273.94 58.3025 1274.36 58.7091 1274.87 58.7091C1275.39 58.7091 1275.81 58.3025 1275.81 57.8029C1275.81 57.3032 1275.39 56.8967 1274.87 56.8967C1274.36 56.8965 1273.94 57.3031 1273.94 57.8029ZM1277.62 105.196C1277.62 106.798 1276.28 108.102 1274.63 108.102C1272.98 108.102 1271.64 106.798 1271.64 105.196C1271.64 104.412 1271.96 103.703 1272.48 103.179L1268.69 97.8852H1257.92C1257.35 97.8852 1256.89 97.4376 1256.89 96.8852C1256.89 96.3328 1257.35 95.8852 1257.92 95.8852H1269.23C1269.57 95.8852 1269.89 96.0456 1270.08 96.3143L1274.37 102.315C1274.46 102.307 1274.54 102.289 1274.63 102.289C1276.28 102.289 1277.62 103.593 1277.62 105.196ZM1275.56 105.196C1275.56 104.696 1275.14 104.289 1274.63 104.289C1274.11 104.289 1273.69 104.696 1273.69 105.196C1273.69 105.695 1274.11 106.102 1274.63 106.102C1275.14 106.102 1275.56 105.695 1275.56 105.196ZM1282.61 92.8506C1282.61 94.4532 1281.27 95.757 1279.62 95.757C1277.97 95.757 1276.63 94.4532 1276.63 92.8506C1276.63 92.2267 1276.84 91.6518 1277.18 91.1777L1274.82 88.8004H1260.97C1260.4 88.8004 1259.94 88.3528 1259.94 87.8004C1259.94 87.248 1260.4 86.8004 1260.97 86.8004H1275.26C1275.54 86.8004 1275.8 86.9108 1276 87.1058L1278.91 90.0363C1279.14 89.9817 1279.37 89.9444 1279.62 89.9444C1281.27 89.9443 1282.61 91.2479 1282.61 92.8506ZM1280.55 92.8506C1280.55 92.351 1280.13 91.9444 1279.62 91.9444C1279.11 91.9444 1278.69 92.351 1278.69 92.8506C1278.69 93.3503 1279.11 93.7569 1279.62 93.7569C1280.13 93.7569 1280.55 93.3503 1280.55 92.8506ZM1283.5 81.5261C1283.5 83.1286 1282.16 84.4324 1280.51 84.4324C1279.22 84.4324 1278.14 83.6352 1277.71 82.5258H1255.16V100.204C1255.16 103.826 1252.13 106.773 1248.41 106.773C1245.68 106.773 1243.27 105.218 1242.21 102.835C1242.17 102.836 1242.13 102.837 1242.08 102.837C1238.36 102.837 1235.33 99.8896 1235.33 96.2674C1235.33 96.0939 1235.33 95.9203 1235.35 95.7475C1233.74 95.4353 1232.22 94.6326 1230.98 93.4249C1229.39 91.8756 1228.51 89.8161 1228.51 87.6253C1228.51 85.4345 1229.39 83.3749 1230.98 81.826C1231.1 81.7098 1231.23 81.6079 1231.36 81.4992C1231.23 81.3903 1231.1 81.2884 1230.98 81.1724C1229.39 79.6232 1228.51 77.5636 1228.51 75.3731C1228.51 73.1823 1229.39 71.1227 1230.98 69.5735C1232.22 68.3658 1233.74 67.563 1235.35 67.2509C1235.33 67.078 1235.33 66.9046 1235.33 66.731C1235.33 63.1085 1238.36 60.1615 1242.08 60.1615C1242.13 60.1615 1242.17 60.1618 1242.21 60.1628C1243.27 57.7799 1245.68 56.2252 1248.41 56.2252C1252.13 56.2252 1255.16 59.1721 1255.16 62.7944V80.5259H1277.71C1278.14 79.4168 1279.22 78.62 1280.51 78.62C1282.16 78.6198 1283.5 79.9235 1283.5 81.5261ZM1232.44 79.7581C1232.72 80.0356 1233.05 80.2792 1233.39 80.499H1253.11V62.7941C1253.11 60.2745 1251 58.225 1248.41 58.225C1246.68 58.225 1245.14 59.1203 1244.32 60.5297C1245.15 60.813 1245.92 61.2544 1246.59 61.8364C1246.6 61.8432 1246.6 61.8529 1246.61 61.8598C1246.99 61.6858 1247.42 61.5815 1247.87 61.5815C1249.51 61.5815 1250.86 62.8853 1250.86 64.4874C1250.86 66.09 1249.51 67.3938 1247.87 67.3938C1246.22 67.3938 1244.88 66.09 1244.88 64.4874C1244.88 64.0541 1244.98 63.6465 1245.16 63.2768C1244.3 62.5582 1243.22 62.1612 1242.08 62.1612C1239.49 62.1612 1237.38 64.2111 1237.38 66.7307C1237.38 66.8749 1237.4 67.0183 1237.41 67.1615C1238.63 67.284 1239.8 67.6579 1240.85 68.2699C1241.31 67.9875 1241.85 67.8176 1242.43 67.8176C1244.08 67.8176 1245.42 69.1214 1245.42 70.7239C1245.42 72.3262 1244.08 73.6299 1242.43 73.6299C1240.78 73.6299 1239.44 72.3261 1239.44 70.7239C1239.44 70.43 1239.5 70.1516 1239.58 69.8839C1238.66 69.388 1237.63 69.1172 1236.55 69.1139C1235.06 69.1935 1233.6 69.857 1232.44 70.9873C1231.23 72.1588 1230.57 73.7162 1230.57 75.3728C1230.57 77.0293 1231.23 78.5866 1232.44 79.7581ZM1241.5 70.7241C1241.5 71.2237 1241.92 71.63 1242.43 71.63C1242.95 71.63 1243.36 71.2237 1243.36 70.7241C1243.36 70.2244 1242.95 69.8179 1242.43 69.8179C1241.92 69.8177 1241.5 70.2243 1241.5 70.7241ZM1247.87 65.3938C1248.38 65.3938 1248.8 64.9872 1248.8 64.4876C1248.8 63.9879 1248.38 63.5816 1247.87 63.5816C1247.35 63.5816 1246.93 63.9879 1246.93 64.4876C1246.93 64.9872 1247.35 65.3938 1247.87 65.3938ZM1253.11 100.204V82.499H1233.37C1233.03 82.7166 1232.72 82.9651 1232.44 83.2399C1231.23 84.4112 1230.57 85.9685 1230.57 87.6251C1230.57 89.2817 1231.23 90.8391 1232.44 92.0106C1233.6 93.1409 1235.06 93.8044 1236.55 93.884C1237.61 93.8807 1238.63 93.62 1239.54 93.1388C1239.48 92.9112 1239.44 92.6768 1239.44 92.4315C1239.44 90.8289 1240.78 89.5251 1242.43 89.5251C1244.08 89.5251 1245.42 90.8289 1245.42 92.4315C1245.42 94.0341 1244.08 95.3379 1242.43 95.3379C1241.79 95.3379 1241.2 95.1364 1240.71 94.8008C1239.7 95.3682 1238.58 95.7192 1237.41 95.8365C1237.4 95.9797 1237.38 96.1231 1237.38 96.2674C1237.38 98.787 1239.49 100.836 1242.08 100.836C1243.19 100.836 1244.26 100.455 1245.1 99.7652C1244.96 99.4261 1244.88 99.0564 1244.88 98.6677C1244.88 97.0652 1246.22 95.7614 1247.87 95.7614C1249.51 95.7614 1250.86 97.0652 1250.86 98.6677C1250.86 100.27 1249.51 101.574 1247.87 101.574C1247.37 101.574 1246.91 101.445 1246.5 101.236C1245.85 101.779 1245.11 102.198 1244.32 102.468C1245.14 103.878 1246.68 104.773 1248.41 104.773C1251 104.773 1253.11 102.724 1253.11 100.204ZM1247.87 99.5741C1248.38 99.5741 1248.8 99.1675 1248.8 98.6679C1248.8 98.1682 1248.38 97.7617 1247.87 97.7617C1247.35 97.7617 1246.93 98.1682 1246.93 98.6679C1246.93 99.1675 1247.35 99.5741 1247.87 99.5741ZM1242.43 93.3379C1242.95 93.3379 1243.36 92.9313 1243.36 92.4316C1243.36 91.932 1242.95 91.5254 1242.43 91.5254C1241.92 91.5254 1241.5 91.932 1241.5 92.4316C1241.5 92.5993 1241.55 92.7544 1241.63 92.8892C1241.65 92.9087 1241.67 92.9252 1241.68 92.9463C1241.7 92.9687 1241.71 92.9933 1241.73 93.0166C1241.9 93.2114 1242.15 93.3379 1242.43 93.3379ZM1281.44 81.5261C1281.44 81.0264 1281.02 80.6198 1280.51 80.6198C1280 80.6198 1279.58 81.0264 1279.58 81.5261C1279.58 82.0257 1280 82.4323 1280.51 82.4323C1281.02 82.4323 1281.44 82.0257 1281.44 81.5261Z" stroke="white" mask="url(#path-5-outside-1_386_74)"/>
</svg>
