<svg width="1363" height="163" viewBox="0 0 1363 163" fill="none" xmlns="http://www.w3.org/2000/svg">
<path d="M0 15C0 6.71573 6.71573 0 15 0H37V163H15C6.71573 163 0 156.284 0 148V15Z" fill="white"/>
<rect width="1097" height="163" transform="translate(37)" fill="#F0F0F0"/>
<path d="M94.512 47.296H99.672L104.544 52.6L99.672 57.904H94.512L99.408 52.6L94.512 47.296ZM124.678 44.152V47.44H120.214V61H116.11V47.44H111.646V44.152H124.678ZM125.922 54.28C125.922 52.904 126.178 51.696 126.69 50.656C127.218 49.616 127.93 48.816 128.826 48.256C129.722 47.696 130.722 47.416 131.826 47.416C132.77 47.416 133.594 47.608 134.298 47.992C135.018 48.376 135.57 48.88 135.954 49.504V47.608H140.058V61H135.954V59.104C135.554 59.728 134.994 60.232 134.274 60.616C133.57 61 132.746 61.192 131.802 61.192C130.714 61.192 129.722 60.912 128.826 60.352C127.93 59.776 127.218 58.968 126.69 57.928C126.178 56.872 125.922 55.656 125.922 54.28ZM135.954 54.304C135.954 53.28 135.666 52.472 135.09 51.88C134.53 51.288 133.842 50.992 133.026 50.992C132.21 50.992 131.514 51.288 130.938 51.88C130.378 52.456 130.098 53.256 130.098 54.28C130.098 55.304 130.378 56.12 130.938 56.728C131.514 57.32 132.21 57.616 133.026 57.616C133.842 57.616 134.53 57.32 135.09 56.728C135.666 56.136 135.954 55.328 135.954 54.304ZM147.131 49.504C147.515 48.88 148.067 48.376 148.787 47.992C149.507 47.608 150.331 47.416 151.259 47.416C152.363 47.416 153.363 47.696 154.259 48.256C155.155 48.816 155.859 49.616 156.371 50.656C156.899 51.696 157.163 52.904 157.163 54.28C157.163 55.656 156.899 56.872 156.371 57.928C155.859 58.968 155.155 59.776 154.259 60.352C153.363 60.912 152.363 61.192 151.259 61.192C150.315 61.192 149.491 61.008 148.787 60.64C148.083 60.256 147.531 59.752 147.131 59.128V61H143.027V43.24H147.131V49.504ZM152.987 54.28C152.987 53.256 152.699 52.456 152.123 51.88C151.563 51.288 150.867 50.992 150.035 50.992C149.219 50.992 148.523 51.288 147.947 51.88C147.387 52.472 147.107 53.28 147.107 54.304C147.107 55.328 147.387 56.136 147.947 56.728C148.523 57.32 149.219 57.616 150.035 57.616C150.851 57.616 151.547 57.32 152.123 56.728C152.699 56.12 152.987 55.304 152.987 54.28ZM167.5 61L163.42 55.384V61H159.316V43.24H163.42V53.056L167.476 47.608H172.54L166.972 54.328L172.588 61H167.5ZM182.384 47.464C183.92 47.464 185.152 47.976 186.08 49C187.008 50.008 187.472 51.4 187.472 53.176V61H183.392V53.728C183.392 52.832 183.16 52.136 182.696 51.64C182.232 51.144 181.608 50.896 180.824 50.896C180.04 50.896 179.416 51.144 178.952 51.64C178.488 52.136 178.256 52.832 178.256 53.728V61H174.152V43.24H178.256V49.408C178.672 48.816 179.24 48.344 179.96 47.992C180.68 47.64 181.488 47.464 182.384 47.464ZM202.948 54.088C202.948 54.472 202.924 54.872 202.876 55.288H193.588C193.652 56.12 193.916 56.76 194.38 57.208C194.86 57.64 195.444 57.856 196.132 57.856C197.156 57.856 197.868 57.424 198.268 56.56H202.636C202.412 57.44 202.004 58.232 201.412 58.936C200.836 59.64 200.108 60.192 199.228 60.592C198.348 60.992 197.364 61.192 196.276 61.192C194.964 61.192 193.796 60.912 192.772 60.352C191.748 59.792 190.948 58.992 190.372 57.952C189.796 56.912 189.508 55.696 189.508 54.304C189.508 52.912 189.788 51.696 190.348 50.656C190.924 49.616 191.724 48.816 192.748 48.256C193.772 47.696 194.948 47.416 196.276 47.416C197.572 47.416 198.724 47.688 199.732 48.232C200.74 48.776 201.524 49.552 202.084 50.56C202.66 51.568 202.948 52.744 202.948 54.088ZM198.748 53.008C198.748 52.304 198.508 51.744 198.028 51.328C197.548 50.912 196.948 50.704 196.228 50.704C195.54 50.704 194.956 50.904 194.476 51.304C194.012 51.704 193.724 52.272 193.612 53.008H198.748ZM212.577 57.52V61H210.489C209.001 61 207.841 60.64 207.009 59.92C206.177 59.184 205.761 57.992 205.761 56.344V51.016H204.129V47.608H205.761V44.344H209.865V47.608H212.553V51.016H209.865V56.392C209.865 56.792 209.961 57.08 210.153 57.256C210.345 57.432 210.665 57.52 211.113 57.52H212.577ZM223.023 47.464C224.591 47.464 225.839 47.976 226.767 49C227.711 50.008 228.183 51.4 228.183 53.176V61H224.103V53.728C224.103 52.832 223.871 52.136 223.407 51.64C222.943 51.144 222.319 50.896 221.535 50.896C220.751 50.896 220.127 51.144 219.663 51.64C219.199 52.136 218.967 52.832 218.967 53.728V61H214.863V47.608H218.967V49.384C219.383 48.792 219.943 48.328 220.647 47.992C221.351 47.64 222.143 47.464 223.023 47.464ZM230.219 54.28C230.219 52.904 230.475 51.696 230.987 50.656C231.515 49.616 232.227 48.816 233.123 48.256C234.019 47.696 235.019 47.416 236.123 47.416C237.067 47.416 237.891 47.608 238.595 47.992C239.315 48.376 239.867 48.88 240.251 49.504V47.608H244.355V61H240.251V59.104C239.851 59.728 239.291 60.232 238.571 60.616C237.867 61 237.043 61.192 236.099 61.192C235.011 61.192 234.019 60.912 233.123 60.352C232.227 59.776 231.515 58.968 230.987 57.928C230.475 56.872 230.219 55.656 230.219 54.28ZM240.251 54.304C240.251 53.28 239.963 52.472 239.387 51.88C238.827 51.288 238.139 50.992 237.323 50.992C236.507 50.992 235.811 51.288 235.235 51.88C234.675 52.456 234.395 53.256 234.395 54.28C234.395 55.304 234.675 56.12 235.235 56.728C235.811 57.32 236.507 57.616 237.323 57.616C238.139 57.616 238.827 57.32 239.387 56.728C239.963 56.136 240.251 55.328 240.251 54.304Z" fill="#888888"/>
<path d="M104.184 85.304V119H95.976V85.304H104.184ZM144.308 91.928C147.636 91.928 150.276 92.936 152.228 94.952C154.212 96.968 155.204 99.768 155.204 103.352V119H147.044V104.456C147.044 102.728 146.58 101.4 145.652 100.472C144.756 99.512 143.508 99.032 141.908 99.032C140.308 99.032 139.044 99.512 138.116 100.472C137.22 101.4 136.772 102.728 136.772 104.456V119H128.612V104.456C128.612 102.728 128.148 101.4 127.22 100.472C126.324 99.512 125.076 99.032 123.476 99.032C121.876 99.032 120.612 99.512 119.684 100.472C118.788 101.4 118.34 102.728 118.34 104.456V119H110.132V92.216H118.34V95.576C119.172 94.456 120.26 93.576 121.604 92.936C122.948 92.264 124.468 91.928 126.164 91.928C128.18 91.928 129.972 92.36 131.54 93.224C133.14 94.088 134.388 95.32 135.284 96.92C136.212 95.448 137.476 94.248 139.076 93.32C140.676 92.392 142.42 91.928 144.308 91.928ZM169.153 96.008C169.953 94.76 171.057 93.752 172.465 92.984C173.873 92.216 175.521 91.832 177.409 91.832C179.617 91.832 181.617 92.392 183.409 93.512C185.201 94.632 186.609 96.232 187.633 98.312C188.689 100.392 189.217 102.808 189.217 105.56C189.217 108.312 188.689 110.744 187.633 112.856C186.609 114.936 185.201 116.552 183.409 117.704C181.617 118.824 179.617 119.384 177.409 119.384C175.553 119.384 173.905 119 172.465 118.232C171.057 117.464 169.953 116.472 169.153 115.256V131.768H160.945V92.216H169.153V96.008ZM180.865 105.56C180.865 103.512 180.289 101.912 179.137 100.76C178.017 99.576 176.625 98.984 174.961 98.984C173.329 98.984 171.937 99.576 170.785 100.76C169.665 101.944 169.105 103.56 169.105 105.608C169.105 107.656 169.665 109.272 170.785 110.456C171.937 111.64 173.329 112.232 174.961 112.232C176.593 112.232 177.985 111.64 179.137 110.456C180.289 109.24 180.865 107.608 180.865 105.56ZM201.731 83.48V119H193.523V83.48H201.731ZM232.927 105.176C232.927 105.944 232.879 106.744 232.783 107.576H214.207C214.335 109.24 214.863 110.52 215.791 111.416C216.751 112.28 217.919 112.712 219.295 112.712C221.343 112.712 222.767 111.848 223.567 110.12H232.303C231.855 111.88 231.039 113.464 229.855 114.872C228.703 116.28 227.247 117.384 225.487 118.184C223.727 118.984 221.759 119.384 219.583 119.384C216.959 119.384 214.623 118.824 212.575 117.704C210.527 116.584 208.927 114.984 207.775 112.904C206.623 110.824 206.047 108.392 206.047 105.608C206.047 102.824 206.607 100.392 207.727 98.312C208.879 96.232 210.479 94.632 212.527 93.512C214.575 92.392 216.927 91.832 219.583 91.832C222.175 91.832 224.479 92.376 226.495 93.464C228.511 94.552 230.079 96.104 231.199 98.12C232.351 100.136 232.927 102.488 232.927 105.176ZM224.527 103.016C224.527 101.608 224.047 100.488 223.087 99.656C222.127 98.824 220.927 98.408 219.487 98.408C218.111 98.408 216.943 98.808 215.983 99.608C215.055 100.408 214.479 101.544 214.255 103.016H224.527ZM271.433 91.928C274.761 91.928 277.401 92.936 279.353 94.952C281.337 96.968 282.329 99.768 282.329 103.352V119H274.169V104.456C274.169 102.728 273.705 101.4 272.777 100.472C271.881 99.512 270.633 99.032 269.033 99.032C267.433 99.032 266.169 99.512 265.241 100.472C264.345 101.4 263.897 102.728 263.897 104.456V119H255.737V104.456C255.737 102.728 255.273 101.4 254.345 100.472C253.449 99.512 252.201 99.032 250.601 99.032C249.001 99.032 247.737 99.512 246.809 100.472C245.913 101.4 245.465 102.728 245.465 104.456V119H237.257V92.216H245.465V95.576C246.297 94.456 247.385 93.576 248.729 92.936C250.073 92.264 251.593 91.928 253.289 91.928C255.305 91.928 257.097 92.36 258.665 93.224C260.265 94.088 261.513 95.32 262.409 96.92C263.337 95.448 264.601 94.248 266.201 93.32C267.801 92.392 269.545 91.928 271.433 91.928ZM313.318 105.176C313.318 105.944 313.27 106.744 313.174 107.576H294.598C294.726 109.24 295.254 110.52 296.182 111.416C297.142 112.28 298.31 112.712 299.686 112.712C301.734 112.712 303.158 111.848 303.958 110.12H312.694C312.246 111.88 311.43 113.464 310.246 114.872C309.094 116.28 307.638 117.384 305.878 118.184C304.118 118.984 302.15 119.384 299.974 119.384C297.35 119.384 295.014 118.824 292.966 117.704C290.918 116.584 289.318 114.984 288.166 112.904C287.014 110.824 286.438 108.392 286.438 105.608C286.438 102.824 286.998 100.392 288.118 98.312C289.27 96.232 290.87 94.632 292.918 93.512C294.966 92.392 297.318 91.832 299.974 91.832C302.566 91.832 304.87 92.376 306.886 93.464C308.902 94.552 310.47 96.104 311.59 98.12C312.742 100.136 313.318 102.488 313.318 105.176ZM304.918 103.016C304.918 101.608 304.438 100.488 303.478 99.656C302.518 98.824 301.318 98.408 299.878 98.408C298.502 98.408 297.334 98.808 296.374 99.608C295.446 100.408 294.87 101.544 294.646 103.016H304.918ZM333.968 91.928C337.104 91.928 339.6 92.952 341.456 95C343.344 97.016 344.288 99.8 344.288 103.352V119H336.128V104.456C336.128 102.664 335.664 101.272 334.736 100.28C333.808 99.288 332.56 98.792 330.992 98.792C329.424 98.792 328.176 99.288 327.248 100.28C326.32 101.272 325.856 102.664 325.856 104.456V119H317.648V92.216H325.856V95.768C326.688 94.584 327.808 93.656 329.216 92.984C330.624 92.28 332.208 91.928 333.968 91.928ZM364.92 112.04V119H360.744C357.768 119 355.448 118.28 353.784 116.84C352.12 115.368 351.288 112.984 351.288 109.688V99.032H348.024V92.216H351.288V85.688H359.496V92.216H364.872V99.032H359.496V109.784C359.496 110.584 359.688 111.16 360.072 111.512C360.456 111.864 361.096 112.04 361.992 112.04H364.92ZM367.86 105.56C367.86 102.808 368.372 100.392 369.396 98.312C370.452 96.232 371.876 94.632 373.668 93.512C375.46 92.392 377.46 91.832 379.668 91.832C381.556 91.832 383.204 92.216 384.612 92.984C386.052 93.752 387.156 94.76 387.924 96.008V92.216H396.132V119H387.924V115.208C387.124 116.456 386.004 117.464 384.564 118.232C383.156 119 381.508 119.384 379.62 119.384C377.444 119.384 375.46 118.824 373.668 117.704C371.876 116.552 370.452 114.936 369.396 112.856C368.372 110.744 367.86 108.312 367.86 105.56ZM387.924 105.608C387.924 103.56 387.348 101.944 386.196 100.76C385.076 99.576 383.7 98.984 382.068 98.984C380.436 98.984 379.044 99.576 377.892 100.76C376.772 101.912 376.212 103.512 376.212 105.56C376.212 107.608 376.772 109.24 377.892 110.456C379.044 111.64 380.436 112.232 382.068 112.232C383.7 112.232 385.076 111.64 386.196 110.456C387.348 109.272 387.924 107.656 387.924 105.608ZM416.998 112.04V119H412.822C409.846 119 407.526 118.28 405.862 116.84C404.198 115.368 403.366 112.984 403.366 109.688V99.032H400.102V92.216H403.366V85.688H411.574V92.216H416.95V99.032H411.574V109.784C411.574 110.584 411.766 111.16 412.15 111.512C412.534 111.864 413.174 112.04 414.07 112.04H416.998ZM425.698 89.432C424.258 89.432 423.074 89.016 422.146 88.184C421.25 87.32 420.802 86.264 420.802 85.016C420.802 83.736 421.25 82.68 422.146 81.848C423.074 80.984 424.258 80.552 425.698 80.552C427.106 80.552 428.258 80.984 429.154 81.848C430.082 82.68 430.546 83.736 430.546 85.016C430.546 86.264 430.082 87.32 429.154 88.184C428.258 89.016 427.106 89.432 425.698 89.432ZM429.778 92.216V119H421.57V92.216H429.778ZM447.918 119.384C445.294 119.384 442.926 118.824 440.814 117.704C438.734 116.584 437.086 114.984 435.87 112.904C434.686 110.824 434.094 108.392 434.094 105.608C434.094 102.856 434.702 100.44 435.918 98.36C437.134 96.248 438.798 94.632 440.91 93.512C443.022 92.392 445.39 91.832 448.014 91.832C450.638 91.832 453.006 92.392 455.118 93.512C457.23 94.632 458.894 96.248 460.11 98.36C461.326 100.44 461.934 102.856 461.934 105.608C461.934 108.36 461.31 110.792 460.062 112.904C458.846 114.984 457.166 116.584 455.022 117.704C452.91 118.824 450.542 119.384 447.918 119.384ZM447.918 112.28C449.486 112.28 450.814 111.704 451.902 110.552C453.022 109.4 453.582 107.752 453.582 105.608C453.582 103.464 453.038 101.816 451.95 100.664C450.894 99.512 449.582 98.936 448.014 98.936C446.414 98.936 445.086 99.512 444.03 100.664C442.974 101.784 442.446 103.432 442.446 105.608C442.446 107.752 442.958 109.4 443.982 110.552C445.038 111.704 446.35 112.28 447.918 112.28ZM482.609 91.928C485.745 91.928 488.241 92.952 490.097 95C491.985 97.016 492.929 99.8 492.929 103.352V119H484.769V104.456C484.769 102.664 484.305 101.272 483.377 100.28C482.449 99.288 481.201 98.792 479.633 98.792C478.065 98.792 476.817 99.288 475.889 100.28C474.961 101.272 474.497 102.664 474.497 104.456V119H466.289V92.216H474.497V95.768C475.329 94.584 476.449 93.656 477.857 92.984C479.265 92.28 480.849 91.928 482.609 91.928Z" fill="#2F4F4F"/>
<path d="M1134 0H1348C1356.28 0 1363 6.71573 1363 15V148C1363 156.284 1356.28 163 1348 163H1134V0Z" fill="#2F4F4F"/>
<path d="M1281 46.5H1216L1213.5 49V114L1216 116.5H1281L1283.5 114V49L1281 46.5ZM1278.5 111.5H1233.5V101.5H1245C1246.5 104.5 1250 106.5 1253.5 106.5C1259 106.5 1263.5 102 1263.5 96.5C1263.5 91 1259 86.5 1253.5 86.5C1248 86.5 1243.5 91 1243.5 96.5H1228.5V111.5H1218.5V51.5H1228.5V63C1225.5 64.5 1223.5 68 1223.5 71.5C1223.5 77 1228 81.5 1233.5 81.5C1239 81.5 1243.5 77 1243.5 71.5H1253.5C1253.5 77 1258 81.5 1263.5 81.5C1269 81.5 1273.5 77 1273.5 71.5C1273.5 66 1269 61.5 1263.5 61.5C1260 61.5 1256.5 63.5 1255 66.5H1242C1240.5 63.5 1237 61.5 1233.5 61.5V51.5H1278.5V111.5ZM1248.5 96.5C1248.5 93.5 1250.5 91.5 1253.5 91.5C1256.5 91.5 1258.5 93.5 1258.5 96.5C1258.5 99.5 1256.5 101.5 1253.5 101.5C1250.5 101.5 1248.5 99.5 1248.5 96.5ZM1233.5 66.5C1236.5 66.5 1238.5 68.5 1238.5 71.5C1238.5 74.5 1236.5 76.5 1233.5 76.5C1230.5 76.5 1228.5 74.5 1228.5 71.5C1228.5 68.5 1230.5 66.5 1233.5 66.5ZM1263.5 66.5C1266.5 66.5 1268.5 68.5 1268.5 71.5C1268.5 74.5 1266.5 76.5 1263.5 76.5C1260.5 76.5 1258.5 74.5 1258.5 71.5C1258.5 68.5 1260.5 66.5 1263.5 66.5Z" fill="white"/>
</svg>
