<svg width="1363" height="163" viewBox="0 0 1363 163" fill="none" xmlns="http://www.w3.org/2000/svg">
<path d="M0 15C0 6.71573 6.71573 0 15 0H37V163H15C6.71573 163 0 156.284 0 148V15Z" fill="#F0EAD6"/>
<rect width="1097" height="163" transform="translate(37)" fill="#F0F0F0"/>
<path d="M101.906 53.9219L94.3945 51.2383V48.0859L104.602 52.375V54.6367L101.906 53.9219ZM94.3945 56.1719L101.918 53.4297L104.602 52.7852V55.0352L94.3945 59.3242V56.1719ZM119.895 43.9375V61H116.391V43.9375H119.895ZM125.145 43.9375V46.6914H111.223V43.9375H125.145ZM132 58.1406V52.4922C132 52.0859 131.934 51.7383 131.801 51.4492C131.668 51.1523 131.461 50.9219 131.18 50.7578C130.906 50.5938 130.551 50.5117 130.113 50.5117C129.738 50.5117 129.414 50.5781 129.141 50.7109C128.867 50.8359 128.656 51.0195 128.508 51.2617C128.359 51.4961 128.285 51.7734 128.285 52.0938H124.91C124.91 51.5547 125.035 51.043 125.285 50.5586C125.535 50.0742 125.898 49.6484 126.375 49.2812C126.852 48.9062 127.418 48.6133 128.074 48.4023C128.738 48.1914 129.48 48.0859 130.301 48.0859C131.285 48.0859 132.16 48.25 132.926 48.5781C133.691 48.9062 134.293 49.3984 134.73 50.0547C135.176 50.7109 135.398 51.5312 135.398 52.5156V57.9414C135.398 58.6367 135.441 59.207 135.527 59.6523C135.613 60.0898 135.738 60.4727 135.902 60.8008V61H132.492C132.328 60.6562 132.203 60.2266 132.117 59.7109C132.039 59.1875 132 58.6641 132 58.1406ZM132.445 53.2773L132.469 55.1875H130.582C130.137 55.1875 129.75 55.2383 129.422 55.3398C129.094 55.4414 128.824 55.5859 128.613 55.7734C128.402 55.9531 128.246 56.1641 128.145 56.4062C128.051 56.6484 128.004 56.9141 128.004 57.2031C128.004 57.4922 128.07 57.7539 128.203 57.9883C128.336 58.2148 128.527 58.3945 128.777 58.5273C129.027 58.6523 129.32 58.7148 129.656 58.7148C130.164 58.7148 130.605 58.6133 130.98 58.4102C131.355 58.207 131.645 57.957 131.848 57.6602C132.059 57.3633 132.168 57.082 132.176 56.8164L133.066 58.2461C132.941 58.5664 132.77 58.8984 132.551 59.2422C132.34 59.5859 132.07 59.9102 131.742 60.2148C131.414 60.5117 131.02 60.7578 130.559 60.9531C130.098 61.1406 129.551 61.2344 128.918 61.2344C128.113 61.2344 127.383 61.0742 126.727 60.7539C126.078 60.4258 125.562 59.9766 125.18 59.4062C124.805 58.8281 124.617 58.1719 124.617 57.4375C124.617 56.7734 124.742 56.1836 124.992 55.668C125.242 55.1523 125.609 54.7188 126.094 54.3672C126.586 54.0078 127.199 53.7383 127.934 53.5586C128.668 53.3711 129.52 53.2773 130.488 53.2773H132.445ZM138 43H141.375V58.0938L141.035 61H138V43ZM149.402 54.5312V54.7773C149.402 55.7227 149.301 56.5898 149.098 57.3789C148.902 58.168 148.598 58.8516 148.184 59.4297C147.77 60 147.254 60.4453 146.637 60.7656C146.027 61.0781 145.309 61.2344 144.48 61.2344C143.707 61.2344 143.035 61.0781 142.465 60.7656C141.902 60.4531 141.43 60.0117 141.047 59.4414C140.664 58.8711 140.355 58.2031 140.121 57.4375C139.887 56.6719 139.711 55.8359 139.594 54.9297V54.3906C139.711 53.4844 139.887 52.6484 140.121 51.8828C140.355 51.1172 140.664 50.4492 141.047 49.8789C141.43 49.3086 141.902 48.8672 142.465 48.5547C143.027 48.2422 143.691 48.0859 144.457 48.0859C145.293 48.0859 146.02 48.2461 146.637 48.5664C147.262 48.8789 147.777 49.3242 148.184 49.9023C148.598 50.4727 148.902 51.1523 149.098 51.9414C149.301 52.7227 149.402 53.5859 149.402 54.5312ZM146.027 54.7773V54.5312C146.027 54.0156 145.988 53.5312 145.91 53.0781C145.84 52.6172 145.715 52.2148 145.535 51.8711C145.355 51.5195 145.109 51.2422 144.797 51.0391C144.492 50.8359 144.098 50.7344 143.613 50.7344C143.152 50.7344 142.762 50.8125 142.441 50.9688C142.121 51.125 141.855 51.3438 141.645 51.625C141.441 51.9062 141.289 52.2422 141.188 52.6328C141.086 53.0156 141.023 53.4375 141 53.8984V55.4336C141.023 56.0508 141.125 56.5977 141.305 57.0742C141.492 57.543 141.773 57.9141 142.148 58.1875C142.531 58.4531 143.027 58.5859 143.637 58.5859C144.113 58.5859 144.508 58.4922 144.82 58.3047C145.133 58.1172 145.375 57.8516 145.547 57.5078C145.727 57.1641 145.852 56.7617 145.922 56.3008C145.992 55.832 146.027 55.3242 146.027 54.7773ZM154.875 42.9883V61H151.5V42.9883H154.875ZM162.867 48.3203L157.359 54.6016L154.406 57.5898L153.176 55.1523L155.52 52.1758L158.812 48.3203H162.867ZM159.363 61L155.613 55.1406L157.945 53.1016L163.254 61H159.363ZM167.613 43V61H164.238V43H167.613ZM167.133 54.2148H166.207C166.215 53.332 166.332 52.5195 166.559 51.7773C166.785 51.0273 167.109 50.3789 167.531 49.832C167.953 49.2773 168.457 48.8477 169.043 48.543C169.637 48.2383 170.293 48.0859 171.012 48.0859C171.637 48.0859 172.203 48.1758 172.711 48.3555C173.227 48.5273 173.668 48.8086 174.035 49.1992C174.41 49.582 174.699 50.0859 174.902 50.7109C175.105 51.3359 175.207 52.0938 175.207 52.9844V61H171.809V52.9609C171.809 52.3984 171.727 51.957 171.562 51.6367C171.406 51.3086 171.176 51.0781 170.871 50.9453C170.574 50.8047 170.207 50.7344 169.77 50.7344C169.285 50.7344 168.871 50.8242 168.527 51.0039C168.191 51.1836 167.922 51.4336 167.719 51.7539C167.516 52.0664 167.367 52.4336 167.273 52.8555C167.18 53.2773 167.133 53.7305 167.133 54.2148ZM183.609 61.2344C182.625 61.2344 181.742 61.0781 180.961 60.7656C180.18 60.4453 179.516 60.0039 178.969 59.4414C178.43 58.8789 178.016 58.2266 177.727 57.4844C177.438 56.7344 177.293 55.9375 177.293 55.0938V54.625C177.293 53.6641 177.43 52.7852 177.703 51.9883C177.977 51.1914 178.367 50.5 178.875 49.9141C179.391 49.3281 180.016 48.8789 180.75 48.5664C181.484 48.2461 182.312 48.0859 183.234 48.0859C184.133 48.0859 184.93 48.2344 185.625 48.5312C186.32 48.8281 186.902 49.25 187.371 49.7969C187.848 50.3438 188.207 51 188.449 51.7656C188.691 52.5234 188.812 53.3672 188.812 54.2969V55.7031H178.734V53.4531H185.496V53.1953C185.496 52.7266 185.41 52.3086 185.238 51.9414C185.074 51.5664 184.824 51.2695 184.488 51.0508C184.152 50.832 183.723 50.7227 183.199 50.7227C182.754 50.7227 182.371 50.8203 182.051 51.0156C181.73 51.2109 181.469 51.4844 181.266 51.8359C181.07 52.1875 180.922 52.6016 180.82 53.0781C180.727 53.5469 180.68 54.0625 180.68 54.625V55.0938C180.68 55.6016 180.75 56.0703 180.891 56.5C181.039 56.9297 181.246 57.3008 181.512 57.6133C181.785 57.9258 182.113 58.168 182.496 58.3398C182.887 58.5117 183.328 58.5977 183.82 58.5977C184.43 58.5977 184.996 58.4805 185.52 58.2461C186.051 58.0039 186.508 57.6406 186.891 57.1562L188.531 58.9375C188.266 59.3203 187.902 59.6875 187.441 60.0391C186.988 60.3906 186.441 60.6797 185.801 60.9062C185.16 61.125 184.43 61.2344 183.609 61.2344ZM196.945 48.3203V50.7109H189.562V48.3203H196.945ZM191.391 45.1914H194.766V57.1797C194.766 57.5469 194.812 57.8281 194.906 58.0234C195.008 58.2188 195.156 58.3555 195.352 58.4336C195.547 58.5039 195.793 58.5391 196.09 58.5391C196.301 58.5391 196.488 58.5312 196.652 58.5156C196.824 58.4922 196.969 58.4688 197.086 58.4453L197.098 60.9297C196.809 61.0234 196.496 61.0977 196.16 61.1523C195.824 61.207 195.453 61.2344 195.047 61.2344C194.305 61.2344 193.656 61.1133 193.102 60.8711C192.555 60.6211 192.133 60.2227 191.836 59.6758C191.539 59.1289 191.391 58.4102 191.391 57.5195V45.1914ZM202.172 51.0273V61H198.797V48.3203H201.961L202.172 51.0273ZM201.68 54.2148H200.766C200.766 53.2773 200.887 52.4336 201.129 51.6836C201.371 50.9258 201.711 50.2812 202.148 49.75C202.586 49.2109 203.105 48.8008 203.707 48.5195C204.316 48.2305 204.996 48.0859 205.746 48.0859C206.34 48.0859 206.883 48.1719 207.375 48.3438C207.867 48.5156 208.289 48.7891 208.641 49.1641C209 49.5391 209.273 50.0352 209.461 50.6523C209.656 51.2695 209.754 52.0234 209.754 52.9141V61H206.355V52.9023C206.355 52.3398 206.277 51.9023 206.121 51.5898C205.965 51.2773 205.734 51.0586 205.43 50.9336C205.133 50.8008 204.766 50.7344 204.328 50.7344C203.875 50.7344 203.48 50.8242 203.145 51.0039C202.816 51.1836 202.543 51.4336 202.324 51.7539C202.113 52.0664 201.953 52.4336 201.844 52.8555C201.734 53.2773 201.68 53.7305 201.68 54.2148ZM219.164 58.1406V52.4922C219.164 52.0859 219.098 51.7383 218.965 51.4492C218.832 51.1523 218.625 50.9219 218.344 50.7578C218.07 50.5938 217.715 50.5117 217.277 50.5117C216.902 50.5117 216.578 50.5781 216.305 50.7109C216.031 50.8359 215.82 51.0195 215.672 51.2617C215.523 51.4961 215.449 51.7734 215.449 52.0938H212.074C212.074 51.5547 212.199 51.043 212.449 50.5586C212.699 50.0742 213.062 49.6484 213.539 49.2812C214.016 48.9062 214.582 48.6133 215.238 48.4023C215.902 48.1914 216.645 48.0859 217.465 48.0859C218.449 48.0859 219.324 48.25 220.09 48.5781C220.855 48.9062 221.457 49.3984 221.895 50.0547C222.34 50.7109 222.562 51.5312 222.562 52.5156V57.9414C222.562 58.6367 222.605 59.207 222.691 59.6523C222.777 60.0898 222.902 60.4727 223.066 60.8008V61H219.656C219.492 60.6562 219.367 60.2266 219.281 59.7109C219.203 59.1875 219.164 58.6641 219.164 58.1406ZM219.609 53.2773L219.633 55.1875H217.746C217.301 55.1875 216.914 55.2383 216.586 55.3398C216.258 55.4414 215.988 55.5859 215.777 55.7734C215.566 55.9531 215.41 56.1641 215.309 56.4062C215.215 56.6484 215.168 56.9141 215.168 57.2031C215.168 57.4922 215.234 57.7539 215.367 57.9883C215.5 58.2148 215.691 58.3945 215.941 58.5273C216.191 58.6523 216.484 58.7148 216.82 58.7148C217.328 58.7148 217.77 58.6133 218.145 58.4102C218.52 58.207 218.809 57.957 219.012 57.6602C219.223 57.3633 219.332 57.082 219.34 56.8164L220.23 58.2461C220.105 58.5664 219.934 58.8984 219.715 59.2422C219.504 59.5859 219.234 59.9102 218.906 60.2148C218.578 60.5117 218.184 60.7578 217.723 60.9531C217.262 61.1406 216.715 61.2344 216.082 61.2344C215.277 61.2344 214.547 61.0742 213.891 60.7539C213.242 60.4258 212.727 59.9766 212.344 59.4062C211.969 58.8281 211.781 58.1719 211.781 57.4375C211.781 56.7734 211.906 56.1836 212.156 55.668C212.406 55.1523 212.773 54.7188 213.258 54.3672C213.75 54.0078 214.363 53.7383 215.098 53.5586C215.832 53.3711 216.684 53.2773 217.652 53.2773H219.609Z" fill="#888888"/>
<path d="M112.125 84.875V119H103.898V84.875H112.125ZM122.391 84.875V91.2266H93.8672V84.875H122.391ZM135.68 119.469C133.617 119.469 131.773 119.148 130.148 118.508C128.523 117.852 127.148 116.953 126.023 115.812C124.914 114.672 124.062 113.359 123.469 111.875C122.891 110.391 122.602 108.82 122.602 107.164V106.273C122.602 104.414 122.859 102.695 123.375 101.117C123.891 99.5234 124.656 98.1328 125.672 96.9453C126.688 95.7578 127.961 94.8359 129.492 94.1797C131.023 93.5078 132.805 93.1719 134.836 93.1719C136.633 93.1719 138.242 93.4609 139.664 94.0391C141.086 94.6172 142.289 95.4453 143.273 96.5234C144.273 97.6016 145.031 98.9062 145.547 100.438C146.078 101.969 146.344 103.688 146.344 105.594V108.805H125.625V103.859H138.633V103.25C138.648 102.406 138.5 101.688 138.188 101.094C137.891 100.5 137.453 100.047 136.875 99.7344C136.297 99.4219 135.594 99.2656 134.766 99.2656C133.906 99.2656 133.195 99.4531 132.633 99.8281C132.086 100.203 131.656 100.719 131.344 101.375C131.047 102.016 130.836 102.758 130.711 103.602C130.586 104.445 130.523 105.336 130.523 106.273V107.164C130.523 108.102 130.648 108.953 130.898 109.719C131.164 110.484 131.539 111.141 132.023 111.688C132.523 112.219 133.117 112.633 133.805 112.93C134.508 113.227 135.305 113.375 136.195 113.375C137.273 113.375 138.336 113.172 139.383 112.766C140.43 112.359 141.328 111.688 142.078 110.75L145.664 115.016C145.148 115.75 144.414 116.461 143.461 117.148C142.523 117.836 141.398 118.398 140.086 118.836C138.773 119.258 137.305 119.469 135.68 119.469ZM160.266 113.375C161 113.375 161.625 113.242 162.141 112.977C162.672 112.695 163.07 112.305 163.336 111.805C163.617 111.289 163.75 110.672 163.734 109.953H171.164C171.18 111.859 170.711 113.531 169.758 114.969C168.82 116.391 167.539 117.5 165.914 118.297C164.305 119.078 162.484 119.469 160.453 119.469C158.469 119.469 156.734 119.148 155.25 118.508C153.766 117.852 152.523 116.945 151.523 115.789C150.539 114.617 149.797 113.25 149.297 111.688C148.812 110.125 148.57 108.43 148.57 106.602V106.062C148.57 104.234 148.812 102.539 149.297 100.977C149.797 99.3984 150.539 98.0312 151.523 96.875C152.523 95.7031 153.758 94.7969 155.227 94.1562C156.711 93.5 158.438 93.1719 160.406 93.1719C162.516 93.1719 164.375 93.5703 165.984 94.3672C167.609 95.1641 168.883 96.3203 169.805 97.8359C170.727 99.3516 171.18 101.188 171.164 103.344H163.734C163.75 102.578 163.633 101.891 163.383 101.281C163.133 100.672 162.742 100.188 162.211 99.8281C161.695 99.4531 161.031 99.2656 160.219 99.2656C159.406 99.2656 158.75 99.4453 158.25 99.8047C157.75 100.164 157.367 100.664 157.102 101.305C156.852 101.93 156.68 102.648 156.586 103.461C156.508 104.273 156.469 105.141 156.469 106.062V106.602C156.469 107.539 156.508 108.422 156.586 109.25C156.68 110.062 156.859 110.781 157.125 111.406C157.391 112.016 157.773 112.5 158.273 112.859C158.773 113.203 159.438 113.375 160.266 113.375ZM182.273 83V119H174.375V83H182.273ZM181.336 105.453L179.484 105.5C179.484 103.719 179.703 102.078 180.141 100.578C180.578 99.0781 181.203 97.7734 182.016 96.6641C182.828 95.5547 183.805 94.6953 184.945 94.0859C186.086 93.4766 187.352 93.1719 188.742 93.1719C189.992 93.1719 191.133 93.3516 192.164 93.7109C193.211 94.0703 194.109 94.6484 194.859 95.4453C195.625 96.2422 196.211 97.2812 196.617 98.5625C197.039 99.8438 197.25 101.406 197.25 103.25V119H189.305V103.203C189.305 102.172 189.156 101.375 188.859 100.812C188.578 100.234 188.172 99.8359 187.641 99.6172C187.109 99.3828 186.461 99.2656 185.695 99.2656C184.773 99.2656 184.023 99.4219 183.445 99.7344C182.867 100.047 182.422 100.484 182.109 101.047C181.812 101.594 181.609 102.242 181.5 102.992C181.391 103.742 181.336 104.562 181.336 105.453ZM231.539 109.93C231.539 109.398 231.461 108.922 231.305 108.5C231.148 108.062 230.859 107.656 230.438 107.281C230.016 106.906 229.406 106.531 228.609 106.156C227.828 105.766 226.797 105.359 225.516 104.938C224.016 104.438 222.57 103.875 221.18 103.25C219.789 102.609 218.547 101.867 217.453 101.023C216.359 100.164 215.492 99.1641 214.852 98.0234C214.211 96.8672 213.891 95.5234 213.891 93.9922C213.891 92.5234 214.219 91.2031 214.875 90.0312C215.531 88.8438 216.445 87.8359 217.617 87.0078C218.805 86.1641 220.195 85.5234 221.789 85.0859C223.383 84.6328 225.125 84.4062 227.016 84.4062C229.516 84.4062 231.719 84.8438 233.625 85.7188C235.547 86.5781 237.047 87.8047 238.125 89.3984C239.219 90.9766 239.766 92.8438 239.766 95H231.586C231.586 94.1406 231.406 93.3828 231.047 92.7266C230.703 92.0703 230.18 91.5547 229.477 91.1797C228.773 90.8047 227.891 90.6172 226.828 90.6172C225.797 90.6172 224.93 90.7734 224.227 91.0859C223.523 91.3984 222.992 91.8203 222.633 92.3516C222.273 92.8672 222.094 93.4375 222.094 94.0625C222.094 94.5781 222.234 95.0469 222.516 95.4688C222.812 95.875 223.227 96.2578 223.758 96.6172C224.305 96.9766 224.961 97.3203 225.727 97.6484C226.508 97.9766 227.383 98.2969 228.352 98.6094C230.164 99.1875 231.773 99.8359 233.18 100.555C234.602 101.258 235.797 102.062 236.766 102.969C237.75 103.859 238.492 104.875 238.992 106.016C239.508 107.156 239.766 108.445 239.766 109.883C239.766 111.414 239.469 112.773 238.875 113.961C238.281 115.148 237.43 116.156 236.32 116.984C235.211 117.797 233.883 118.414 232.336 118.836C230.789 119.258 229.062 119.469 227.156 119.469C225.406 119.469 223.68 119.25 221.977 118.812C220.289 118.359 218.758 117.672 217.383 116.75C216.008 115.812 214.906 114.617 214.078 113.164C213.266 111.695 212.859 109.953 212.859 107.938H221.109C221.109 108.938 221.242 109.781 221.508 110.469C221.773 111.156 222.164 111.711 222.68 112.133C223.195 112.539 223.828 112.836 224.578 113.023C225.328 113.195 226.188 113.281 227.156 113.281C228.203 113.281 229.047 113.133 229.688 112.836C230.328 112.523 230.797 112.117 231.094 111.617C231.391 111.102 231.539 110.539 231.539 109.93ZM256.992 93.6406V99.125H241.711V93.6406H256.992ZM244.922 87.3359H252.82V110.727C252.82 111.398 252.898 111.922 253.055 112.297C253.211 112.656 253.477 112.914 253.852 113.07C254.242 113.211 254.758 113.281 255.398 113.281C255.852 113.281 256.227 113.273 256.523 113.258C256.82 113.227 257.102 113.188 257.367 113.141V118.789C256.695 119.008 255.992 119.172 255.258 119.281C254.523 119.406 253.742 119.469 252.914 119.469C251.227 119.469 249.781 119.203 248.578 118.672C247.391 118.141 246.484 117.305 245.859 116.164C245.234 115.023 244.922 113.539 244.922 111.711V87.3359ZM273.305 112.625V102.172C273.305 101.453 273.203 100.836 273 100.32C272.797 99.8047 272.477 99.4062 272.039 99.125C271.602 98.8281 271.016 98.6797 270.281 98.6797C269.688 98.6797 269.18 98.7812 268.758 98.9844C268.336 99.1875 268.016 99.4922 267.797 99.8984C267.578 100.305 267.469 100.82 267.469 101.445H259.57C259.57 100.273 259.828 99.1875 260.344 98.1875C260.875 97.1719 261.625 96.2891 262.594 95.5391C263.578 94.7891 264.75 94.2109 266.109 93.8047C267.484 93.3828 269.016 93.1719 270.703 93.1719C272.719 93.1719 274.516 93.5078 276.094 94.1797C277.688 94.8516 278.945 95.8594 279.867 97.2031C280.789 98.5312 281.25 100.203 281.25 102.219V112.602C281.25 114.258 281.344 115.516 281.531 116.375C281.719 117.219 281.984 117.961 282.328 118.602V119H274.406C274.031 118.219 273.75 117.266 273.562 116.141C273.391 115 273.305 113.828 273.305 112.625ZM274.266 103.508L274.312 107.727H270.82C270.086 107.727 269.461 107.828 268.945 108.031C268.445 108.234 268.039 108.516 267.727 108.875C267.43 109.219 267.211 109.609 267.07 110.047C266.945 110.484 266.883 110.945 266.883 111.43C266.883 111.898 266.992 112.32 267.211 112.695C267.445 113.055 267.758 113.336 268.148 113.539C268.539 113.742 268.977 113.844 269.461 113.844C270.336 113.844 271.078 113.68 271.688 113.352C272.312 113.008 272.789 112.594 273.117 112.109C273.445 111.625 273.609 111.172 273.609 110.75L275.344 113.984C275.031 114.609 274.672 115.242 274.266 115.883C273.875 116.523 273.383 117.117 272.789 117.664C272.211 118.195 271.5 118.633 270.656 118.977C269.812 119.305 268.789 119.469 267.586 119.469C266.023 119.469 264.586 119.148 263.273 118.508C261.977 117.867 260.938 116.977 260.156 115.836C259.375 114.68 258.984 113.352 258.984 111.852C258.984 110.539 259.219 109.367 259.688 108.336C260.172 107.305 260.898 106.43 261.867 105.711C262.836 104.992 264.07 104.445 265.57 104.07C267.07 103.695 268.836 103.508 270.867 103.508H274.266ZM296.344 113.375C297.078 113.375 297.703 113.242 298.219 112.977C298.75 112.695 299.148 112.305 299.414 111.805C299.695 111.289 299.828 110.672 299.812 109.953H307.242C307.258 111.859 306.789 113.531 305.836 114.969C304.898 116.391 303.617 117.5 301.992 118.297C300.383 119.078 298.562 119.469 296.531 119.469C294.547 119.469 292.812 119.148 291.328 118.508C289.844 117.852 288.602 116.945 287.602 115.789C286.617 114.617 285.875 113.25 285.375 111.688C284.891 110.125 284.648 108.43 284.648 106.602V106.062C284.648 104.234 284.891 102.539 285.375 100.977C285.875 99.3984 286.617 98.0312 287.602 96.875C288.602 95.7031 289.836 94.7969 291.305 94.1562C292.789 93.5 294.516 93.1719 296.484 93.1719C298.594 93.1719 300.453 93.5703 302.062 94.3672C303.688 95.1641 304.961 96.3203 305.883 97.8359C306.805 99.3516 307.258 101.188 307.242 103.344H299.812C299.828 102.578 299.711 101.891 299.461 101.281C299.211 100.672 298.82 100.188 298.289 99.8281C297.773 99.4531 297.109 99.2656 296.297 99.2656C295.484 99.2656 294.828 99.4453 294.328 99.8047C293.828 100.164 293.445 100.664 293.18 101.305C292.93 101.93 292.758 102.648 292.664 103.461C292.586 104.273 292.547 105.141 292.547 106.062V106.602C292.547 107.539 292.586 108.422 292.664 109.25C292.758 110.062 292.938 110.781 293.203 111.406C293.469 112.016 293.852 112.5 294.352 112.859C294.852 113.203 295.516 113.375 296.344 113.375ZM318.586 82.9766V119H310.688V82.9766H318.586ZM334.805 93.6406L323.789 106.555L318.023 112.32L314.578 107.305L319.383 101.047L325.336 93.6406H334.805ZM326.344 119L319.57 107.445L325.406 103.297L335.391 119H326.344Z" fill="black"/>
<path d="M1134 0H1348C1356.28 0 1363 6.71573 1363 15V148C1363 156.284 1356.28 163 1348 163H1134V0Z" fill="#281912"/>
<path fill-rule="evenodd" clip-rule="evenodd" d="M1218.75 53C1218.62 53 1218.49 53.0527 1218.4 53.1464C1218.3 53.2402 1218.25 53.3674 1218.25 53.5V109.5C1218.25 109.633 1218.3 109.76 1218.4 109.854C1218.49 109.947 1218.62 110 1218.75 110H1278.25C1278.38 110 1278.51 109.947 1278.6 109.854C1278.7 109.76 1278.75 109.633 1278.75 109.5V64C1278.75 63.8674 1278.7 63.7402 1278.6 63.6464C1278.51 63.5527 1278.38 63.5 1278.25 63.5H1248.5C1247.61 63.5 1246.77 63.1045 1246.2 62.4206L1238.34 53H1218.75ZM1214.15 48.9038C1215.37 47.6848 1217.03 47 1218.75 47H1239.75C1240.64 47 1241.48 47.3955 1242.05 48.0794L1249.91 57.5H1278.25C1279.97 57.5 1281.63 58.1848 1282.85 59.4038C1284.07 60.6228 1284.75 62.2761 1284.75 64V109.5C1284.75 111.224 1284.07 112.877 1282.85 114.096C1281.63 115.315 1279.97 116 1278.25 116H1218.75C1217.03 116 1215.37 115.315 1214.15 114.096C1212.93 112.877 1212.25 111.224 1212.25 109.5V53.5C1212.25 51.7761 1212.93 50.1228 1214.15 48.9038Z" fill="white"/>
<path fill-rule="evenodd" clip-rule="evenodd" d="M1243.97 75.5251C1245.34 76.892 1245.34 79.108 1243.97 80.4749L1237.7 86.75L1243.97 93.0251C1245.34 94.392 1245.34 96.608 1243.97 97.9749C1242.61 99.3417 1240.39 99.3417 1239.03 97.9749L1230.28 89.2249C1228.91 87.858 1228.91 85.642 1230.28 84.2751L1239.03 75.5251C1240.39 74.1583 1242.61 74.1583 1243.97 75.5251Z" fill="white"/>
<path fill-rule="evenodd" clip-rule="evenodd" d="M1252.28 97.9749C1250.91 96.608 1250.91 94.392 1252.28 93.0251L1258.55 86.75L1252.28 80.4749C1250.91 79.108 1250.91 76.892 1252.28 75.5251C1253.64 74.1583 1255.86 74.1583 1257.22 75.5251L1265.97 84.2751C1267.34 85.642 1267.34 87.858 1265.97 89.2249L1257.22 97.9749C1255.86 99.3417 1253.64 99.3417 1252.28 97.9749Z" fill="white"/>
</svg>
